<svg width="81" height="38" viewBox="0 0 81 38" fill="none" xmlns="http://www.w3.org/2000/svg">
<path d="M0 0.0136719V6.16182H5.61266V24.0456V28.8453H12.8752V24.9843V6.16182H18.4511V0.0136719H0Z" fill="#F4B41A"/>
<path d="M76.0749 4.14747C73.1716 1.39219 69.633 0.013937 65.4591 0.0126953C62.1353 0.0126953 59.5905 0.718587 57.1727 2.35015C58.6789 4.07797 59.6744 6.19942 60.0453 8.47222C61.5233 7.06847 63.4651 6.27169 65.4923 6.2372C67.7462 6.2372 69.617 7.06664 71.1049 8.72552C72.5068 10.2975 73.2078 12.2003 73.2078 14.4341C73.2457 16.5212 72.4911 18.5436 71.0994 20.085C70.4131 20.8848 69.5614 21.5222 68.6045 21.9522C67.6477 22.3822 66.6091 22.5942 65.5622 22.5733C63.2592 22.5733 61.3632 21.7501 59.8741 20.1036C58.9356 19.0863 58.2772 17.8379 57.9645 16.4829C56.7967 17.7466 55.3435 18.7053 53.7292 19.2766L61.0268 28.2055C62.457 28.6012 63.934 28.7973 65.4168 28.7885C68.8455 28.7885 71.847 27.8709 74.4213 26.0357C75.0028 25.6186 75.5564 25.1632 76.0786 24.6723C77.7061 23.1647 78.9461 21.2789 79.6915 19.1779C80.2192 17.6384 80.4827 16.0188 80.4704 14.3894C80.4679 10.3304 79.0028 6.9164 76.0749 4.14747Z" fill="#F4B41A"/>
<path d="M51.8065 19.0311C52.8385 18.8834 53.8305 18.5269 54.7233 17.9829C55.6161 17.4389 56.3914 16.7186 57.003 15.8649C58.2306 14.2159 58.8444 12.2441 58.8444 9.94953C58.8444 6.59701 57.6782 3.97211 55.3457 2.07484C54.2617 1.1858 52.8721 0.596003 51.1767 0.305452C50.4235 0.169242 49.6617 0.0864687 48.897 0.0577374C48.3237 0.0204872 47.5638 0.00124167 46.6174 0H37.6772V4.92075C37.9074 5.1815 41.3159 7.90077 41.3159 14.8293C41.3159 20.5006 38.1376 23.5682 37.6772 24.0692V28.8391H44.612V19.5266H44.6857L51.2283 28.8391H59.4889L51.8065 19.0311ZM47.1716 14.4978H44.612V6.47036H47.2471C48.6171 6.47036 49.7073 6.76836 50.5175 7.36436C51.4517 8.03735 51.9188 9.03938 51.9188 10.3705C51.9188 13.122 50.3364 14.4978 47.1716 14.4978Z" fill="#F4B41A"/>
<path d="M35.659 4.1423C32.7594 1.38951 29.2227 0.0131172 25.0488 0.0131172C23.1702 -0.00670893 21.302 0.297513 19.5245 0.91271V7.05899H13.9597V24.1494C14.1439 24.3369 14.3354 24.5231 14.5342 24.7081C17.4449 27.4001 20.9375 28.7454 25.0119 28.7442C29.1969 28.7442 32.7459 27.3746 35.659 24.6355C38.5845 21.8566 40.0472 18.4346 40.0472 14.3693C40.0472 10.3041 38.5845 6.89509 35.659 4.1423ZM30.6872 20.0481C30.0024 20.846 29.1526 21.4821 28.1981 21.9115C27.2435 22.3408 26.2074 22.5529 25.1629 22.5327C22.8624 22.5327 20.9694 21.7107 19.484 20.0668C18.0464 18.4973 17.3277 16.5727 17.3277 14.293C17.3277 12.0654 18.0403 10.1787 19.4656 8.63281C20.9387 7.02485 22.8127 6.21776 25.0874 6.21155C27.3377 6.21155 29.2061 7.03975 30.6927 8.69614C32.0922 10.2656 32.7919 12.1648 32.7919 14.3936C32.8349 16.4813 32.0826 18.5058 30.6909 20.0481H30.6872Z" fill="#F4B41A"/>
<path d="M3.35595 37.9169L0.52937 33.6815H0.516481V37.9206H0.0395508V33.0967H0.684049L3.34306 37.0974H3.35595V33.0967H3.83104V37.9169H3.35595Z" fill="#422713"/>
<path d="M6.08984 37.9169V33.0967H8.69546V33.5362H6.56677V35.2646H8.62732V35.7042H6.56677V37.481H8.69546V37.9169H6.08984Z" fill="#422713"/>
<path d="M15.1587 37.9169H14.551L13.5051 33.9646H13.4885L12.4481 37.9169H11.8349L10.4778 33.0967H10.9676L12.1314 37.2966H12.1443L13.2786 33.0967H13.715L14.8548 37.2911H14.8677L16.0315 33.0967H16.5158L15.1587 37.9169Z" fill="#422713"/>
<path d="M28.8624 37.9169H28.2621L27.2143 33.9646H27.1996L26.1592 37.9169H25.546L24.187 33.0967H24.6787L25.8406 37.2966H25.8535L26.9878 33.0967H27.4316L28.5733 37.2911H28.5862L29.7352 33.0967H30.2195L28.8624 37.9169Z" fill="#422713"/>
<path d="M35.5559 37.9171L34.8635 36.2892H32.6538L31.9596 37.9115H31.4624L33.4972 33.0913H34.0312L36.077 37.9115L35.5559 37.9171ZM33.7642 33.6463L32.8306 35.8609H34.672L33.7642 33.6463Z" fill="#422713"/>
<path d="M39.1358 36.3077V37.9169H38.657V36.3077L36.9998 33.0967H37.5282L38.8872 35.7992L40.283 33.0967H40.8041L39.1358 36.3077Z" fill="#422713"/>
<path d="M52.8967 37.2786C52.4232 37.7416 51.7903 38.0004 51.1317 38.0004C50.473 38.0004 49.8402 37.7416 49.3667 37.2786C49.1253 37.0574 48.9329 36.787 48.8021 36.4853C48.6714 36.1835 48.6052 35.8572 48.608 35.5278C48.6025 35.1945 48.6651 34.8637 48.7918 34.556C48.9186 34.2484 49.1067 33.9705 49.3446 33.7398C49.8207 33.2731 50.4576 33.0122 51.1206 33.0122C51.7836 33.0122 52.4206 33.2731 52.8967 33.7398C53.1345 33.9675 53.3239 34.2418 53.4534 34.546C53.5829 34.8502 53.6496 35.178 53.6496 35.5092C53.6496 35.8404 53.5829 36.1681 53.4534 36.4723C53.3239 36.7766 53.1345 37.0509 52.8967 37.2786V37.2786ZM52.5689 34.0545C52.3804 33.8608 52.1557 33.707 51.9078 33.602C51.66 33.497 51.3939 33.4429 51.1252 33.4429C50.8565 33.4429 50.5905 33.497 50.3426 33.602C50.0948 33.707 49.87 33.8608 49.6816 34.0545C49.4899 34.2465 49.3384 34.4756 49.2362 34.7281C49.134 34.9805 49.0832 35.2513 49.0868 35.5241C49.0841 35.7929 49.1369 36.0592 49.2419 36.3062C49.3469 36.5531 49.5016 36.7752 49.6963 36.9582C49.8845 37.1494 50.1082 37.3011 50.3545 37.4046C50.6008 37.5081 50.8649 37.5614 51.1317 37.5614C51.3984 37.5614 51.6625 37.5081 51.9088 37.4046C52.1552 37.3011 52.3789 37.1494 52.5671 36.9582C52.7586 36.7691 52.9108 36.5431 53.0147 36.2937C53.1187 36.0442 53.1722 35.7762 53.1722 35.5054C53.1722 35.2347 53.1187 34.9667 53.0147 34.7172C52.9108 34.4677 52.7586 34.2418 52.5671 34.0527L52.5689 34.0545Z" fill="#422713"/>
<path d="M56.1727 33.5362V35.2814H58.0307V35.7172H56.1727V37.9169H55.6995V33.0967H58.108V33.5362H56.1727Z" fill="#422713"/>
<path d="M66.4146 37.9169V33.0967H66.8933V37.481H68.8618V37.9169H66.4146Z" fill="#422713"/>
<path d="M70.6721 37.9169V33.0967H71.1491V37.9169H70.6721Z" fill="#422713"/>
<path d="M73.8834 33.5362V35.2814H75.7414V35.7172H73.8834V37.9169H73.4065V33.0967H75.8132V33.5362H73.8834Z" fill="#422713"/>
<path d="M77.8479 37.9169V33.0967H80.4535V33.5362H78.3248V35.2646H80.3835V35.7042H78.3248V37.481H80.4535V37.9169H77.8479Z" fill="#422713"/>
</svg>
