<svg width="81" height="38" viewBox="0 0 81 38" fill="none" xmlns="http://www.w3.org/2000/svg">
<path d="M0 0.0136414V6.16179H5.61266V24.0456V28.8453H12.8752V24.9843V6.16179H18.4511V0.0136414H0Z" fill="#F4B41A"/>
<path d="M76.0749 4.14731C73.1716 1.39204 69.633 0.0137844 65.4591 0.0125427C62.1353 0.0125427 59.5905 0.718435 57.1727 2.34999C58.6789 4.07781 59.6744 6.19927 60.0453 8.47206C61.5233 7.06831 63.4651 6.27154 65.4923 6.23705C67.7462 6.23705 69.617 7.06649 71.1049 8.72536C72.5068 10.2973 73.2078 12.2002 73.2078 14.434C73.2457 16.521 72.4911 18.5434 71.0994 20.0848C70.4131 20.8846 69.5614 21.5221 68.6045 21.9521C67.6477 22.3821 66.6091 22.5941 65.5622 22.5731C63.2592 22.5731 61.3632 21.7499 59.8741 20.1034C58.9356 19.0861 58.2772 17.8377 57.9645 16.4827C56.7967 17.7465 55.3435 18.7051 53.7292 19.2765L61.0268 28.2054C62.457 28.601 63.934 28.7971 65.4168 28.7883C68.8455 28.7883 71.847 27.8707 74.4213 26.0355C75.0028 25.6184 75.5564 25.163 76.0786 24.6722C77.7061 23.1646 78.9461 21.2788 79.6915 19.1778C80.2192 17.6382 80.4827 16.0187 80.4704 14.3893C80.4679 10.3302 79.0028 6.91625 76.0749 4.14731Z" fill="#F4B41A"/>
<path d="M51.8065 19.0311C52.8385 18.8834 53.8305 18.5269 54.7233 17.9829C55.6161 17.4389 56.3914 16.7186 57.003 15.8649C58.2306 14.2159 58.8444 12.2441 58.8444 9.94953C58.8444 6.59701 57.6782 3.97211 55.3457 2.07484C54.2617 1.1858 52.8721 0.596003 51.1767 0.305452C50.4235 0.169242 49.6617 0.0864687 48.897 0.0577374C48.3237 0.0204872 47.5638 0.00124167 46.6174 0H37.6772V4.92075C37.9074 5.1815 41.3159 7.90077 41.3159 14.8293C41.3159 20.5006 38.1376 23.5682 37.6772 24.0692V28.8391H44.612V19.5266H44.6857L51.2283 28.8391H59.4889L51.8065 19.0311ZM47.1716 14.4978H44.612V6.47036H47.2471C48.6171 6.47036 49.7073 6.76836 50.5175 7.36436C51.4517 8.03735 51.9188 9.03938 51.9188 10.3705C51.9188 13.122 50.3364 14.4978 47.1716 14.4978Z" fill="#F4B41A"/>
<path d="M35.659 4.14209C32.7594 1.3893 29.2227 0.0129035 25.0488 0.0129035C23.1702 -0.00692255 21.302 0.297299 19.5245 0.912496V7.05878H13.9597V24.1492C14.1439 24.3367 14.3354 24.5229 14.5342 24.7079C17.4449 27.3999 20.9375 28.7452 25.0119 28.744C29.1969 28.744 32.7459 27.3744 35.659 24.6353C38.5845 21.8564 40.0472 18.4344 40.0472 14.3691C40.0472 10.3039 38.5845 6.89488 35.659 4.14209ZM30.6872 20.0479C30.0024 20.8458 29.1526 21.4819 28.1981 21.9112C27.2435 22.3406 26.2074 22.5526 25.1629 22.5325C22.8624 22.5325 20.9694 21.7105 19.484 20.0665C18.0464 18.4971 17.3277 16.5725 17.3277 14.2928C17.3277 12.0652 18.0403 10.1785 19.4656 8.6326C20.9387 7.02463 22.8127 6.21755 25.0874 6.21134C27.3377 6.21134 29.2061 7.03954 30.6927 8.69593C32.0922 10.2654 32.7919 12.1645 32.7919 14.3933C32.8349 16.4811 32.0826 18.5056 30.6909 20.0479H30.6872Z" fill="#F4B41A"/>
<path d="M3.35595 37.9169L0.52937 33.6815H0.516481V37.9206H0.0395508V33.0967H0.684049L3.34306 37.0974H3.35595V33.0967H3.83104V37.9169H3.35595Z" fill="white"/>
<path d="M6.08984 37.9169V33.0967H8.69546V33.5362H6.56677V35.2646H8.62732V35.7042H6.56677V37.481H8.69546V37.9169H6.08984Z" fill="white"/>
<path d="M15.1587 37.9169H14.551L13.5051 33.9646H13.4885L12.4481 37.9169H11.8349L10.4778 33.0967H10.9676L12.1314 37.2966H12.1443L13.2786 33.0967H13.715L14.8548 37.2911H14.8677L16.0315 33.0967H16.5158L15.1587 37.9169Z" fill="white"/>
<path d="M28.8624 37.9169H28.2621L27.2143 33.9646H27.1996L26.1592 37.9169H25.546L24.187 33.0967H24.6787L25.8406 37.2966H25.8535L26.9878 33.0967H27.4316L28.5733 37.2911H28.5862L29.7352 33.0967H30.2195L28.8624 37.9169Z" fill="white"/>
<path d="M35.5559 37.917L34.8635 36.2891H32.6538L31.9596 37.9114H31.4624L33.4972 33.0912H34.0312L36.077 37.9114L35.5559 37.917ZM33.7642 33.6462L32.8306 35.8607H34.672L33.7642 33.6462Z" fill="white"/>
<path d="M39.1358 36.3077V37.9169H38.657V36.3077L36.9998 33.0967H37.5282L38.8872 35.7992L40.283 33.0967H40.8041L39.1358 36.3077Z" fill="white"/>
<path d="M52.8967 37.2784C52.4232 37.7415 51.7903 38.0003 51.1317 38.0003C50.473 38.0003 49.8402 37.7415 49.3667 37.2784C49.1253 37.0572 48.9329 36.7869 48.8021 36.4851C48.6714 36.1834 48.6052 35.8571 48.608 35.5277C48.6025 35.1944 48.6651 34.8636 48.7918 34.5559C48.9186 34.2483 49.1067 33.9704 49.3446 33.7397C49.8207 33.273 50.4576 33.0121 51.1206 33.0121C51.7836 33.0121 52.4206 33.273 52.8967 33.7397C53.1345 33.9673 53.3239 34.2417 53.4534 34.5459C53.5829 34.8501 53.6496 35.1778 53.6496 35.509C53.6496 35.8403 53.5829 36.168 53.4534 36.4722C53.3239 36.7764 53.1345 37.0508 52.8967 37.2784V37.2784ZM52.5689 34.0544C52.3804 33.8607 52.1557 33.7069 51.9078 33.6018C51.66 33.4968 51.3939 33.4428 51.1252 33.4428C50.8565 33.4428 50.5905 33.4968 50.3426 33.6018C50.0948 33.7069 49.87 33.8607 49.6816 34.0544C49.4899 34.2464 49.3384 34.4754 49.2362 34.7279C49.134 34.9804 49.0832 35.2511 49.0868 35.5239C49.0841 35.7927 49.1369 36.0591 49.2419 36.3061C49.3469 36.553 49.5016 36.7751 49.6963 36.9581C49.8845 37.1493 50.1082 37.301 50.3545 37.4045C50.6008 37.508 50.8649 37.5613 51.1317 37.5613C51.3984 37.5613 51.6625 37.508 51.9088 37.4045C52.1552 37.301 52.3789 37.1493 52.5671 36.9581C52.7586 36.769 52.9108 36.543 53.0147 36.2935C53.1187 36.044 53.1722 35.7761 53.1722 35.5053C53.1722 35.2346 53.1187 34.9666 53.0147 34.7171C52.9108 34.4676 52.7586 34.2417 52.5671 34.0526L52.5689 34.0544Z" fill="white"/>
<path d="M56.1727 33.5362V35.2814H58.0307V35.7172H56.1727V37.9169H55.6995V33.0967H58.108V33.5362H56.1727Z" fill="white"/>
<path d="M66.4146 37.9169V33.0967H66.8933V37.481H68.8618V37.9169H66.4146Z" fill="white"/>
<path d="M70.6721 37.9169V33.0967H71.1491V37.9169H70.6721Z" fill="white"/>
<path d="M73.8834 33.5362V35.2814H75.7414V35.7172H73.8834V37.9169H73.4065V33.0967H75.8132V33.5362H73.8834Z" fill="white"/>
<path d="M77.8479 37.9169V33.0967H80.4535V33.5362H78.3248V35.2646H80.3835V35.7042H78.3248V37.481H80.4535V37.9169H77.8479Z" fill="white"/>
</svg>
