<svg width="200" height="221" viewBox="0 0 200 221" fill="none" xmlns="http://www.w3.org/2000/svg">
<g clip-path="url(#clip0)">
<path d="M83.4875 4.41529L16.4928 43.1603C6.29797 49.0725 0 59.9905 0 71.7756V149.226C0 161.051 6.29797 171.969 16.4928 177.881L83.4481 216.586C93.6824 222.499 106.239 222.499 116.473 216.586L183.428 177.881C193.663 171.969 199.921 161.051 199.921 149.226V71.7756C199.921 59.9511 193.623 49.0331 183.428 43.1208L116.512 4.41529C106.278 -1.45754 93.7217 -1.45754 83.4875 4.41529Z" fill="url(#paint0_linear)"/>
<g clip-path="url(#clip1)">
<path d="M143.822 88.1086L81.2226 150.56C78.3939 153.382 73.8084 153.382 70.9797 150.56L34.1442 113.81C31.3155 110.988 31.3155 106.41 34.1442 103.591L96.7413 41.1373C99.57 38.3152 104.158 38.3152 106.984 41.1373L143.822 77.8896C146.648 80.7117 146.648 85.2865 143.822 88.1086Z" fill="#8CBAFA"/>
<path d="M143.822 77.8896L139.223 73.3013C141.743 75.8155 141.492 80.1392 138.663 82.9613L76.0659 145.415C73.2372 148.237 68.9034 148.488 66.3833 145.974L70.9796 150.56C73.8083 153.382 78.3965 153.382 81.2225 150.56L143.82 88.1086C146.648 85.2865 146.648 80.7117 143.822 77.8896Z" fill="#5692D8"/>
<path d="M95.7181 55.3721L89.5843 61.4916C87.1724 63.8978 87.1724 67.7975 89.5843 70.2037C91.9961 72.6099 95.9049 72.6099 98.3167 70.2037L104.451 64.0842C106.862 61.678 106.862 57.7783 104.451 55.3721C102.039 52.9659 98.13 52.9659 95.7181 55.3721Z" fill="#FFCD34"/>
<path d="M149.732 106.554H61.2051C57.2043 106.554 53.9614 109.789 53.9614 113.78V165.753C53.9614 169.745 57.2043 172.98 61.2051 172.98H149.732C153.732 172.98 156.975 169.745 156.975 165.753V113.778C156.975 109.789 153.732 106.554 149.732 106.554Z" fill="#FFCD34"/>
<path d="M149.732 106.554H143.249C147.249 106.554 150.492 109.789 150.492 113.78V165.753C150.492 169.745 147.249 172.98 143.249 172.98H149.732C153.732 172.98 156.975 169.745 156.975 165.753V113.778C156.975 109.789 153.732 106.554 149.732 106.554Z" fill="#E69012"/>
<path d="M53.9614 122.879H156.975V135.363H53.9614V122.879Z" fill="#575B7A"/>
<path d="M150.492 122.879H156.975V135.363H150.492V122.879Z" fill="#252D4C"/>
<path d="M131.658 155.315V163.015C131.658 163.612 132.142 164.092 132.738 164.092H145.016C145.614 164.092 146.096 163.609 146.096 163.015V155.315C146.096 154.719 145.612 154.238 145.016 154.238H132.738C132.14 154.238 131.658 154.721 131.658 155.315Z" fill="#E9E9EA"/>
<path d="M94.6379 155.315V163.015C94.6379 163.612 95.1225 164.092 95.718 164.092H121.685C122.284 164.092 122.765 163.609 122.765 163.015V155.315C122.765 154.719 122.281 154.238 121.685 154.238H95.718C95.1225 154.238 94.6379 154.721 94.6379 155.315Z" fill="#E9E9EA"/>
<path d="M35.5762 112.381C33.5406 110.351 33.5406 107.048 35.5762 105.02L85.2288 55.4828C86.0192 54.6942 86.0192 53.4142 85.2288 52.6256C84.4384 51.8343 83.1553 51.837 82.3649 52.6256L32.7096 102.162C29.0958 105.768 29.0958 111.636 32.7096 115.241L45.2154 127.718C45.6106 128.112 46.1304 128.31 46.6474 128.31C47.1671 128.31 47.6841 128.112 48.0793 127.718C48.8697 126.93 48.8697 125.649 48.0793 124.861L35.5762 112.381Z" fill="black"/>
<path d="M75.4082 77.2577L44.7471 107.847C43.9567 108.636 43.9567 109.916 44.7471 110.707C45.1423 111.101 45.662 111.299 46.1791 111.299C46.6961 111.299 47.2158 111.101 47.611 110.707L78.2721 80.1176C79.0625 79.329 79.0625 78.0489 78.2721 77.2577C77.4816 76.4691 76.1986 76.4691 75.4082 77.2577Z" fill="black"/>
<path d="M93.9504 74.0251C96.051 74.0251 98.1515 73.2284 99.7486 71.6323L105.882 65.5128C109.079 62.3234 109.079 57.1329 105.882 53.9408C102.686 50.7487 97.4829 50.7514 94.2834 53.9408L88.1522 60.063C86.6039 61.6078 85.7512 63.6629 85.7512 65.8477C85.7512 68.0324 86.6039 70.0876 88.1522 71.6323C89.7493 73.2284 91.8499 74.0251 93.9504 74.0251ZM91.0161 62.9202L97.15 56.8007C98.7687 55.1858 101.4 55.1858 103.016 56.8007C104.635 58.4157 104.635 61.0406 103.016 62.6529L96.882 68.7724C95.266 70.3874 92.6322 70.3874 91.0161 68.7724C90.2338 67.9919 89.8007 66.9522 89.8007 65.8477C89.8007 64.7431 90.2338 63.7034 91.0161 62.9202Z" fill="black"/>
<path d="M149.732 104.531H130.228L145.257 89.5372C148.871 85.9319 148.871 80.0636 145.257 76.4583L108.419 39.7087C106.668 37.9614 104.34 37 101.863 37C99.386 37 97.0581 37.9614 95.3067 39.7087L88.0901 46.9112C87.2997 47.6997 87.2997 48.9798 88.0901 49.7684C88.8805 50.5569 90.1636 50.5569 90.954 49.7684L98.1733 42.5659C99.1586 41.5829 100.469 41.0401 101.863 41.0401C103.257 41.0401 104.567 41.5802 105.552 42.5659L142.388 79.3182C144.423 81.349 144.423 84.6492 142.388 86.68L124.495 104.531H73.2915L88.0197 89.837C88.8101 89.0484 88.8101 87.7683 88.0197 86.9798C87.2293 86.1912 85.9462 86.1912 85.1558 86.9798L67.5637 104.534H61.2106C56.1 104.534 51.9395 108.682 51.9395 113.78V165.753C51.9395 170.852 56.0973 175.003 61.2106 175.003H149.737C154.848 175.003 159.008 170.855 159.008 165.753V158.283C159.008 157.165 158.101 156.261 156.981 156.261C155.863 156.261 154.953 157.165 154.953 158.283V165.753C154.953 168.624 152.614 170.957 149.737 170.957H61.2052C58.3277 170.957 55.989 168.621 55.989 165.753V137.386H154.951V150.195C154.951 151.31 155.857 152.218 156.978 152.218C158.099 152.218 159.005 151.313 159.005 150.195V113.78C159 108.679 154.842 104.531 149.732 104.531ZM61.2052 108.574H149.732C152.609 108.574 154.948 110.91 154.948 113.778V120.856H55.989V113.778C55.989 110.91 58.3277 108.574 61.2052 108.574ZM55.989 133.343V124.901H154.951V133.343H55.989Z" fill="black"/>
<path d="M132.738 152.215C131.024 152.215 129.63 153.606 129.63 155.315V163.015C129.63 164.724 131.024 166.115 132.738 166.115H145.016C146.73 166.115 148.124 164.724 148.124 163.015V155.315C148.124 153.606 146.73 152.215 145.016 152.215H132.738ZM144.069 162.072H133.682V156.258H144.069V162.072Z" fill="black"/>
<path d="M95.7208 152.215C94.0073 152.215 92.6133 153.606 92.6133 155.315V163.015C92.6133 164.724 94.0073 166.115 95.7208 166.115H121.688C123.402 166.115 124.796 164.724 124.796 163.015V155.315C124.796 153.606 123.402 152.215 121.688 152.215H95.7208ZM120.743 162.072H96.6655V156.258H120.743V162.072Z" fill="black"/>
<path d="M71.1151 162.072C69.9972 162.072 69.0876 162.977 69.0876 164.095C69.0876 165.213 69.9945 166.118 71.1151 166.118H84.0541C85.172 166.118 86.0816 165.213 86.0816 164.095C86.0816 162.98 85.1748 162.072 84.0541 162.072H71.1151Z" fill="black"/>
</g>
</g>
<defs>
<linearGradient id="paint0_linear" x1="181.271" y1="191.889" x2="40.7538" y2="51.5596" gradientUnits="userSpaceOnUse">
<stop stop-color="#FF8500"/>
<stop offset="1" stop-color="#FFC200"/>
</linearGradient>
<clipPath id="clip0">
<rect width="200" height="221" fill="white"/>
</clipPath>
<clipPath id="clip1">
<rect x="30" y="37" width="129" height="138" fill="white"/>
</clipPath>
</defs>
</svg>
