<svg width="200" height="221" viewBox="0 0 200 221" fill="none" xmlns="http://www.w3.org/2000/svg">
<g clip-path="url(#clip0)">
<path d="M83.4875 4.41531L16.4928 43.1603C6.29797 49.0725 0 59.9905 0 71.7756V149.226C0 161.051 6.29797 171.969 16.4928 177.881L83.4481 216.586C93.6824 222.499 106.239 222.499 116.473 216.586L183.428 177.881C193.663 171.969 199.921 161.051 199.921 149.226V71.7756C199.921 59.9511 193.623 49.0331 183.428 43.1209L116.512 4.41531C106.278 -1.45753 93.7217 -1.45753 83.4875 4.41531Z" fill="url(#paint0_linear)"/>
</g>
<path d="M157.252 168.828C156.587 166.374 156.352 163.822 156.559 161.288L158.338 143.282C158.941 135.941 157.827 128.581 154.588 121.972C146.224 104.886 148.142 103.647 147.882 86.6911C147.882 83.2285 145.085 80.4181 141.633 80.4181C138.184 80.4181 135.385 83.2254 135.385 86.6911C135.385 155.642 135.511 150.583 135.088 152.605V161.632C135.088 169.241 128.923 175.43 121.344 175.43C116.311 175.43 98.9539 175.43 87.1465 175.43C92.399 182.765 99.5881 188.507 107.928 191.985C107.977 192.007 108.03 192.029 108.082 192.05C114.526 194.783 119.014 200.625 120.218 207.391C136.356 205.364 150.954 198.351 162.43 187.942L157.252 168.828Z" fill="#F9D6BF"/>
<path d="M63.9462 80.6385L62.0438 78.8684C59.1112 76.1387 54.4866 76.3157 51.7706 79.2628C49.0516 82.2068 49.231 86.8494 52.1635 89.576L63.9493 100.538V80.6385H63.9462Z" fill="#F9D6BF"/>
<path d="M56.0273 84.0918C54.2269 82.418 53.4722 80.0268 53.7784 77.7443C53.0422 78.12 52.3585 78.6231 51.7677 79.2628C49.0486 82.2068 49.228 86.8495 52.1606 89.5761L63.9463 100.538V91.4549L56.0273 84.0918Z" fill="#EFC1A8"/>
<path d="M121.644 49C116.905 49 82.0641 49 77.3653 49C69.7896 49 63.6245 55.1892 63.6245 62.7976V161.93C63.6245 169.539 69.7896 175.728 77.3653 175.728H121.644C129.223 175.728 135.388 169.539 135.388 161.93V62.7976C135.388 55.1892 129.223 49 121.644 49Z" fill="black"/>
<path d="M80.4834 161.93V62.7976C80.4834 55.1892 86.6485 49 94.2273 49C86.3052 49 79.2956 49 77.3684 49C69.7896 49 63.6245 55.1892 63.6245 62.7976V161.93C63.6245 169.539 69.7896 175.728 77.3653 175.728H94.2242C86.6485 175.725 80.4834 169.536 80.4834 161.93Z" fill="black"/>
<path d="M127.772 161.93C127.772 165.331 125.028 168.082 121.644 168.082C116.957 168.082 82.1044 168.082 77.3653 168.082C73.9811 168.082 71.2373 165.328 71.2373 161.93C71.2373 158.797 71.2373 65.9869 71.2373 62.7976C71.2373 59.4002 73.9811 56.6456 77.3653 56.6456H80.7402C82.0085 56.6456 83.0324 57.6766 83.0324 58.9468V60.4064C83.0324 62.3628 84.6286 63.9652 86.5805 63.9652H112.423C114.371 63.9652 115.968 62.3628 115.968 60.4064V58.9468C115.968 57.6766 116.995 56.6456 118.26 56.6456H121.638C125.022 56.6456 127.766 59.4002 127.766 62.7976V161.93H127.772Z" fill="#E2E9F2"/>
<path d="M80.4834 161.93V62.7976C80.4834 60.6921 80.9567 58.6952 81.8012 56.9065C81.4857 56.7388 81.1237 56.6456 80.7433 56.6456H77.3653C73.9811 56.6456 71.2373 59.4002 71.2373 62.7976V161.93C71.2373 165.331 73.9811 168.082 77.3653 168.082H81.928C81.0062 166.228 80.4834 164.141 80.4834 161.93Z" fill="#C7D6E5"/>
<path d="M107.297 58.8722H99.7059C98.4809 58.8722 97.4849 57.8754 97.4849 56.6425C97.4849 55.4096 98.4778 54.4159 99.7059 54.4159H107.297C108.522 54.4159 109.518 55.4127 109.518 56.6425C109.518 57.8723 108.522 58.8722 107.297 58.8722Z" fill="#5D5D84"/>
<path d="M91.9164 58.8722C90.6759 58.8722 89.6953 57.8505 89.6953 56.6456C89.6953 55.5401 90.5058 54.6457 91.4833 54.4625C91.7679 54.4035 92.0648 54.4035 92.3494 54.4625C93.3486 54.6488 94.1343 55.5618 94.1343 56.6456C94.1343 57.8598 93.1537 58.8722 91.9164 58.8722Z" fill="#5D5D84"/>
<path d="M74.5284 119.134C72.1372 121.724 68.1065 121.879 65.5266 119.479L54.8545 109.553C52.2746 107.153 52.1199 103.107 54.5111 100.513C56.9023 97.9204 60.933 97.7682 63.5128 100.169L74.185 110.094C76.7649 112.497 76.9195 116.544 74.5284 119.134Z" fill="#F9D6BF"/>
<path d="M69.9161 114.966L59.244 105.041C57.4591 103.383 56.8373 100.933 57.4127 98.7247C56.3362 99.0353 55.3278 99.6284 54.5111 100.513C52.1199 103.103 52.2746 107.153 54.8545 109.553L65.5266 119.479C68.1065 121.879 72.1372 121.724 74.5284 119.134C75.2677 118.336 75.7595 117.398 76.0163 116.41C73.9406 117.013 71.6144 116.547 69.9161 114.966Z" fill="#EFC1A8"/>
<path d="M156.58 165.11C144.776 184.569 121.854 193.606 100.324 187.985C102.725 189.535 105.267 190.876 107.931 191.985C107.983 192.007 108.036 192.029 108.086 192.05C114.532 194.783 120.797 206.736 122 213.5C136.5 205 148 198.5 163 189.5L157.252 168.828C156.924 167.607 156.698 166.365 156.58 165.11Z" fill="#EFC1A8"/>
<path d="M74.5284 154.024C72.1372 156.614 68.1065 156.769 65.5266 154.369L54.8545 144.443C52.2746 142.043 52.1199 137.997 54.5111 135.403C56.9023 132.814 60.933 132.658 63.5128 135.059L74.185 144.984C76.7649 147.387 76.9195 151.434 74.5284 154.024Z" fill="#F9D6BF"/>
<path d="M69.9161 149.856L59.244 139.931C57.4591 138.273 56.8373 135.823 57.4127 133.615C56.3362 133.925 55.3278 134.518 54.5111 135.403C52.1199 137.993 52.2746 142.043 54.8545 144.444L65.5266 154.369C68.1065 156.769 72.1372 156.614 74.5284 154.024C75.2677 153.226 75.7595 152.288 76.0163 151.3C73.9406 151.903 71.6144 151.437 69.9161 149.856Z" fill="#EFC1A8"/>
<path d="M74.5284 136.58C72.1372 139.17 68.1065 139.326 65.5266 136.925L54.8545 127C52.2746 124.6 52.1199 120.553 54.5111 117.963C56.9023 115.373 60.933 115.218 63.5128 117.618L74.185 127.544C76.7649 129.941 76.9195 133.987 74.5284 136.58Z" fill="#F9D6BF"/>
<path d="M69.9161 132.413L59.244 122.488C57.4591 120.826 56.8373 118.379 57.4127 116.171C56.3362 116.482 55.3278 117.078 54.5111 117.963C52.1199 120.553 52.2746 124.6 54.8545 127L65.5266 136.925C68.1065 139.326 72.1372 139.17 74.5284 136.58C75.2677 135.782 75.7595 134.844 76.0163 133.857C73.9406 134.459 71.6144 133.994 69.9161 132.413Z" fill="#EFC1A8"/>
<path d="M92.5969 159.643C91.2822 159.643 90.2769 158.559 90.2769 157.317C90.2769 156.031 91.3193 154.988 92.5969 154.988C93.8806 154.988 94.9169 156.031 94.9169 157.317C94.9169 158.602 93.8775 159.643 92.5969 159.643Z" fill="#C7D6E5"/>
<path d="M99.5075 159.642C98.2114 159.642 97.1875 158.586 97.1875 157.316C97.1875 156.226 97.9361 155.263 99.0528 155.03C100.448 154.747 101.828 155.813 101.828 157.316C101.828 158.542 100.838 159.642 99.5075 159.642Z" fill="#C7D6E5"/>
<path d="M106.415 159.642C105.131 159.642 104.095 158.592 104.095 157.316C104.095 155.862 105.416 154.741 106.87 155.03C108.005 155.272 108.735 156.244 108.735 157.316C108.735 158.595 107.696 159.642 106.415 159.642Z" fill="#C7D6E5"/>
<path d="M121.644 56.6426H118.269C117.004 56.6426 115.977 57.6736 115.977 58.9437V60.4033C115.977 62.3597 114.381 63.9653 112.429 63.9653C107.114 63.9653 91.9012 63.9653 86.5868 63.9653C84.638 63.9653 83.0418 62.3629 83.0418 60.4033V58.9437C83.0418 57.6736 82.0148 56.6426 80.7496 56.6426H77.3716C73.9875 56.6426 71.2437 59.3971 71.2437 62.7945V73.3189C79.5958 71.0737 92.5106 69.9185 106.87 77.0269C113.778 80.446 120.865 82.4925 127.778 82.7658C127.778 75.794 127.778 67.254 127.778 62.7945C127.772 59.3971 125.028 56.6426 121.644 56.6426Z" fill="#FAD964"/>
<path d="M104.015 75.7194C104.958 76.12 105.908 76.5579 106.864 77.0299C113.771 80.449 120.858 82.4955 127.772 82.7688C127.772 78.2162 127.772 72.9928 127.772 68.6731C120.858 68.9464 113.771 70.9929 106.864 74.412C105.908 74.884 104.958 75.3157 104.015 75.7194Z" fill="#FAB941"/>
<path d="M80.4834 62.7976C80.4834 60.6921 80.9567 58.6952 81.8012 56.9065C81.4702 56.7326 81.0897 56.6456 80.7433 56.6456H77.3653C73.9811 56.6456 71.2373 59.4002 71.2373 62.7976V73.322C73.8914 72.6077 77.0096 72.0053 80.4834 71.7444V62.7976Z" fill="#FAB941"/>
<path d="M119.018 103.153H79.9978C77.7273 103.153 75.8867 105.001 75.8867 107.28C75.8867 109.56 77.7273 111.404 79.9978 111.404H119.018C121.288 111.404 123.129 109.557 123.129 107.28C123.126 105.001 121.288 103.153 119.018 103.153Z" fill="#BC4C2E"/>
<path d="M89.6677 107.28C89.6677 105.001 91.5083 103.153 93.7788 103.153H79.9978C77.7273 103.153 75.8867 105.001 75.8867 107.28C75.8867 109.56 77.7273 111.404 79.9978 111.404H93.7788C91.5083 111.404 89.6677 109.557 89.6677 107.28Z" fill="#AB3829"/>
<path d="M118.891 117.668H80.1215C79.1687 117.668 78.3984 118.444 78.3984 119.401V122.295C78.3984 126.658 81.9218 130.199 86.268 130.199H112.747C117.094 130.199 120.617 126.662 120.617 122.295V119.401C120.617 118.444 119.844 117.668 118.891 117.668Z" fill="#E6AC6D"/>
<path d="M119.055 117.668H79.9606C79.0975 117.668 78.3984 116.966 78.3984 116.1V112.973C78.3984 112.106 79.0975 111.404 79.9606 111.404H119.055C119.918 111.404 120.617 112.109 120.617 112.973V116.1C120.617 116.966 119.918 117.668 119.055 117.668Z" fill="#F5585C"/>
<path d="M91.3257 116.1V112.973C91.3257 112.106 92.0248 111.404 92.8878 111.404H79.9606C79.0975 111.404 78.3984 112.109 78.3984 112.973V116.1C78.3984 116.966 79.0975 117.668 79.9606 117.668H92.8878C92.0248 117.668 91.3257 116.966 91.3257 116.1Z" fill="#D13044"/>
<path d="M78.3955 96.7559C78.3955 90.6692 83.3109 85.7377 89.3708 85.7377H109.639C115.702 85.7377 120.614 90.6692 120.614 96.7559C120.614 97.5912 119.94 98.2651 119.111 98.2651H79.8989C79.0699 98.2651 78.3955 97.5881 78.3955 96.7559Z" fill="#E6AC6D"/>
<path d="M91.2422 122.295V119.401C91.2422 118.444 92.0155 117.668 92.9683 117.668H80.1215C79.1687 117.668 78.3984 118.444 78.3984 119.401V122.295C78.3984 126.658 81.9218 130.199 86.268 130.199H99.1148C94.7655 130.199 91.2422 126.658 91.2422 122.295Z" fill="#CE8A4D"/>
<path d="M91.2423 96.7559C91.2423 90.6692 96.1577 85.7377 102.218 85.7377H89.3708C83.3109 85.7377 78.3955 90.6692 78.3955 96.7559C78.3955 97.5912 79.0699 98.2651 79.8989 98.2651H92.7457C91.9167 98.2651 91.2423 97.5881 91.2423 96.7559Z" fill="#CE8A4D"/>
<path d="M119.03 98.2651H79.9824C79.7627 98.7869 79.6235 99.3614 79.5895 99.9794C79.3575 104.315 84.2543 106.895 87.6632 104.364C88.0746 104.057 88.6438 104.057 89.0583 104.364C90.8432 105.69 93.2808 105.693 95.0688 104.364C95.4833 104.057 96.0494 104.057 96.4639 104.364C98.2147 105.665 100.733 105.715 102.555 104.364C102.966 104.057 103.535 104.057 103.947 104.364C105.732 105.69 108.169 105.693 109.957 104.364C110.369 104.057 110.938 104.057 111.349 104.364C114.758 106.892 119.658 104.315 119.423 99.9794C119.392 99.3614 119.253 98.7869 119.03 98.2651Z" fill="#AFBC31"/>
<path d="M91.8455 99.9794C91.8795 99.3645 92.0156 98.7869 92.2383 98.2651H79.9824C79.7627 98.7869 79.6235 99.3614 79.5895 99.9794C79.3575 104.315 84.2543 106.895 87.6632 104.364C88.0746 104.057 88.6438 104.057 89.0583 104.364C90.6607 105.554 92.7828 105.675 94.4934 104.731C92.8848 103.855 91.731 102.135 91.8455 99.9794Z" fill="#9FA519"/>
<path d="M83.0879 117.668L90.1655 124.773C91.3689 125.981 93.3363 125.981 94.5396 124.773L101.617 117.668H83.0879Z" fill="#FAD964"/>
<path d="M91.991 125.655C91.5115 124.634 91.2455 123.497 91.2455 122.295V119.401C91.2455 118.444 92.0188 117.668 92.9716 117.668H83.0913L90.1659 124.773C90.6763 125.286 91.3228 125.578 91.991 125.655Z" fill="#FAB941"/>
<path d="M105.076 145.593H93.9397C91.6321 145.593 89.7637 143.717 89.7637 141.4C89.7637 139.083 91.6321 137.208 93.9397 137.208H105.076C107.384 137.208 109.252 139.083 109.252 141.4C109.252 143.717 107.38 145.593 105.076 145.593Z" fill="#AFBC31"/>
<path d="M99.5078 141.4C99.5078 139.083 101.376 137.208 103.684 137.208H93.9397C91.6321 137.208 89.7637 139.083 89.7637 141.4C89.7637 143.717 91.6321 145.593 93.9397 145.593H103.684C101.376 145.593 99.5078 143.714 99.5078 141.4Z" fill="#9FA519"/>
<defs>
<linearGradient id="paint0_linear" x1="181.271" y1="191.889" x2="40.7538" y2="51.5596" gradientUnits="userSpaceOnUse">
<stop stop-color="#FF8500"/>
<stop offset="1" stop-color="#FFC200"/>
</linearGradient>
<clipPath id="clip0">
<rect width="200" height="221" fill="white"/>
</clipPath>
</defs>
</svg>
