<svg width="200" height="221" viewBox="0 0 200 221" fill="none" xmlns="http://www.w3.org/2000/svg">
<g clip-path="url(#clip0)">
<path d="M83.4875 4.41531L16.4928 43.1603C6.29797 49.0725 0 59.9905 0 71.7756V149.226C0 161.051 6.29797 171.969 16.4928 177.881L83.4481 216.586C93.6824 222.499 106.239 222.499 116.473 216.586L183.428 177.881C193.663 171.969 199.921 161.051 199.921 149.226V71.7756C199.921 59.9511 193.623 49.0331 183.428 43.1209L116.512 4.41531C106.278 -1.45753 93.7217 -1.45753 83.4875 4.41531Z" fill="url(#paint0_linear)"/>
</g>
<path d="M118.913 38.9485C114.271 40.735 109.1 40.735 104.459 38.9485C103.197 38.4623 101.766 38.7899 100.809 39.7418L24.7479 115.642C23.7905 116.598 23.4656 118.026 23.9529 119.284C25.7432 123.916 25.7432 129.075 23.9529 133.707C23.4656 134.966 23.7939 136.394 24.7479 137.349L58.2144 170.744C59.1718 171.699 60.6027 172.023 61.8642 171.537C66.5059 169.75 71.6764 169.75 76.3181 171.537C77.5797 172.023 79.0105 171.695 79.9679 170.744L156.026 94.836C156.983 93.8807 157.308 92.4529 156.82 91.1941C155.03 86.5624 155.03 81.403 156.82 76.7713C157.308 75.5125 156.979 74.0847 156.026 73.1294L122.562 39.7418C121.605 38.7864 120.174 38.4623 118.913 38.9485Z" fill="#FF2C2C"/>
<path d="M74.6588 160.352C70.978 159.67 67.1968 159.67 63.516 160.352C62.963 160.456 62.3962 160.27 61.9952 159.873L35.6346 133.569C35.2372 133.173 35.0505 132.604 35.1542 132.052C35.8386 128.379 35.8386 124.606 35.1542 120.933C35.0505 120.381 35.2372 119.816 35.6346 119.415L104.593 50.6054C104.991 50.2088 105.561 50.0226 106.114 50.1261C109.795 50.8089 113.576 50.8089 117.257 50.1261C117.81 50.0226 118.377 50.2088 118.778 50.6054L145.138 76.9093C145.536 77.3059 145.722 77.8715 145.619 78.4267C144.934 82.0997 144.934 85.8726 145.619 89.5456C145.722 90.0974 145.536 90.663 145.138 91.063L76.1796 159.873C75.7821 160.27 75.2153 160.452 74.6588 160.352Z" fill="white"/>
<path d="M104.593 50.6054L70.114 85.0105L110.659 125.468L145.138 91.0631C145.536 90.6665 145.722 90.1009 145.619 89.5456C144.934 85.8727 144.934 82.0997 145.619 78.4267C145.722 77.8749 145.536 77.3093 145.138 76.9093L118.778 50.6054C118.38 50.2088 117.81 50.0226 117.257 50.1261C113.576 50.8089 109.795 50.8089 106.114 50.1261C105.561 50.026 104.991 50.2088 104.593 50.6054Z" fill="#FF9D33"/>
<path d="M88.2751 164.172C87.8327 164.172 87.3903 164.003 87.0516 163.669C86.3777 162.996 86.3777 161.903 87.0516 161.231L154.807 93.6208C155.291 93.1379 155.45 92.4309 155.212 91.8205C153.259 86.7715 153.259 81.2086 155.212 76.1562C155.447 75.5457 155.291 74.8387 154.807 74.3559L129.65 49.2522C128.976 48.5797 128.976 47.4865 129.65 46.814C130.323 46.1414 131.419 46.1414 132.093 46.814L157.251 71.9176C158.699 73.3626 159.166 75.5147 158.436 77.3977C156.795 81.6466 156.795 86.3266 158.436 90.579C159.166 92.462 158.699 94.614 157.251 96.0591L89.4952 163.669C89.1599 164.003 88.7175 164.172 88.2751 164.172Z" fill="black"/>
<path d="M77.5185 173.48C76.9033 173.48 76.2846 173.369 75.6936 173.142C71.4355 171.5 66.742 171.504 62.4839 173.142C60.5968 173.869 58.4401 173.404 56.992 171.959L23.5254 138.564C22.0772 137.119 21.6106 134.967 22.3399 133.084C23.9816 128.835 23.9816 124.152 22.3399 119.903C21.6106 118.02 22.0772 115.868 23.5254 114.423L99.5899 38.5221C101.038 37.077 103.195 36.6115 105.082 37.3391C109.34 38.9773 114.03 38.9808 118.292 37.3391C120.179 36.6115 122.335 37.077 123.783 38.5221C124.457 39.1946 124.457 40.2879 123.783 40.9604C123.109 41.6329 122.014 41.6329 121.34 40.9604C120.856 40.4775 120.151 40.3189 119.536 40.5569C114.476 42.5054 108.901 42.5054 103.838 40.5569C103.222 40.3223 102.514 40.481 102.033 40.9604L25.9689 116.861C25.485 117.344 25.3261 118.051 25.5645 118.661C27.5173 123.71 27.5173 129.273 25.5645 134.326C25.3261 134.936 25.4885 135.643 25.9689 136.126L59.4355 169.52C59.9194 170.003 60.6279 170.162 61.2397 169.924C66.2996 167.975 71.8744 167.975 76.9344 169.924C77.5496 170.159 78.2546 170.003 78.7385 169.52C79.4125 168.848 80.5081 168.848 81.182 169.52C81.856 170.193 81.856 171.286 81.182 171.959C80.1901 172.952 78.8629 173.48 77.5185 173.48Z" fill="black"/>
<path d="M51.8087 130.716H46.4273C45.4734 130.716 44.6992 129.943 44.6992 128.991V123.622C44.6992 122.67 45.4734 121.897 46.4273 121.897H51.8087C52.7626 121.897 53.5368 122.67 53.5368 123.622V128.991C53.5368 129.943 52.7626 130.716 51.8087 130.716ZM48.1554 127.267H50.0806V125.346H48.1554V127.267Z" fill="black"/>
<path d="M71.9134 130.716H66.5321C65.5781 130.716 64.804 129.943 64.804 128.991V123.622C64.804 122.67 65.5781 121.897 66.5321 121.897H71.9134C72.8673 121.897 73.6415 122.67 73.6415 123.622V128.991C73.6415 129.943 72.8673 130.716 71.9134 130.716ZM68.2602 127.267H70.1853V125.346H68.2602V127.267Z" fill="black"/>
<path d="M59.1702 139.638C58.2163 139.638 57.4421 138.865 57.4421 137.913V114.703C57.4421 113.751 58.2163 112.979 59.1702 112.979C60.1242 112.979 60.8984 113.751 60.8984 114.703V137.91C60.8984 138.865 60.1242 139.638 59.1702 139.638Z" fill="black"/>
<path d="M64.9607 146.737L75.3535 136.366C76.0275 135.694 77.1231 135.694 77.7971 136.366C78.4711 137.039 78.4711 138.132 77.7971 138.808L67.4042 149.178C66.7303 149.851 65.6347 149.851 64.9607 149.178C64.2833 148.506 64.2833 147.413 64.9607 146.737Z" fill="#FF9D33"/>
<path d="M69.6891 151.455L94.7536 126.444C95.4276 125.772 96.5232 125.772 97.2006 126.444C97.8746 127.117 97.8746 128.21 97.2006 128.886L72.1361 153.896C71.4622 154.569 70.3666 154.569 69.6926 153.896C69.0186 153.224 69.0117 152.131 69.6891 151.455Z" fill="#FF9D33"/>
<path d="M111.921 103.513C122.858 103.513 131.725 94.6656 131.725 83.7516C131.725 72.8377 122.858 63.9901 111.921 63.9901C100.983 63.9901 92.1165 72.8377 92.1165 83.7516C92.1165 94.6656 100.983 103.513 111.921 103.513Z" fill="white"/>
<path d="M97.7229 84.9326C98.3755 80.9203 95.6449 77.1399 91.624 76.4888C87.6032 75.8376 83.8146 78.5623 83.162 82.5745C82.5095 86.5867 85.24 90.3671 89.2609 91.0183C93.2818 91.6694 97.0703 88.9448 97.7229 84.9326Z" fill="#FF4D4D"/>
<path d="M113.32 93.9255C112.878 93.9255 112.436 93.7565 112.097 93.422C111.423 92.7495 111.423 91.6562 112.097 90.9837L117.226 85.8657C117.558 85.5347 117.741 85.0932 117.741 84.6242C117.741 84.1551 117.558 83.7137 117.226 83.3826C116.538 82.6963 115.422 82.6963 114.734 83.3826L111.547 86.5624C109.512 88.5903 106.204 88.5937 104.168 86.5624C102.133 84.5311 102.133 81.2306 104.168 79.1992L109.297 74.0813C109.971 73.4087 111.067 73.4087 111.741 74.0813C112.415 74.7538 112.415 75.847 111.741 76.5195L106.612 81.6375C105.924 82.3238 105.924 83.4378 106.612 84.1241C107.3 84.8104 108.416 84.8104 109.104 84.1241L112.291 80.9443C114.326 78.913 117.634 78.913 119.67 80.9443C120.655 81.9272 121.197 83.2343 121.197 84.6242C121.197 86.014 120.655 87.3211 119.67 88.304L114.544 93.422C114.205 93.76 113.763 93.9255 113.32 93.9255Z" fill="#FF7300"/>
<path d="M118.691 92.2356C118.249 92.2356 117.806 92.0667 117.468 91.7321L103.923 78.2164C103.249 77.5438 103.249 76.4506 103.923 75.7781C104.597 75.1056 105.692 75.1056 106.366 75.7781L119.911 89.2938C120.585 89.9663 120.585 91.0596 119.911 91.7321C119.576 92.0667 119.134 92.2356 118.691 92.2356Z" fill="#FF7300"/>
<path d="M70.1901 97.7537C71.2571 97.7537 72.1221 96.8906 72.1221 95.8258C72.1221 94.7611 71.2571 93.8979 70.1901 93.8979C69.1231 93.8979 68.2581 94.7611 68.2581 95.8258C68.2581 96.8906 69.1231 97.7537 70.1901 97.7537Z" fill="#FF4D4D"/>
<path d="M74.3239 101.878C75.3909 101.878 76.2559 101.015 76.2559 99.9506C76.2559 98.8858 75.3909 98.0227 74.3239 98.0227C73.2568 98.0227 72.3918 98.8858 72.3918 99.9506C72.3918 101.015 73.2568 101.878 74.3239 101.878Z" fill="#FF4D4D"/>
<path d="M78.4608 106.003C79.5279 106.003 80.3929 105.14 80.3929 104.075C80.3929 103.011 79.5279 102.147 78.4608 102.147C77.3938 102.147 76.5288 103.011 76.5288 104.075C76.5288 105.14 77.3938 106.003 78.4608 106.003Z" fill="#FF4D4D"/>
<path d="M29.9424 170.03C29.5 170.03 29.0576 169.861 28.7189 169.526C28.0449 168.854 28.0449 167.76 28.7189 167.088L32.1785 163.636C32.8525 162.963 33.9481 162.963 34.6221 163.636C35.296 164.308 35.296 165.401 34.6221 166.074L31.1624 169.526C30.8271 169.861 30.3847 170.03 29.9424 170.03Z" fill="#FF9D33"/>
<path d="M115.235 159.576C114.793 159.576 114.35 159.407 114.012 159.073C113.338 158.4 113.338 157.307 114.012 156.635L117.471 153.182C118.145 152.51 119.241 152.51 119.915 153.182C120.589 153.855 120.589 154.948 119.915 155.621L116.455 159.073C116.12 159.407 115.677 159.576 115.235 159.576Z" fill="#FF9D33"/>
<defs>
<linearGradient id="paint0_linear" x1="181.271" y1="191.889" x2="40.7538" y2="51.5596" gradientUnits="userSpaceOnUse">
<stop stop-color="#FF8500"/>
<stop offset="1" stop-color="#FFC200"/>
</linearGradient>
<clipPath id="clip0">
<rect width="200" height="221" fill="white"/>
</clipPath>
</defs>
</svg>
