<svg width="200" height="221" viewBox="0 0 200 221" fill="none" xmlns="http://www.w3.org/2000/svg">
<g clip-path="url(#clip0)">
<path d="M83.4875 4.41531L16.4928 43.1603C6.29797 49.0725 0 59.9905 0 71.7756V149.226C0 161.051 6.29797 171.969 16.4928 177.881L83.4481 216.586C93.6824 222.499 106.239 222.499 116.473 216.586L183.428 177.881C193.663 171.969 199.921 161.051 199.921 149.226V71.7756C199.921 59.9511 193.623 49.0331 183.428 43.1209L116.512 4.41531C106.278 -1.45753 93.7217 -1.45753 83.4875 4.41531Z" fill="url(#paint0_linear)"/>
</g>
<g clip-path="url(#clip1)">
<path d="M157.918 165.537H43.0817C36.9631 165.537 32 160.592 32 154.492V59.2129C32 53.1133 36.9631 48.1709 43.0817 48.1709H157.918C164.04 48.1709 169 53.1162 169 59.2129V154.492C169 160.592 164.04 165.537 157.918 165.537Z" fill="black"/>
<path d="M155.357 162.918H45.6425C39.7943 162.918 35.0547 158.195 35.0547 152.368V61.3398C35.0547 55.5127 39.7943 50.79 45.6425 50.79H155.357C161.205 50.79 165.945 55.5127 165.945 61.3398V152.368C165.945 158.195 161.205 162.918 155.357 162.918Z" fill="url(#paint1_linear)"/>
<path d="M161.576 78.9912L133.952 31.3193C132.112 28.1435 128.037 27.0566 124.849 28.8906L37.7627 78.9912H161.576Z" fill="url(#paint2_linear)"/>
<path d="M32 117.358H169V81.2031C169 76.6387 165.286 72.9414 160.709 72.9414H40.2914C35.7106 72.9414 32 76.6416 32 81.2031V117.358Z" fill="url(#paint3_linear)"/>
<path d="M32 103.759V154.492C32 160.592 36.9631 165.534 43.0817 165.534H157.918C164.04 165.534 169 160.589 169 154.492V103.759C169 99.9912 165.936 96.9385 162.155 96.9385H38.8449C35.0637 96.9385 32 99.9941 32 103.759Z" fill="url(#paint4_linear)"/>
<path d="M148.33 77.5938V165.537H157.918C164.04 165.537 169 160.592 169 154.495V98.1865L148.33 77.5938Z" fill="url(#paint5_linear)"/>
<path d="M138.986 177.918L42.8171 166.788C36.6514 166.073 32 160.87 32 154.686V58.3896C32 60.458 33.5554 62.2012 35.6194 62.4385L141.809 74.7285C147.974 75.4434 152.626 80.6465 152.626 86.8281V165.815C152.623 173.102 146.248 178.759 138.986 177.918Z" fill="#FF2C2C"/>
<path d="M138.986 158.682L42.8171 147.552C36.6514 146.84 32 141.637 32 135.452V154.686C32 160.87 36.6514 166.073 42.8142 166.785L138.986 177.915C146.248 178.756 152.623 173.099 152.623 165.815V146.582C152.623 153.865 146.248 159.522 138.986 158.682Z" fill="url(#paint6_linear)"/>
<path d="M40.6238 73.4014C40.5444 73.4014 40.4621 73.3955 40.3798 73.3867L35.9783 72.9033C34.764 72.7685 33.8848 71.6816 34.0201 70.4687C34.1553 69.2558 35.2491 68.3857 36.4634 68.5176L40.8649 69.001C42.0792 69.1357 42.9584 70.2226 42.8231 71.4355C42.6967 72.5635 41.7352 73.4014 40.6238 73.4014Z" fill="black"/>
<path d="M131.053 170.649C130.959 170.649 130.865 170.644 130.771 170.632L122.218 169.548C121.007 169.396 120.148 168.291 120.301 167.081C120.454 165.874 121.562 165.021 122.777 165.171L131.33 166.255C132.541 166.407 133.403 167.512 133.247 168.722C133.106 169.835 132.15 170.649 131.053 170.649ZM139.471 169.557C138.642 169.557 137.845 169.088 137.466 168.291C136.946 167.189 137.419 165.874 138.525 165.355C140.771 164.301 142.459 162.552 143.158 160.557C143.561 159.408 144.825 158.802 145.978 159.2C147.131 159.602 147.742 160.861 147.339 162.01C146.234 165.162 143.776 167.767 140.412 169.346C140.109 169.489 139.789 169.557 139.471 169.557ZM113.947 168.481C113.853 168.481 113.759 168.476 113.665 168.464L105.112 167.38C103.9 167.228 103.039 166.123 103.195 164.913C103.348 163.706 104.456 162.854 105.67 163.003L114.224 164.087C115.435 164.239 116.296 165.344 116.141 166.554C115.997 167.667 115.044 168.481 113.947 168.481ZM96.8409 166.313C96.7468 166.313 96.6527 166.308 96.5587 166.296L88.0055 165.212C86.7941 165.06 85.9356 163.955 86.0885 162.745C86.2414 161.538 87.3498 160.683 88.5642 160.835L97.1173 161.919C98.3287 162.071 99.1872 163.176 99.0343 164.386C98.8903 165.499 97.9376 166.313 96.8409 166.313ZM79.7347 164.146C79.6406 164.146 79.5465 164.14 79.4524 164.128L70.8993 163.044C69.6879 162.892 68.8293 161.787 68.9822 160.577C69.1351 159.37 70.2465 158.518 71.4579 158.667L80.011 159.751C81.2224 159.903 82.081 161.008 81.9281 162.218C81.784 163.334 80.8314 164.146 79.7347 164.146ZM62.6255 161.98C62.5314 161.98 62.4373 161.975 62.3432 161.963L53.7901 160.879C52.5787 160.727 51.7201 159.622 51.873 158.412C52.0259 157.205 53.1373 156.353 54.3487 156.502L62.9018 157.586C64.1132 157.738 64.9718 158.843 64.8189 160.053C64.6777 161.166 63.7251 161.98 62.6255 161.98ZM145.749 154.955C144.526 154.955 143.535 153.968 143.535 152.749V144.156C143.535 142.938 144.526 141.95 145.749 141.95C146.972 141.95 147.963 142.938 147.963 144.156V152.749C147.963 153.968 146.972 154.955 145.749 154.955ZM145.749 137.772C144.526 137.772 143.535 136.785 143.535 135.566V126.974C143.535 125.755 144.526 124.768 145.749 124.768C146.972 124.768 147.963 125.755 147.963 126.974V135.566C147.963 136.785 146.972 137.772 145.749 137.772ZM145.749 120.59C144.526 120.59 143.535 119.603 143.535 118.384V109.791C143.535 108.572 144.526 107.585 145.749 107.585C146.972 107.585 147.963 108.572 147.963 109.791V118.384C147.963 119.603 146.972 120.59 145.749 120.59ZM145.749 103.407C144.526 103.407 143.535 102.42 143.535 101.201V92.6113C143.535 91.3926 144.526 90.4053 145.749 90.4053C146.972 90.4053 147.963 91.3926 147.963 92.6113V101.201C147.963 102.42 146.972 103.407 145.749 103.407ZM142.653 87.1065C142.106 87.1065 141.559 86.9072 141.13 86.5029C139.489 84.9531 137.21 83.9658 134.717 83.7227L134.658 83.7168C133.441 83.585 132.562 82.4981 132.694 81.2881C132.826 80.0781 133.917 79.1992 135.132 79.3311L135.17 79.334C138.619 79.6709 141.823 81.0801 144.176 83.3008C145.064 84.1387 145.102 85.5361 144.261 86.4209C143.826 86.875 143.241 87.1065 142.653 87.1065ZM126.328 82.7881C126.249 82.7881 126.167 82.7822 126.084 82.7735L117.514 81.833C116.299 81.6983 115.42 80.6113 115.555 79.3985C115.688 78.1885 116.784 77.3154 117.999 77.4473L126.57 78.3877C127.784 78.5225 128.663 79.6094 128.528 80.8223C128.401 81.9531 127.443 82.7881 126.328 82.7881ZM109.187 80.9102C109.108 80.9102 109.025 80.9043 108.943 80.8955L100.372 79.9551C99.1578 79.8203 98.2787 78.7334 98.4139 77.5205C98.5462 76.3106 99.643 75.4375 100.857 75.5693L109.428 76.5098C110.642 76.6445 111.521 77.7315 111.386 78.9444C111.26 80.0752 110.301 80.9102 109.187 80.9102ZM92.0454 79.0322C91.966 79.0322 91.8837 79.0264 91.8014 79.0176L83.2306 78.0772C82.0163 77.9424 81.1371 76.8555 81.2724 75.6426C81.4047 74.4326 82.4985 73.5596 83.7157 73.6914L92.2865 74.6318C93.5008 74.7666 94.3799 75.8535 94.2447 77.0664C94.1183 78.1973 93.1597 79.0322 92.0454 79.0322ZM74.9039 77.1543C74.8245 77.1543 74.7421 77.1485 74.6598 77.1397L66.0891 76.1992C64.8747 76.0645 63.9956 74.9776 64.1309 73.7647C64.2632 72.5547 65.3569 71.6817 66.5742 71.8135L75.145 72.7539C76.3593 72.8887 77.2384 73.9756 77.1031 75.1885C76.9797 76.3194 76.0182 77.1543 74.9039 77.1543ZM57.7623 75.2764C57.6829 75.2764 57.6006 75.2705 57.5183 75.2617L48.9475 74.3213C47.7332 74.1865 46.8541 73.0996 46.9893 71.8867C47.1246 70.6768 48.2154 69.8037 49.4327 69.9356L58.0034 70.876C59.2177 71.0108 60.0969 72.0977 59.9616 73.3106C59.8381 74.4414 58.8767 75.2764 57.7623 75.2764Z" fill="black"/>
<path d="M45.4984 159.81C45.4043 159.81 45.3102 159.804 45.2161 159.792L40.8234 159.235C39.6121 159.083 38.7506 157.978 38.9064 156.769C39.0593 155.562 40.1678 154.706 41.3821 154.858L45.7748 155.415C46.9861 155.567 47.8476 156.672 47.6918 157.882C47.5507 158.995 46.598 159.81 45.4984 159.81Z" fill="black"/>
<path d="M126.834 44.4267L112.665 52.1084C110.819 53.1103 108.511 52.4306 107.505 50.5908C106.499 48.751 107.182 46.4512 109.028 45.4492L123.197 37.7676C125.044 36.7685 127.352 37.4453 128.357 39.2851C129.363 41.122 128.681 43.4248 126.834 44.4267Z" fill="#61DB99"/>
<path d="M152.623 134.588L138.563 120.578C136.578 118.425 133.732 117.077 130.568 117.077C124.573 117.077 119.716 121.92 119.716 127.891C119.716 131.043 121.071 133.879 123.229 135.856L152.623 165.145V134.588Z" fill="url(#paint7_linear)"/>
<path d="M130.568 138.701C136.562 138.701 141.421 133.86 141.421 127.888C141.421 121.916 136.562 117.074 130.568 117.074C124.575 117.074 119.716 121.916 119.716 127.888C119.716 133.86 124.575 138.701 130.568 138.701Z" fill="url(#paint8_linear)"/>
<path d="M130.568 135.35C134.704 135.35 138.057 132.009 138.057 127.888C138.057 123.767 134.704 120.426 130.568 120.426C126.432 120.426 123.079 123.767 123.079 127.888C123.079 132.009 126.432 135.35 130.568 135.35Z" fill="url(#paint9_linear)"/>
<path d="M127.722 126.596C128.578 126.596 129.272 125.904 129.272 125.052C129.272 124.199 128.578 123.508 127.722 123.508C126.866 123.508 126.173 124.199 126.173 125.052C126.173 125.904 126.866 126.596 127.722 126.596Z" fill="url(#paint10_linear)"/>
<path d="M133.411 126.596C134.267 126.596 134.961 125.904 134.961 125.052C134.961 124.199 134.267 123.508 133.411 123.508C132.556 123.508 131.862 124.199 131.862 125.052C131.862 125.904 132.556 126.596 133.411 126.596Z" fill="url(#paint11_linear)"/>
<path d="M127.722 132.271C128.578 132.271 129.272 131.579 129.272 130.727C129.272 129.874 128.578 129.183 127.722 129.183C126.866 129.183 126.173 129.874 126.173 130.727C126.173 131.579 126.866 132.271 127.722 132.271Z" fill="url(#paint12_linear)"/>
<path d="M133.411 132.271C134.267 132.271 134.961 131.579 134.961 130.727C134.961 129.874 134.267 129.183 133.411 129.183C132.556 129.183 131.862 129.874 131.862 130.727C131.862 131.579 132.556 132.271 133.411 132.271Z" fill="url(#paint13_linear)"/>
</g>
<defs>
<linearGradient id="paint0_linear" x1="181.271" y1="191.889" x2="40.7538" y2="51.5596" gradientUnits="userSpaceOnUse">
<stop stop-color="#FF8500"/>
<stop offset="1" stop-color="#FFC200"/>
</linearGradient>
<linearGradient id="paint1_linear" x1="106.575" y1="56.9235" x2="104.412" y2="74.8279" gradientUnits="userSpaceOnUse">
<stop stop-color="#FFB92D"/>
<stop offset="1" stop-color="#F59500"/>
</linearGradient>
<linearGradient id="paint2_linear" x1="99.6681" y1="57.4526" x2="99.6681" y2="71.0906" gradientUnits="userSpaceOnUse">
<stop stop-color="#A7F3CE"/>
<stop offset="1" stop-color="#61DB99"/>
</linearGradient>
<linearGradient id="paint3_linear" x1="100.5" y1="81.061" x2="100.5" y2="119.331" gradientUnits="userSpaceOnUse">
<stop stop-color="#FF4C54"/>
<stop offset="1" stop-color="#BE3F45"/>
</linearGradient>
<linearGradient id="paint4_linear" x1="100.5" y1="109.478" x2="100.5" y2="168.583" gradientUnits="userSpaceOnUse">
<stop stop-color="#FF4C54"/>
<stop offset="1" stop-color="#BE3F45"/>
</linearGradient>
<linearGradient id="paint5_linear" x1="161.206" y1="121.565" x2="151.212" y2="121.565" gradientUnits="userSpaceOnUse">
<stop stop-color="#BE3F45" stop-opacity="0"/>
<stop offset="1" stop-color="#BE3F45"/>
</linearGradient>
<linearGradient id="paint6_linear" x1="90.6918" y1="163.374" x2="88.605" y2="179.382" gradientUnits="userSpaceOnUse">
<stop stop-color="#BE3F45" stop-opacity="0"/>
<stop offset="1" stop-color="#BE3F45"/>
</linearGradient>
<linearGradient id="paint7_linear" x1="145.053" y1="142.323" x2="114.748" y2="111.909" gradientUnits="userSpaceOnUse">
<stop stop-color="#BE3F45" stop-opacity="0"/>
<stop offset="1" stop-color="#BE3F45"/>
</linearGradient>
<linearGradient id="paint8_linear" x1="130.567" y1="121.101" x2="130.567" y2="136.739" gradientUnits="userSpaceOnUse">
<stop stop-color="#FF4C54"/>
<stop offset="1" stop-color="#BE3F45"/>
</linearGradient>
<linearGradient id="paint9_linear" x1="130.567" y1="132.575" x2="130.567" y2="121.784" gradientUnits="userSpaceOnUse">
<stop stop-color="#FF4C54"/>
<stop offset="1" stop-color="#BE3F45"/>
</linearGradient>
<linearGradient id="paint10_linear" x1="113.032" y1="60.4167" x2="116.111" y2="74.0594" gradientUnits="userSpaceOnUse">
<stop stop-color="#A7F3CE"/>
<stop offset="1" stop-color="#61DB99"/>
</linearGradient>
<linearGradient id="paint11_linear" x1="118.723" y1="60.4173" x2="121.802" y2="74.06" gradientUnits="userSpaceOnUse">
<stop stop-color="#A7F3CE"/>
<stop offset="1" stop-color="#61DB99"/>
</linearGradient>
<linearGradient id="paint12_linear" x1="111.806" y1="60.6934" x2="114.884" y2="74.3361" gradientUnits="userSpaceOnUse">
<stop stop-color="#A7F3CE"/>
<stop offset="1" stop-color="#61DB99"/>
</linearGradient>
<linearGradient id="paint13_linear" x1="117.497" y1="60.694" x2="120.575" y2="74.3367" gradientUnits="userSpaceOnUse">
<stop stop-color="#A7F3CE"/>
<stop offset="1" stop-color="#61DB99"/>
</linearGradient>
<clipPath id="clip0">
<rect width="200" height="221" fill="white"/>
</clipPath>
<clipPath id="clip1">
<rect x="32" y="28" width="137" height="150" fill="white"/>
</clipPath>
</defs>
</svg>
