<svg width="200" height="222" viewBox="0 0 200 222" fill="none" xmlns="http://www.w3.org/2000/svg">
<path d="M83.4875 4.40463L16.4928 43.1496C6.29797 49.0618 0 59.9798 0 71.7649V149.215C0 161.04 6.29797 171.958 16.4928 177.87L83.4481 216.576C93.6824 222.488 106.239 222.488 116.473 216.576L183.428 177.87C193.663 171.958 199.921 161.04 199.921 149.215V71.7649C199.921 59.9404 193.623 49.0224 183.428 43.1102L116.512 4.40463C106.278 -1.46821 93.7217 -1.46821 83.4875 4.40463Z" fill="url(#paint0_linear)"/>
<path d="M47.8626 66.5331L47.8703 66.5331C51.6419 66.5215 54.697 63.4665 54.7086 59.6948V59.6871V55.349C54.7119 54.3312 55.5362 53.5048 56.5568 53.5H82.6162C83.6361 53.5048 84.4621 54.3309 84.4669 55.3508L84.4669 59.692L84.4669 59.6997C84.4785 63.4714 87.5335 66.5264 91.3052 66.538H91.3129H141.273C142.292 66.5428 143.118 67.3685 143.123 68.388V80.139L39.5 154.741V68.3838C39.5048 67.3639 40.3309 66.5379 41.3508 66.5331L47.8626 66.5331Z" fill="#F29C1F" stroke="black" stroke-width="5"/>
<path d="M55.0904 85.3775L55.0905 85.3775C55.2702 84.5239 56.0238 83.9123 56.8966 83.9123H158.654C159.21 83.9123 159.737 84.1635 160.086 84.5941C160.433 85.0218 160.572 85.5832 160.462 86.1263L143.618 161.464H65.2416H41.3459C40.7896 161.464 40.2629 161.213 39.9135 160.783C39.564 160.352 39.4261 159.785 39.5402 159.238C39.5403 159.238 39.5404 159.237 39.5404 159.237L55.0904 85.3775Z" fill="#FF2C2C" stroke="black" stroke-width="5"/>
<path d="M58.137 103.137C57.9869 103.137 57.8343 103.123 57.6867 103.091C57.1231 102.973 56.6285 102.635 56.3135 102.151C55.9985 101.668 55.8877 101.08 56.0083 100.517L57.571 93.1042C58.2158 90.0969 60.8638 87.9461 63.9375 87.9288H78.2749C79.4758 87.9288 80.4479 88.9009 80.4479 90.1018C80.4479 91.3028 79.4758 92.2748 78.2749 92.2748H63.9375C62.9113 92.2748 62.0253 92.9959 61.8137 94L60.2534 101.412C60.0418 102.414 59.1608 103.132 58.137 103.137Z" fill="#F3D55B"/>
<path d="M91.3105 92.2748H86.9645C85.7636 92.2748 84.7915 91.3028 84.7915 90.1018C84.7915 88.9009 85.7636 87.9288 86.9645 87.9288H91.3105C92.5115 87.9288 93.4835 88.9009 93.4835 90.1018C93.4835 91.3028 92.509 92.2748 91.3105 92.2748Z" fill="#F3D55B"/>
<path d="M108.689 163.964C104.343 142.239 84.7938 142.239 84.7938 142.239H63.0686C57.0689 142.239 52.2061 137.376 52.2061 131.377C52.2061 125.377 57.0689 120.514 63.0686 120.514H84.7938C84.7938 120.514 104.346 120.514 108.689 98.7889V163.964Z" fill="#2980BA"/>
<path d="M84.7938 131.379H78.2773C77.0763 131.379 76.1042 130.407 76.1042 129.206C76.1042 128.005 77.0763 127.033 78.2773 127.033H84.7938C89.7575 126.888 94.613 125.557 98.9565 123.15C100.01 122.571 101.329 122.958 101.907 124.011C102.486 125.064 102.099 126.383 101.046 126.962C96.0723 129.743 90.4909 131.261 84.7938 131.379Z" fill="#3B97D3"/>
<path d="M114.121 92.2748C117.121 92.2748 119.552 94.7062 119.552 97.7061V165.052C119.552 168.052 117.121 170.483 114.121 170.483C111.121 170.483 108.689 168.052 108.689 165.052V97.7061C108.689 94.7062 111.121 92.2748 114.121 92.2748Z" fill="#3B97D3"/>
<path d="M65.2417 142.242H78.2773V170.483C78.2773 174.084 75.3586 177 71.7607 177C68.1628 177 65.2442 174.081 65.2442 170.483V142.242H65.2417Z" fill="#285680"/>
<path d="M126.946 115.596C126.084 115.596 125.329 115.023 125.099 114.194C124.869 113.365 125.22 112.484 125.958 112.039L135.539 106.291C136.127 105.924 136.865 105.903 137.475 106.235C138.085 106.567 138.465 107.201 138.471 107.895C138.48 108.588 138.113 109.23 137.512 109.577L127.931 115.325C127.634 115.501 127.293 115.596 126.946 115.596Z" fill="white"/>
<path d="M128.861 123.26C127.876 123.26 127.051 122.516 126.954 121.537C126.854 120.558 127.514 119.662 128.479 119.466L138.06 117.55C139.078 117.382 140.048 118.051 140.25 119.065C140.452 120.078 139.816 121.068 138.811 121.305L129.23 123.221C129.107 123.247 128.985 123.26 128.861 123.26Z" fill="white"/>
<path d="M136.526 152C136.178 152 135.837 151.905 135.54 151.727L125.959 145.979C125.358 145.634 124.994 144.989 125 144.297C125.009 143.604 125.389 142.971 125.996 142.636C126.604 142.304 127.344 142.326 127.932 142.693L137.513 148.44C138.251 148.883 138.603 149.767 138.373 150.596C138.143 151.425 137.385 152 136.526 152Z" fill="white"/>
<path d="M138.44 140.505C138.312 140.505 138.184 140.492 138.056 140.466L128.475 138.549C127.785 138.436 127.21 137.955 126.977 137.293C126.745 136.633 126.893 135.897 127.362 135.376C127.83 134.855 128.544 134.632 129.226 134.792L138.807 136.709C139.768 136.904 140.428 137.794 140.333 138.771C140.239 139.75 139.423 140.498 138.44 140.505Z" fill="white"/>
<path d="M140.356 130.924H130.776C129.716 130.924 128.859 130.067 128.859 129.008C128.859 127.949 129.716 127.091 130.776 127.091H140.356C141.416 127.091 142.273 127.949 142.273 129.008C142.273 130.067 141.416 130.924 140.356 130.924Z" fill="white"/>
<path d="M78.2748 66.2061H60.8957C59.6947 66.2061 58.7227 65.2341 58.7227 64.0331C58.7227 62.8322 59.6947 61.8601 60.8957 61.8601H78.2748C79.4757 61.8601 80.4478 62.8322 80.4478 64.0331C80.4478 65.2341 79.4757 66.2061 78.2748 66.2061Z" fill="#E57E25"/>
<path d="M69.5852 120.517V142.242H63.0686C57.0689 142.242 52.2061 137.379 52.2061 131.379C52.2061 125.379 57.0689 120.517 63.0686 120.517H69.5852Z" fill="#3B97D3"/>
<path d="M78.2748 155.275V170.481C78.2748 174.081 75.3562 176.998 71.7583 176.998C68.1604 176.998 65.2417 174.079 65.2417 170.481V155.275H78.2748Z" fill="#2980BA"/>
<defs>
<linearGradient id="paint0_linear" x1="181.271" y1="191.878" x2="40.7538" y2="51.5489" gradientUnits="userSpaceOnUse">
<stop stop-color="#FF8500"/>
<stop offset="1" stop-color="#FFC200"/>
</linearGradient>
</defs>
</svg>
