<svg width="541" height="104" viewBox="0 0 541 104" fill="none" xmlns="http://www.w3.org/2000/svg">
<path d="M538.389 47.2281L493.382 1.94174C492.137 0.689004 490.519 0.0626367 488.885 0.0313183V0H51.7227V103.742H488.885V103.726C490.519 103.695 492.137 103.069 493.382 101.816L538.373 56.5296C540.925 53.9615 540.925 49.7962 538.389 47.2281Z" fill="url(#paint0_linear)"/>
<path d="M56.514 101.815C53.9459 104.383 49.7962 104.383 47.2281 101.815L1.92608 56.5133C-0.642026 53.9452 -0.642026 49.7955 1.92608 47.2274L47.2124 1.94109C49.7805 -0.627012 53.9302 -0.627012 56.4983 1.94109L101.785 47.2274C104.353 49.7955 104.353 53.9452 101.785 56.5133L56.514 101.815Z" fill="url(#paint1_linear)"/>
<path d="M168.176 61V46.6445H173.227V44.0898H160.102V46.6445H165.164V61H168.176ZM174.363 43.2344C174.387 45.3555 175.805 46.9609 178.324 46.9609C180.844 46.9609 182.273 45.3555 182.297 43.2344H180.363C180.352 44.5234 179.613 45.3789 178.324 45.3789C177.047 45.3789 176.309 44.5234 176.285 43.2344H174.363ZM176.789 61.1992C178.383 61.1992 179.941 60.3672 180.656 59.0195H180.715V61H183.527V52.4453C183.527 49.9492 181.523 48.3203 178.441 48.3203C175.277 48.3203 173.297 49.9844 173.168 52.3047H175.875C176.062 51.2734 176.941 50.6055 178.324 50.6055C179.766 50.6055 180.645 51.3555 180.645 52.6562V53.5469L177.363 53.7344C174.34 53.9219 172.641 55.2461 172.641 57.4492C172.641 59.6875 174.387 61.1992 176.789 61.1992ZM177.668 58.9961C176.402 58.9961 175.559 58.3516 175.559 57.332C175.559 56.3477 176.367 55.7148 177.773 55.6211L180.645 55.4453V56.3945C180.645 57.8945 179.32 58.9961 177.668 58.9961ZM185.883 61H188.801V53.8047C188.801 52.0234 189.867 50.8164 191.543 50.8164C193.207 50.8164 194.027 51.8008 194.027 53.5586V61H196.945V52.9727C196.945 50.1016 195.387 48.3438 192.645 48.3438C190.734 48.3438 189.41 49.2344 188.742 50.7109H188.684V48.5781H185.883V61ZM204.762 65.6875C208.383 65.6875 210.762 63.7656 210.762 60.8008V48.5781H207.902V50.7109H207.855C207.141 49.2812 205.711 48.3672 203.941 48.3672C200.766 48.3672 198.773 50.8164 198.773 54.7422C198.773 58.6094 200.812 61.0117 203.883 61.0117C205.664 61.0117 207.129 60.1211 207.773 58.7852H207.844V60.8828C207.844 62.4648 206.754 63.5312 204.855 63.5312C203.473 63.5312 202.406 62.8867 202.09 61.9375H199.195C199.488 64.1172 201.691 65.6875 204.762 65.6875ZM204.773 58.6914C202.934 58.6914 201.762 57.2148 201.762 54.7539C201.762 52.3164 202.934 50.7695 204.773 50.7695C206.637 50.7695 207.844 52.3398 207.844 54.7539C207.844 57.1797 206.637 58.6914 204.773 58.6914ZM217.723 52.1406C217.723 53.9805 218.918 55.1523 221.297 55.6797L223.359 56.1367C224.66 56.4297 225.105 56.8516 225.105 57.6016C225.105 58.5273 224.227 59.1133 222.809 59.1133C221.332 59.1133 220.5 58.5039 220.277 57.2969H217.406C217.641 59.6992 219.562 61.2461 222.809 61.2461C225.855 61.2461 228.012 59.6641 228.012 57.3203C228.012 55.5156 227.016 54.5195 224.438 53.9453L222.375 53.4883C221.074 53.1953 220.559 52.7031 220.559 51.9883C220.559 51.0742 221.414 50.4648 222.703 50.4648C224.051 50.4648 224.883 51.1797 225 52.3047H227.719C227.648 49.9492 225.727 48.3203 222.703 48.3203C219.703 48.3203 217.723 49.8672 217.723 52.1406ZM237.316 43H239.52L242.25 39.5898H239.73L237.316 43ZM236.508 43.3984H234.246L231.117 46.8789H233.496L235.336 44.793H235.418L237.258 46.8789H239.625L236.508 43.3984ZM235.371 61.2461C239.016 61.2461 241.383 58.8203 241.383 54.7891C241.383 50.7695 238.992 48.3203 235.371 48.3203C231.75 48.3203 229.359 50.7812 229.359 54.7891C229.359 58.8203 231.727 61.2461 235.371 61.2461ZM235.371 58.9375C233.52 58.9375 232.324 57.4375 232.324 54.7891C232.324 52.1523 233.531 50.6406 235.371 50.6406C237.223 50.6406 238.418 52.1523 238.418 54.7891C238.418 57.4375 237.223 58.9375 235.371 58.9375ZM248.145 61H251.062V44.0898H248.145V61ZM261.691 58.8438H261.75V61H264.562V50.5469H265.289C266.859 50.5469 267.785 49.6797 267.785 48.2148V45.8828H265.406V47.6641C265.406 48.2734 265.09 48.5781 264.457 48.5781H261.645V55.7617C261.645 57.5664 260.602 58.7617 258.914 58.7617C257.273 58.7617 256.406 57.8008 256.406 56.0195V48.5781H253.488V56.6055C253.488 59.4766 255.199 61.2227 257.895 61.2227C259.781 61.2227 261.035 60.3555 261.691 58.8438ZM280.031 54.9297C280.031 53.1133 279.492 51.6602 278.59 50.6523V50.5938H278.977C280.184 50.5938 280.91 49.8086 280.91 48.543V46.1523H278.531V47.7695C278.531 48.4961 278.203 48.7656 277.289 48.7656C276.234 48.7656 275.637 48.3203 274.02 48.3203C270.375 48.3203 268.008 50.793 268.008 54.7891C268.008 58.7969 270.363 61.2461 274.055 61.2461C277.617 61.2461 280.031 58.7734 280.031 54.9297ZM274.02 58.9375C272.156 58.9375 270.973 57.4258 270.973 54.7891C270.973 52.1641 272.168 50.6406 274.02 50.6406C275.871 50.6406 277.066 52.1641 277.066 54.7891C277.066 57.4141 275.883 58.9375 274.02 58.9375ZM274.055 65.6641C274.945 65.6641 275.648 64.9492 275.648 64.082C275.648 63.2031 274.945 62.5 274.055 62.5C273.164 62.5 272.461 63.2031 272.461 64.082C272.461 64.9492 273.164 65.6641 274.055 65.6641ZM282.961 61H285.879V53.8047C285.879 52.0234 286.945 50.8164 288.621 50.8164C290.285 50.8164 291.105 51.8008 291.105 53.5586V61H294.023V52.9727C294.023 50.1016 292.465 48.3438 289.723 48.3438C287.812 48.3438 286.488 49.2344 285.82 50.7109H285.762V48.5781H282.961V61ZM301.84 65.6875C305.461 65.6875 307.84 63.7656 307.84 60.8008V48.5781H304.98V50.7109H304.934C304.219 49.2812 302.789 48.3672 301.02 48.3672C297.844 48.3672 295.852 50.8164 295.852 54.7422C295.852 58.6094 297.891 61.0117 300.961 61.0117C302.742 61.0117 304.207 60.1211 304.852 58.7852H304.922V60.8828C304.922 62.4648 303.832 63.5312 301.934 63.5312C300.551 63.5312 299.484 62.8867 299.168 61.9375H296.273C296.566 64.1172 298.77 65.6875 301.84 65.6875ZM301.852 58.6914C300.012 58.6914 298.84 57.2148 298.84 54.7539C298.84 52.3164 300.012 50.7695 301.852 50.7695C303.715 50.7695 304.922 52.3398 304.922 54.7539C304.922 57.1797 303.715 58.6914 301.852 58.6914ZM318.059 53.7578H318.023V44.0898H315.105V61H318.023V56.6875L319.008 55.6914L322.934 61H326.309L321.129 53.9219L326.098 48.5781H322.734L318.059 53.7578ZM327.551 61H330.469V53.8633C330.469 52.0352 331.535 50.8164 333.293 50.8164C334.98 50.8164 335.848 51.8594 335.848 53.5938V61H338.766V52.9961C338.766 50.1484 337.16 48.3438 334.418 48.3438C332.531 48.3438 331.16 49.1992 330.492 50.7109H330.434V44.0898H327.551V61ZM347.332 46.8555L350.016 43.2344H347.238L345.281 46.8555H347.332ZM344.766 61.1992C346.359 61.1992 347.918 60.3672 348.633 59.0195H348.691V61H351.504V52.4453C351.504 49.9492 349.5 48.3203 346.418 48.3203C343.254 48.3203 341.273 49.9844 341.145 52.3047H343.852C344.039 51.2734 344.918 50.6055 346.301 50.6055C347.742 50.6055 348.621 51.3555 348.621 52.6562V53.5469L345.34 53.7344C342.316 53.9219 340.617 55.2461 340.617 57.4492C340.617 59.6875 342.363 61.1992 344.766 61.1992ZM345.645 58.9961C344.379 58.9961 343.535 58.3516 343.535 57.332C343.535 56.3477 344.344 55.7148 345.75 55.6211L348.621 55.4453V56.3945C348.621 57.8945 347.297 58.9961 345.645 58.9961ZM364.805 53.0078C364.605 50.3945 362.578 48.3203 359.297 48.3203C355.688 48.3203 353.344 50.8164 353.344 54.7891C353.344 58.8203 355.688 61.2461 359.32 61.2461C362.438 61.2461 364.582 59.418 364.816 56.6406H362.062C361.793 58.0469 360.832 58.8906 359.355 58.8906C357.504 58.8906 356.309 57.3906 356.309 54.7891C356.309 52.2344 357.492 50.6875 359.332 50.6875C360.891 50.6875 361.816 51.6836 362.051 53.0078H364.805ZM366.645 61H369.562V53.8633C369.562 52.0352 370.629 50.8164 372.387 50.8164C374.074 50.8164 374.941 51.8594 374.941 53.5938V61H377.859V52.9961C377.859 50.1484 376.254 48.3438 373.512 48.3438C371.625 48.3438 370.254 49.1992 369.586 50.7109H369.527V44.0898H366.645V61ZM385.09 61H388.008V53.8633C388.008 52.0352 389.074 50.8164 390.832 50.8164C392.52 50.8164 393.387 51.8594 393.387 53.5938V61H396.305V52.9961C396.305 50.1484 394.699 48.3438 391.957 48.3438C390.07 48.3438 388.699 49.1992 388.031 50.7109H387.973V44.0898H385.09V61ZM402.809 46.8555H404.871L402.914 43.2344H400.137L402.809 46.8555ZM402.305 61.1992C403.898 61.1992 405.457 60.3672 406.172 59.0195H406.23V61H409.043V52.4453C409.043 49.9492 407.039 48.3203 403.957 48.3203C400.793 48.3203 398.812 49.9844 398.684 52.3047H401.391C401.578 51.2734 402.457 50.6055 403.84 50.6055C405.281 50.6055 406.16 51.3555 406.16 52.6562V53.5469L402.879 53.7344C399.855 53.9219 398.156 55.2461 398.156 57.4492C398.156 59.6875 399.902 61.1992 402.305 61.1992ZM403.184 58.9961C401.918 58.9961 401.074 58.3516 401.074 57.332C401.074 56.3477 401.883 55.7148 403.289 55.6211L406.16 55.4453V56.3945C406.16 57.8945 404.836 58.9961 403.184 58.9961ZM411.398 61H414.316V53.8047C414.316 52.0234 415.383 50.8164 417.059 50.8164C418.723 50.8164 419.543 51.8008 419.543 53.5586V61H422.461V52.9727C422.461 50.1016 420.902 48.3438 418.16 48.3438C416.25 48.3438 414.926 49.2344 414.258 50.7109H414.199V48.5781H411.398V61ZM430.277 65.6875C433.898 65.6875 436.277 63.7656 436.277 60.8008V48.5781H433.418V50.7109H433.371C432.656 49.2812 431.227 48.3672 429.457 48.3672C426.281 48.3672 424.289 50.8164 424.289 54.7422C424.289 58.6094 426.328 61.0117 429.398 61.0117C431.18 61.0117 432.645 60.1211 433.289 58.7852H433.359V60.8828C433.359 62.4648 432.27 63.5312 430.371 63.5312C428.988 63.5312 427.922 62.8867 427.605 61.9375H424.711C425.004 64.1172 427.207 65.6875 430.277 65.6875ZM430.289 58.6914C428.449 58.6914 427.277 57.2148 427.277 54.7539C427.277 52.3164 428.449 50.7695 430.289 50.7695C432.152 50.7695 433.359 52.3398 433.359 54.7539C433.359 57.1797 432.152 58.6914 430.289 58.6914Z" fill="black"/>
<path d="M51.1206 69H57.0503V35.1797H51.0737L42.2378 41.3906V46.9453L50.98 40.9453H51.1206V69Z" fill="black"/>
<defs>
<linearGradient id="paint0_linear" x1="51.7267" y1="51.8754" x2="334.003" y2="51.8754" gradientUnits="userSpaceOnUse">
<stop stop-color="#FFA125"/>
<stop offset="1" stop-color="#F9D84B"/>
</linearGradient>
<linearGradient id="paint1_linear" x1="24.5717" y1="24.584" x2="79.1533" y2="79.1657" gradientUnits="userSpaceOnUse">
<stop stop-color="#FFA125"/>
<stop offset="1" stop-color="#F9D84B"/>
</linearGradient>
</defs>
</svg>
