<svg width="541" height="104" viewBox="0 0 541 104" fill="none" xmlns="http://www.w3.org/2000/svg">
<path d="M538.389 47.2281L493.382 1.94174C492.137 0.689004 490.519 0.0626367 488.885 0.0313183V0H51.7227V103.742H488.885V103.726C490.519 103.695 492.137 103.069 493.382 101.816L538.373 56.5296C540.925 53.9615 540.925 49.7962 538.389 47.2281Z" fill="url(#paint0_linear)"/>
<path d="M56.514 101.815C53.9459 104.383 49.7962 104.383 47.2281 101.815L1.92608 56.5133C-0.642026 53.9452 -0.642026 49.7955 1.92608 47.2274L47.2124 1.94103C49.7805 -0.627073 53.9302 -0.627073 56.4983 1.94103L101.785 47.2274C104.353 49.7955 104.353 53.9452 101.785 56.5133L56.514 101.815Z" fill="url(#paint1_linear)"/>
<path d="M169.125 53.9453V52.1406H162.094V54.4492H166.172L166.16 54.7305C166.113 57.0977 164.344 58.7148 161.789 58.7148C158.742 58.7148 156.844 56.3359 156.844 52.4453C156.844 48.6367 158.66 46.375 161.707 46.375C163.781 46.375 165.352 47.5234 165.926 49.4688H168.996C168.445 46.082 165.539 43.8086 161.695 43.8086C156.809 43.8086 153.75 47.1133 153.75 52.4805C153.75 57.9297 156.82 61.2812 161.754 61.2812C166.383 61.2812 169.125 58.5273 169.125 53.9453ZM172.828 46.7031C173.719 46.7031 174.422 45.9883 174.422 45.1211C174.422 44.2422 173.719 43.5391 172.828 43.5391C171.938 43.5391 171.223 44.2422 171.223 45.1211C171.223 45.9883 171.938 46.7031 172.828 46.7031ZM171.375 61H174.293V48.5781H171.375V61ZM180.293 44.2305C180.75 44.043 181.078 43.9727 181.488 43.9727C182.145 43.9727 182.625 44.3711 182.625 44.8867C182.625 45.4961 182.297 45.8711 181.523 46.1875L182.414 47.3242C183.715 46.7969 184.512 45.8125 184.512 44.7578C184.512 43.375 183.516 42.4727 181.98 42.4727C181.359 42.4727 180.773 42.5781 180.293 42.7891V44.2305ZM180.398 61.1992C181.992 61.1992 183.551 60.3672 184.266 59.0195H184.324V61H187.137V52.4453C187.137 49.9492 185.133 48.3203 182.051 48.3203C178.887 48.3203 176.906 49.9844 176.777 52.3047H179.484C179.672 51.2734 180.551 50.6055 181.934 50.6055C183.375 50.6055 184.254 51.3555 184.254 52.6562V53.5469L180.973 53.7344C177.949 53.9219 176.25 55.2461 176.25 57.4492C176.25 59.6875 177.996 61.1992 180.398 61.1992ZM181.277 58.9961C180.012 58.9961 179.168 58.3516 179.168 57.332C179.168 56.3477 179.977 55.7148 181.383 55.6211L184.254 55.4453V56.3945C184.254 57.8945 182.93 58.9961 181.277 58.9961ZM191.016 46.7031C191.906 46.7031 192.609 45.9883 192.609 45.1211C192.609 44.2422 191.906 43.5391 191.016 43.5391C190.125 43.5391 189.41 44.2422 189.41 45.1211C189.41 45.9883 190.125 46.7031 191.016 46.7031ZM189.562 61H192.48V48.5781H189.562V61ZM206.555 48.3672C204.75 48.3672 203.344 49.2812 202.641 50.7227H202.582V48.5781H199.734V65.0898H202.652V58.9375H202.711C203.391 60.332 204.797 61.1992 206.602 61.1992C209.719 61.1992 211.711 58.75 211.711 54.7891C211.711 50.8164 209.707 48.3672 206.555 48.3672ZM205.664 58.8086C203.848 58.8086 202.641 57.2266 202.629 54.7891C202.641 52.375 203.848 50.7695 205.664 50.7695C207.551 50.7695 208.723 52.3398 208.723 54.7891C208.723 57.25 207.551 58.8086 205.664 58.8086ZM213.668 61H216.586V53.8633C216.586 52.0352 217.652 50.8164 219.41 50.8164C221.098 50.8164 221.965 51.8594 221.965 53.5938V61H224.883V52.9961C224.883 50.1484 223.277 48.3438 220.535 48.3438C218.648 48.3438 217.277 49.1992 216.609 50.7109H216.551V44.0898H213.668V61ZM233.449 46.8555L236.133 43.2344H233.355L231.398 46.8555H233.449ZM230.883 61.1992C232.477 61.1992 234.035 60.3672 234.75 59.0195H234.809V61H237.621V52.4453C237.621 49.9492 235.617 48.3203 232.535 48.3203C229.371 48.3203 227.391 49.9844 227.262 52.3047H229.969C230.156 51.2734 231.035 50.6055 232.418 50.6055C233.859 50.6055 234.738 51.3555 234.738 52.6562V53.5469L231.457 53.7344C228.434 53.9219 226.734 55.2461 226.734 57.4492C226.734 59.6875 228.48 61.1992 230.883 61.1992ZM231.762 58.9961C230.496 58.9961 229.652 58.3516 229.652 57.332C229.652 56.3477 230.461 55.7148 231.867 55.6211L234.738 55.4453V56.3945C234.738 57.8945 233.414 58.9961 231.762 58.9961ZM246.797 48.3672C244.992 48.3672 243.586 49.2812 242.883 50.7227H242.824V48.5781H239.977V65.0898H242.895V58.9375H242.953C243.633 60.332 245.039 61.1992 246.844 61.1992C249.961 61.1992 251.953 58.75 251.953 54.7891C251.953 50.8164 249.949 48.3672 246.797 48.3672ZM245.906 58.8086C244.09 58.8086 242.883 57.2266 242.871 54.7891C242.883 52.375 244.09 50.7695 245.906 50.7695C247.793 50.7695 248.965 52.3398 248.965 54.7891C248.965 57.25 247.793 58.8086 245.906 58.8086ZM265.582 61.1992C268.723 61.1992 270.703 58.7617 270.703 54.7891C270.703 50.8164 268.711 48.3672 265.582 48.3672C263.824 48.3672 262.406 49.2578 261.703 50.7109H261.633V44.0898H258.715V61H261.574V58.8789H261.633C262.359 60.3203 263.754 61.1992 265.582 61.1992ZM264.68 50.7695C266.543 50.7695 267.715 52.3281 267.715 54.7891C267.715 57.2617 266.555 58.8086 264.68 58.8086C262.875 58.8086 261.621 57.2266 261.621 54.7891C261.621 52.375 262.875 50.7695 264.68 50.7695ZM278.824 46.8555L281.508 43.2344H278.73L276.773 46.8555H278.824ZM276.258 61.1992C277.852 61.1992 279.41 60.3672 280.125 59.0195H280.184V61H282.996V52.4453C282.996 49.9492 280.992 48.3203 277.91 48.3203C274.746 48.3203 272.766 49.9844 272.637 52.3047H275.344C275.531 51.2734 276.41 50.6055 277.793 50.6055C279.234 50.6055 280.113 51.3555 280.113 52.6562V53.5469L276.832 53.7344C273.809 53.9219 272.109 55.2461 272.109 57.4492C272.109 59.6875 273.855 61.1992 276.258 61.1992ZM277.137 58.9961C275.871 58.9961 275.027 58.3516 275.027 57.332C275.027 56.3477 275.836 55.7148 277.242 55.6211L280.113 55.4453V56.3945C280.113 57.8945 278.789 58.9961 277.137 58.9961ZM285.352 61H288.27V53.8047C288.27 52.0234 289.336 50.8164 291.012 50.8164C292.676 50.8164 293.496 51.8008 293.496 53.5586V61H296.414V52.9727C296.414 50.1016 294.855 48.3438 292.113 48.3438C290.203 48.3438 288.879 49.2344 288.211 50.7109H288.152V48.5781H285.352V61ZM303.645 61H306.562V53.8633C306.562 52.0352 307.629 50.8164 309.387 50.8164C311.074 50.8164 311.941 51.8594 311.941 53.5938V61H314.859V52.9961C314.859 50.1484 313.254 48.3438 310.512 48.3438C308.625 48.3438 307.254 49.1992 306.586 50.7109H306.527V44.0898H303.645V61ZM321.363 46.8555H323.426L321.469 43.2344H318.691L321.363 46.8555ZM320.859 61.1992C322.453 61.1992 324.012 60.3672 324.727 59.0195H324.785V61H327.598V52.4453C327.598 49.9492 325.594 48.3203 322.512 48.3203C319.348 48.3203 317.367 49.9844 317.238 52.3047H319.945C320.133 51.2734 321.012 50.6055 322.395 50.6055C323.836 50.6055 324.715 51.3555 324.715 52.6562V53.5469L321.434 53.7344C318.41 53.9219 316.711 55.2461 316.711 57.4492C316.711 59.6875 318.457 61.1992 320.859 61.1992ZM321.738 58.9961C320.473 58.9961 319.629 58.3516 319.629 57.332C319.629 56.3477 320.438 55.7148 321.844 55.6211L324.715 55.4453V56.3945C324.715 57.8945 323.391 58.9961 321.738 58.9961ZM329.953 61H332.871V53.8047C332.871 52.0234 333.938 50.8164 335.613 50.8164C337.277 50.8164 338.098 51.8008 338.098 53.5586V61H341.016V52.9727C341.016 50.1016 339.457 48.3438 336.715 48.3438C334.805 48.3438 333.48 49.2344 332.812 50.7109H332.754V48.5781H329.953V61ZM348.832 65.6875C352.453 65.6875 354.832 63.7656 354.832 60.8008V48.5781H351.973V50.7109H351.926C351.211 49.2812 349.781 48.3672 348.012 48.3672C344.836 48.3672 342.844 50.8164 342.844 54.7422C342.844 58.6094 344.883 61.0117 347.953 61.0117C349.734 61.0117 351.199 60.1211 351.844 58.7852H351.914V60.8828C351.914 62.4648 350.824 63.5312 348.926 63.5312C347.543 63.5312 346.477 62.8867 346.16 61.9375H343.266C343.559 64.1172 345.762 65.6875 348.832 65.6875ZM348.844 58.6914C347.004 58.6914 345.832 57.2148 345.832 54.7539C345.832 52.3164 347.004 50.7695 348.844 50.7695C350.707 50.7695 351.914 52.3398 351.914 54.7539C351.914 57.1797 350.707 58.6914 348.844 58.6914ZM366.656 61.1992C368.473 61.1992 369.902 60.2734 370.582 58.8789H370.629V61H373.488V46.9023H375.105V45.2617H373.488V44.0898H370.57V45.2617H368.027V46.9023H370.57V50.6641H370.5C369.844 49.293 368.438 48.3672 366.656 48.3672C363.527 48.3672 361.5 50.8516 361.5 54.7773C361.5 58.7266 363.527 61.1992 366.656 61.1992ZM367.535 50.7695C369.375 50.7695 370.582 52.3516 370.582 54.7891C370.582 57.25 369.375 58.8086 367.535 58.8086C365.648 58.8086 364.488 57.2617 364.488 54.7891C364.488 52.3281 365.66 50.7695 367.535 50.7695ZM379.594 61.1992C381.188 61.1992 382.746 60.3672 383.461 59.0195H383.52V61H386.332V52.4453C386.332 49.9492 384.328 48.3203 381.246 48.3203C378.082 48.3203 376.102 49.9844 375.973 52.3047H378.68C378.867 51.2734 379.746 50.6055 381.129 50.6055C382.57 50.6055 383.449 51.3555 383.449 52.6562V53.5469L380.168 53.7344C377.145 53.9219 375.445 55.2461 375.445 57.4492C375.445 59.6875 377.191 61.1992 379.594 61.1992ZM380.473 58.9961C379.207 58.9961 378.363 58.3516 378.363 57.332C378.363 56.3477 379.172 55.7148 380.578 55.6211L383.449 55.4453V56.3945C383.449 57.8945 382.125 58.9961 380.473 58.9961ZM396.527 53.7578H396.492V44.0898H393.574V61H396.492V56.6875L397.477 55.6914L401.402 61H404.777L399.598 53.9219L404.566 48.5781H401.203L396.527 53.7578ZM411.82 43.2344H409.582L406.641 46.8555H408.961L410.66 44.6992H410.73L412.441 46.8555H414.762L411.82 43.2344ZM413.578 57.2852C413.262 58.3164 412.23 58.9961 410.871 58.9961C408.961 58.9961 407.742 57.6602 407.742 55.668V55.4922H416.426V54.543C416.426 50.7695 414.223 48.3203 410.695 48.3203C407.109 48.3203 404.836 50.9102 404.836 54.8359C404.836 58.7969 407.086 61.2461 410.812 61.2461C413.754 61.2461 415.934 59.6289 416.309 57.2852H413.578ZM410.707 50.582C412.383 50.582 413.508 51.8125 413.566 53.5703H407.766C407.883 51.8359 409.066 50.582 410.707 50.582ZM418.312 61H421.23V53.8047C421.23 52.0234 422.297 50.8164 423.973 50.8164C425.637 50.8164 426.457 51.8008 426.457 53.5586V61H429.375V52.9727C429.375 50.1016 427.816 48.3438 425.074 48.3438C423.164 48.3438 421.84 49.2344 421.172 50.7109H421.113V48.5781H418.312V61ZM431.801 61H434.719V53.8633C434.719 52.0352 435.785 50.8164 437.543 50.8164C439.23 50.8164 440.098 51.8594 440.098 53.5938V61H443.016V52.9961C443.016 50.1484 441.41 48.3438 438.668 48.3438C436.781 48.3438 435.41 49.1992 434.742 50.7109H434.684V44.0898H431.801V61Z" fill="black"/>
<path d="M54.73 69H60.4956V62.5078H65.0894V57.5391H60.4956V35.1797H51.894C44.5581 45.8438 40.7847 51.8438 37.855 57.3516V62.5078H54.73V69ZM43.2925 57.5156C45.9878 52.5938 49.269 47.5078 54.73 39.6797H54.8237V57.6797H43.2925V57.5156Z" fill="black"/>
<defs>
<linearGradient id="paint0_linear" x1="51.7267" y1="51.8754" x2="334.003" y2="51.8754" gradientUnits="userSpaceOnUse">
<stop stop-color="#FFA125"/>
<stop offset="1" stop-color="#F9D84B"/>
</linearGradient>
<linearGradient id="paint1_linear" x1="24.5717" y1="24.584" x2="79.1533" y2="79.1656" gradientUnits="userSpaceOnUse">
<stop stop-color="#FFA125"/>
<stop offset="1" stop-color="#F9D84B"/>
</linearGradient>
</defs>
</svg>
