<svg width="541" height="104" viewBox="0 0 541 104" fill="none" xmlns="http://www.w3.org/2000/svg">
<path d="M538.389 47.2281L493.382 1.94174C492.137 0.689004 490.519 0.0626367 488.885 0.0313183V0H51.7227V103.742H488.885V103.726C490.519 103.695 492.137 103.069 493.382 101.816L538.373 56.5296C540.925 53.9615 540.925 49.7962 538.389 47.2281Z" fill="url(#paint0_linear)"/>
<path d="M56.514 101.815C53.9459 104.383 49.7962 104.383 47.2281 101.815L1.92608 56.5133C-0.642026 53.9452 -0.642026 49.7955 1.92608 47.2274L47.2124 1.94109C49.7805 -0.627012 53.9302 -0.627012 56.4983 1.94109L101.785 47.2274C104.353 49.7955 104.353 53.9452 101.785 56.5133L56.514 101.815Z" fill="url(#paint1_linear)"/>
<path d="M172.805 61.2812C173.906 61.2812 174.902 61.1172 175.805 60.7891L177.211 62.7109H180.176L177.902 59.6289C179.824 58.1406 180.832 55.668 180.832 52.5508C180.832 47.1484 177.727 43.8086 172.805 43.8086C167.895 43.8086 164.789 47.1836 164.789 52.5508C164.789 57.918 167.848 61.2812 172.805 61.2812ZM172.805 58.75C169.77 58.75 167.848 56.3242 167.848 52.5508C167.848 48.7656 169.77 46.3398 172.805 46.3398C175.852 46.3398 177.785 48.7656 177.785 52.5508C177.785 54.5781 177.199 56.2422 176.133 57.2852L174.973 55.7031H172.008L174.129 58.5625C173.719 58.6797 173.285 58.75 172.805 58.75ZM193.969 48.5781H191.051V55.7617C191.051 57.5664 190.008 58.7617 188.32 58.7617C186.68 58.7617 185.812 57.8008 185.812 56.0195V48.5781H182.895V56.6055C182.895 59.4766 184.605 61.2227 187.301 61.2227C189.188 61.2227 190.441 60.3555 191.098 58.8438H191.156V61H193.969V48.5781ZM199.91 44.2305C200.367 44.043 200.695 43.9727 201.105 43.9727C201.762 43.9727 202.242 44.3711 202.242 44.8867C202.242 45.4961 201.914 45.8711 201.141 46.1875L202.031 47.3242C203.332 46.7969 204.129 45.8125 204.129 44.7578C204.129 43.375 203.133 42.4727 201.598 42.4727C200.977 42.4727 200.391 42.5781 199.91 42.7891V44.2305ZM200.016 61.1992C201.609 61.1992 203.168 60.3672 203.883 59.0195H203.941V61H206.754V52.4453C206.754 49.9492 204.75 48.3203 201.668 48.3203C198.504 48.3203 196.523 49.9844 196.395 52.3047H199.102C199.289 51.2734 200.168 50.6055 201.551 50.6055C202.992 50.6055 203.871 51.3555 203.871 52.6562V53.5469L200.59 53.7344C197.566 53.9219 195.867 55.2461 195.867 57.4492C195.867 59.6875 197.613 61.1992 200.016 61.1992ZM200.895 58.9961C199.629 58.9961 198.785 58.3516 198.785 57.332C198.785 56.3477 199.594 55.7148 201 55.6211L203.871 55.4453V56.3945C203.871 57.8945 202.547 58.9961 200.895 58.9961ZM209.109 61H212.027V53.8047C212.027 52.0234 213.094 50.8164 214.77 50.8164C216.434 50.8164 217.254 51.8008 217.254 53.5586V61H220.172V52.9727C220.172 50.1016 218.613 48.3438 215.871 48.3438C213.961 48.3438 212.637 49.2344 211.969 50.7109H211.91V48.5781H209.109V61ZM227.402 61H230.32V44.0898H227.402V61ZM238.969 46.8555L241.652 43.2344H238.863L236.918 46.8555H238.969ZM234.199 65.6172C237.035 65.6172 238.406 64.5742 239.461 61.4922L243.961 48.5781H240.891L237.961 58.5156H237.902L234.984 48.5781H231.797L236.215 61.0117C236.227 61.0469 236.039 61.668 236.039 61.7031C235.723 62.8516 235.102 63.3086 233.895 63.3086C233.719 63.3086 233.203 63.2969 233.051 63.2617V65.5703C233.203 65.6055 234.023 65.6172 234.199 65.6172ZM250.23 61H253.148V53.8633C253.148 52.0352 254.215 50.8164 255.973 50.8164C257.66 50.8164 258.527 51.8594 258.527 53.5938V61H261.445V52.9961C261.445 50.1484 259.84 48.3438 257.098 48.3438C255.211 48.3438 253.84 49.1992 253.172 50.7109H253.113V44.0898H250.23V61ZM270.258 43.2344H268.02L265.078 46.8555H267.398L269.098 44.6992H269.168L270.879 46.8555H273.199L270.258 43.2344ZM272.016 57.2852C271.699 58.3164 270.668 58.9961 269.309 58.9961C267.398 58.9961 266.18 57.6602 266.18 55.668V55.4922H274.863V54.543C274.863 50.7695 272.66 48.3203 269.133 48.3203C265.547 48.3203 263.273 50.9102 263.273 54.8359C263.273 58.7969 265.523 61.2461 269.25 61.2461C272.191 61.2461 274.371 59.6289 274.746 57.2852H272.016ZM269.145 50.582C270.82 50.582 271.945 51.8125 272.004 53.5703H266.203C266.32 51.8359 267.504 50.582 269.145 50.582ZM269.18 65.6641C270.082 65.6641 270.785 64.9492 270.785 64.082C270.785 63.2031 270.082 62.5 269.18 62.5C268.301 62.5 267.586 63.2031 267.586 64.082C267.586 64.9492 268.301 65.6641 269.18 65.6641ZM282.363 45.6719V48.5781H280.582V50.8281H282.363V57.6953C282.363 60.1094 283.418 61.0586 286.102 61.0586C286.723 61.0586 287.297 61.0117 287.613 60.9414V58.7148C287.426 58.75 287.051 58.7734 286.781 58.7734C285.75 58.7734 285.281 58.3047 285.281 57.2852V50.8281H287.625V48.5781H285.281V45.6719H282.363ZM289.699 61H292.617V53.8633C292.617 52.0352 293.684 50.8164 295.441 50.8164C297.129 50.8164 297.996 51.8594 297.996 53.5938V61H300.914V52.9961C300.914 50.1484 299.309 48.3438 296.566 48.3438C294.68 48.3438 293.309 49.1992 292.641 50.7109H292.582V44.0898H289.699V61ZM310.699 43H312.902L315.633 39.5898H313.113L310.699 43ZM309.891 43.3984H307.629L304.5 46.8789H306.879L308.719 44.793H308.801L310.641 46.8789H313.008L309.891 43.3984ZM308.754 61.2461C312.398 61.2461 314.766 58.8203 314.766 54.7891C314.766 50.7695 312.375 48.3203 308.754 48.3203C305.133 48.3203 302.742 50.7812 302.742 54.7891C302.742 58.8203 305.109 61.2461 308.754 61.2461ZM308.754 58.9375C306.902 58.9375 305.707 57.4375 305.707 54.7891C305.707 52.1523 306.914 50.6406 308.754 50.6406C310.605 50.6406 311.801 52.1523 311.801 54.7891C311.801 57.4375 310.605 58.9375 308.754 58.9375ZM316.641 61H319.559V53.8047C319.559 52.0234 320.625 50.8164 322.301 50.8164C323.965 50.8164 324.785 51.8008 324.785 53.5586V61H327.703V52.9727C327.703 50.1016 326.145 48.3438 323.402 48.3438C321.492 48.3438 320.168 49.2344 319.5 50.7109H319.441V48.5781H316.641V61ZM335.52 65.6875C339.141 65.6875 341.52 63.7656 341.52 60.8008V48.5781H338.66V50.7109H338.613C337.898 49.2812 336.469 48.3672 334.699 48.3672C331.523 48.3672 329.531 50.8164 329.531 54.7422C329.531 58.6094 331.57 61.0117 334.641 61.0117C336.422 61.0117 337.887 60.1211 338.531 58.7852H338.602V60.8828C338.602 62.4648 337.512 63.5312 335.613 63.5312C334.23 63.5312 333.164 62.8867 332.848 61.9375H329.953C330.246 64.1172 332.449 65.6875 335.52 65.6875ZM335.531 58.6914C333.691 58.6914 332.52 57.2148 332.52 54.7539C332.52 52.3164 333.691 50.7695 335.531 50.7695C337.395 50.7695 338.602 52.3398 338.602 54.7539C338.602 57.1797 337.395 58.6914 335.531 58.6914ZM353.344 61.1992C355.16 61.1992 356.59 60.2734 357.27 58.8789H357.316V61H360.176V44.0898H357.258V50.6641H357.188C356.531 49.293 355.125 48.3672 353.344 48.3672C350.215 48.3672 348.188 50.8516 348.188 54.7773C348.188 58.7266 350.215 61.1992 353.344 61.1992ZM354.223 50.7695C356.062 50.7695 357.27 52.3516 357.27 54.7891C357.27 57.25 356.062 58.8086 354.223 58.8086C352.336 58.8086 351.176 57.2617 351.176 54.7891C351.176 52.3281 352.348 50.7695 354.223 50.7695ZM369.551 42.3438C370.922 42.3438 371.977 41.1836 371.977 39.3086H370.301C370.289 40.2227 370.008 40.75 369.492 40.75C368.578 40.75 367.992 39.1211 366.41 39.1211C364.992 39.1211 363.961 40.2227 363.961 42.1328H365.637C365.613 41.2773 365.93 40.7148 366.469 40.7148C367.359 40.7148 367.945 42.3438 369.551 42.3438ZM369.094 43.1641H366.844L363.715 46.5742H366.082L367.934 44.5469H368.004L369.855 46.5742H372.223L369.094 43.1641ZM370.852 57.2852C370.535 58.3164 369.504 58.9961 368.145 58.9961C366.234 58.9961 365.016 57.6602 365.016 55.668V55.4922H373.699V54.543C373.699 50.7695 371.496 48.3203 367.969 48.3203C364.383 48.3203 362.109 50.9102 362.109 54.8359C362.109 58.7969 364.359 61.2461 368.086 61.2461C371.027 61.2461 373.207 59.6289 373.582 57.2852H370.852ZM367.98 50.582C369.656 50.582 370.781 51.8125 370.84 53.5703H365.039C365.156 51.8359 366.34 50.582 367.98 50.582ZM385.031 61.1992C386.848 61.1992 388.277 60.2734 388.957 58.8789H389.004V61H391.863V44.0898H388.945V50.6641H388.875C388.219 49.293 386.812 48.3672 385.031 48.3672C381.902 48.3672 379.875 50.8516 379.875 54.7773C379.875 58.7266 381.902 61.1992 385.031 61.1992ZM385.91 50.7695C387.75 50.7695 388.957 52.3516 388.957 54.7891C388.957 57.25 387.75 58.8086 385.91 58.8086C384.023 58.8086 382.863 57.2617 382.863 54.7891C382.863 52.3281 384.035 50.7695 385.91 50.7695ZM398.473 46.8555H400.535L398.578 43.2344H395.801L398.473 46.8555ZM397.969 61.1992C399.562 61.1992 401.121 60.3672 401.836 59.0195H401.895V61H404.707V52.4453C404.707 49.9492 402.703 48.3203 399.621 48.3203C396.457 48.3203 394.477 49.9844 394.348 52.3047H397.055C397.242 51.2734 398.121 50.6055 399.504 50.6055C400.945 50.6055 401.824 51.3555 401.824 52.6562V53.5469L398.543 53.7344C395.52 53.9219 393.82 55.2461 393.82 57.4492C393.82 59.6875 395.566 61.1992 397.969 61.1992ZM398.848 58.9961C397.582 58.9961 396.738 58.3516 396.738 57.332C396.738 56.3477 397.547 55.7148 398.953 55.6211L401.824 55.4453V56.3945C401.824 57.8945 400.5 58.9961 398.848 58.9961ZM407.062 61H409.98V53.8047C409.98 52.0234 411.047 50.8164 412.723 50.8164C414.387 50.8164 415.207 51.8008 415.207 53.5586V61H418.125V52.9727C418.125 50.1016 416.566 48.3438 413.824 48.3438C411.914 48.3438 410.59 49.2344 409.922 50.7109H409.863V48.5781H407.062V61ZM425.941 65.6875C429.562 65.6875 431.941 63.7656 431.941 60.8008V48.5781H429.082V50.7109H429.035C428.32 49.2812 426.891 48.3672 425.121 48.3672C421.945 48.3672 419.953 50.8164 419.953 54.7422C419.953 58.6094 421.992 61.0117 425.062 61.0117C426.844 61.0117 428.309 60.1211 428.953 58.7852H429.023V60.8828C429.023 62.4648 427.934 63.5312 426.035 63.5312C424.652 63.5312 423.586 62.8867 423.27 61.9375H420.375C420.668 64.1172 422.871 65.6875 425.941 65.6875ZM425.953 58.6914C424.113 58.6914 422.941 57.2148 422.941 54.7539C422.941 52.3164 424.113 50.7695 425.953 50.7695C427.816 50.7695 429.023 52.3398 429.023 54.7539C429.023 57.1797 427.816 58.6914 425.953 58.6914Z" fill="black"/>
<path d="M46.2144 53.8359H50.2222C54.5581 53.8359 57.1831 55.8516 57.1597 59.4609C57.1597 62.5547 54.5112 64.7344 50.644 64.7344C46.6362 64.7344 43.9409 62.7188 43.7065 59.6484H37.9175C38.2222 65.625 43.2378 69.6797 50.644 69.6797C58.0503 69.6797 63.3003 65.6016 63.3003 59.6016C63.3003 54.8906 59.9956 51.8906 55.0034 51.4219V51.3047C59.0815 50.4609 62.105 47.6484 62.105 43.3828C62.105 38.1562 57.605 34.5 50.5972 34.5C43.8003 34.5 39.0425 38.3438 38.644 44.3906H44.269C44.48 41.2031 47.0347 39.3047 50.5972 39.3047C54.3237 39.3047 56.2925 41.2266 56.2925 44.2031C56.2925 47.2031 53.8081 49.3359 50.0815 49.3359H46.2144V53.8359Z" fill="black"/>
<defs>
<linearGradient id="paint0_linear" x1="51.7267" y1="51.8754" x2="334.003" y2="51.8754" gradientUnits="userSpaceOnUse">
<stop stop-color="#FFA125"/>
<stop offset="1" stop-color="#F9D84B"/>
</linearGradient>
<linearGradient id="paint1_linear" x1="24.5717" y1="24.584" x2="79.1533" y2="79.1657" gradientUnits="userSpaceOnUse">
<stop stop-color="#FFA125"/>
<stop offset="1" stop-color="#F9D84B"/>
</linearGradient>
</defs>
</svg>
