<svg width="541" height="104" viewBox="0 0 541 104" fill="none" xmlns="http://www.w3.org/2000/svg">
<path d="M538.389 47.2281L493.382 1.94174C492.137 0.689004 490.519 0.0626367 488.885 0.0313183V0H51.7227V103.742H488.885V103.726C490.519 103.695 492.137 103.069 493.382 101.816L538.373 56.5296C540.925 53.9615 540.925 49.7962 538.389 47.2281Z" fill="url(#paint0_linear)"/>
<path d="M56.514 101.815C53.9459 104.383 49.7962 104.383 47.2281 101.815L1.92608 56.5133C-0.642026 53.9452 -0.642026 49.7955 1.92608 47.2274L47.2124 1.94109C49.7805 -0.627012 53.9302 -0.627012 56.4983 1.94109L101.785 47.2274C104.353 49.7955 104.353 53.9452 101.785 56.5133L56.514 101.815Z" fill="url(#paint1_linear)"/>
<path d="M177.492 61V46.6445H182.543V44.0898H169.418V46.6445H174.48V61H177.492ZM183.68 43.2344C183.703 45.3555 185.121 46.9609 187.641 46.9609C190.16 46.9609 191.59 45.3555 191.613 43.2344H189.68C189.668 44.5234 188.93 45.3789 187.641 45.3789C186.363 45.3789 185.625 44.5234 185.602 43.2344H183.68ZM186.105 61.1992C187.699 61.1992 189.258 60.3672 189.973 59.0195H190.031V61H192.844V52.4453C192.844 49.9492 190.84 48.3203 187.758 48.3203C184.594 48.3203 182.613 49.9844 182.484 52.3047H185.191C185.379 51.2734 186.258 50.6055 187.641 50.6055C189.082 50.6055 189.961 51.3555 189.961 52.6562V53.5469L186.68 53.7344C183.656 53.9219 181.957 55.2461 181.957 57.4492C181.957 59.6875 183.703 61.1992 186.105 61.1992ZM186.984 58.9961C185.719 58.9961 184.875 58.3516 184.875 57.332C184.875 56.3477 185.684 55.7148 187.09 55.6211L189.961 55.4453V56.3945C189.961 57.8945 188.637 58.9961 186.984 58.9961ZM195.199 61H198.117V53.8047C198.117 52.0234 199.184 50.8164 200.859 50.8164C202.523 50.8164 203.344 51.8008 203.344 53.5586V61H206.262V52.9727C206.262 50.1016 204.703 48.3438 201.961 48.3438C200.051 48.3438 198.727 49.2344 198.059 50.7109H198V48.5781H195.199V61ZM214.078 65.6875C217.699 65.6875 220.078 63.7656 220.078 60.8008V48.5781H217.219V50.7109H217.172C216.457 49.2812 215.027 48.3672 213.258 48.3672C210.082 48.3672 208.09 50.8164 208.09 54.7422C208.09 58.6094 210.129 61.0117 213.199 61.0117C214.98 61.0117 216.445 60.1211 217.09 58.7852H217.16V60.8828C217.16 62.4648 216.07 63.5312 214.172 63.5312C212.789 63.5312 211.723 62.8867 211.406 61.9375H208.512C208.805 64.1172 211.008 65.6875 214.078 65.6875ZM214.09 58.6914C212.25 58.6914 211.078 57.2148 211.078 54.7539C211.078 52.3164 212.25 50.7695 214.09 50.7695C215.953 50.7695 217.16 52.3398 217.16 54.7539C217.16 57.1797 215.953 58.6914 214.09 58.6914ZM231.902 61.1992C233.719 61.1992 235.148 60.2734 235.828 58.8789H235.875V61H238.734V44.0898H235.816V50.6641H235.746C235.09 49.293 233.684 48.3672 231.902 48.3672C228.773 48.3672 226.746 50.8516 226.746 54.7773C226.746 58.7266 228.773 61.1992 231.902 61.1992ZM232.781 50.7695C234.621 50.7695 235.828 52.3516 235.828 54.7891C235.828 57.25 234.621 58.8086 232.781 58.8086C230.895 58.8086 229.734 57.2617 229.734 54.7891C229.734 52.3281 230.906 50.7695 232.781 50.7695ZM246.68 61.2461C250.324 61.2461 252.691 58.8203 252.691 54.7891C252.691 50.7695 250.301 48.3203 246.68 48.3203C243.059 48.3203 240.668 50.7812 240.668 54.7891C240.668 58.8203 243.035 61.2461 246.68 61.2461ZM246.68 58.9375C244.828 58.9375 243.633 57.4375 243.633 54.7891C243.633 52.1523 244.84 50.6406 246.68 50.6406C248.531 50.6406 249.727 52.1523 249.727 54.7891C249.727 57.4375 248.531 58.9375 246.68 58.9375ZM258.223 61.1992C259.816 61.1992 261.375 60.3672 262.09 59.0195H262.148V61H264.961V52.4453C264.961 49.9492 262.957 48.3203 259.875 48.3203C256.711 48.3203 254.73 49.9844 254.602 52.3047H257.309C257.496 51.2734 258.375 50.6055 259.758 50.6055C261.199 50.6055 262.078 51.3555 262.078 52.6562V53.5469L258.797 53.7344C255.773 53.9219 254.074 55.2461 254.074 57.4492C254.074 59.6875 255.82 61.1992 258.223 61.1992ZM259.102 58.9961C257.836 58.9961 256.992 58.3516 256.992 57.332C256.992 56.3477 257.801 55.7148 259.207 55.6211L262.078 55.4453V56.3945C262.078 57.8945 260.754 58.9961 259.102 58.9961ZM267.316 61H270.234V53.8047C270.234 52.0234 271.301 50.8164 272.977 50.8164C274.641 50.8164 275.461 51.8008 275.461 53.5586V61H278.379V52.9727C278.379 50.1016 276.82 48.3438 274.078 48.3438C272.168 48.3438 270.844 49.2344 270.176 50.7109H270.117V48.5781H267.316V61ZM280.805 61H283.723V53.8633C283.723 52.0352 284.789 50.8164 286.547 50.8164C288.234 50.8164 289.102 51.8594 289.102 53.5938V61H292.02V52.9961C292.02 50.1484 290.414 48.3438 287.672 48.3438C285.785 48.3438 284.414 49.1992 283.746 50.7109H283.688V44.0898H280.805V61ZM299.977 45.6719V48.5781H298.195V50.8281H299.977V57.6953C299.977 60.1094 301.031 61.0586 303.715 61.0586C304.336 61.0586 304.91 61.0117 305.227 60.9414V58.7148C305.039 58.75 304.664 58.7734 304.395 58.7734C303.363 58.7734 302.895 58.3047 302.895 57.2852V50.8281H305.238V48.5781H302.895V45.6719H299.977ZM307.312 61H310.23V53.8633C310.23 52.0352 311.297 50.8164 313.055 50.8164C314.742 50.8164 315.609 51.8594 315.609 53.5938V61H318.527V52.9961C318.527 50.1484 316.922 48.3438 314.18 48.3438C312.293 48.3438 310.922 49.1992 310.254 50.7109H310.195V44.0898H307.312V61ZM331.887 48.5781H328.969V55.7617C328.969 57.5664 327.926 58.7617 326.238 58.7617C324.598 58.7617 323.73 57.8008 323.73 56.0195V48.5781H320.812V56.6055C320.812 59.4766 322.523 61.2227 325.219 61.2227C327.105 61.2227 328.359 60.3555 329.016 58.8438H329.074V61H331.887V48.5781ZM339.164 61H342.082V53.8633C342.082 52.0352 343.148 50.8164 344.906 50.8164C346.594 50.8164 347.461 51.8594 347.461 53.5938V61H350.379V52.9961C350.379 50.1484 348.773 48.3438 346.031 48.3438C344.145 48.3438 342.773 49.1992 342.105 50.7109H342.047V44.0898H339.164V61ZM354.246 46.7031C355.137 46.7031 355.84 45.9883 355.84 45.1211C355.84 44.2422 355.137 43.5391 354.246 43.5391C353.355 43.5391 352.641 44.2422 352.641 45.1211C352.641 45.9883 353.355 46.7031 354.246 46.7031ZM352.793 61H355.711V48.5781H352.793V61ZM364.629 43.2344H362.391L359.449 46.8555H361.77L363.469 44.6992H363.539L365.25 46.8555H367.57L364.629 43.2344ZM366.387 57.2852C366.07 58.3164 365.039 58.9961 363.68 58.9961C361.77 58.9961 360.551 57.6602 360.551 55.668V55.4922H369.234V54.543C369.234 50.7695 367.031 48.3203 363.504 48.3203C359.918 48.3203 357.645 50.9102 357.645 54.8359C357.645 58.7969 359.895 61.2461 363.621 61.2461C366.562 61.2461 368.742 59.6289 369.117 57.2852H366.387ZM363.516 50.582C365.191 50.582 366.316 51.8125 366.375 53.5703H360.574C360.691 51.8359 361.875 50.582 363.516 50.582ZM363.551 65.6641C364.453 65.6641 365.156 64.9492 365.156 64.082C365.156 63.2031 364.453 62.5 363.551 62.5C362.672 62.5 361.957 63.2031 361.957 64.082C361.957 64.9492 362.672 65.6641 363.551 65.6641ZM382.137 48.5781H379.219V55.7617C379.219 57.5664 378.176 58.7617 376.488 58.7617C374.848 58.7617 373.98 57.8008 373.98 56.0195V48.5781H371.062V56.6055C371.062 59.4766 372.773 61.2227 375.469 61.2227C377.355 61.2227 378.609 60.3555 379.266 58.8438H379.324V61H382.137V48.5781ZM393.984 48.3672C390.82 48.3672 388.816 50.8398 388.816 54.7773C388.816 58.7266 390.809 61.1992 393.926 61.1992C395.719 61.1992 397.172 60.2852 397.816 58.9023H397.887V65.0898H400.805V48.5781H397.945V50.7227H397.887C397.184 49.3047 395.789 48.3672 393.984 48.3672ZM394.816 58.8086C392.953 58.8086 391.805 57.2734 391.805 54.7891C391.805 52.3047 392.953 50.7695 394.816 50.7695C396.656 50.7695 397.887 52.3516 397.887 54.7891C397.887 57.2383 396.656 58.8086 394.816 58.8086ZM414.199 48.5781H411.281V55.7617C411.281 57.5664 410.238 58.7617 408.551 58.7617C406.91 58.7617 406.043 57.8008 406.043 56.0195V48.5781H403.125V56.6055C403.125 59.4766 404.836 61.2227 407.531 61.2227C409.418 61.2227 410.672 60.3555 411.328 58.8438H411.387V61H414.199V48.5781ZM420.141 44.2305C420.598 44.043 420.926 43.9727 421.336 43.9727C421.992 43.9727 422.473 44.3711 422.473 44.8867C422.473 45.4961 422.145 45.8711 421.371 46.1875L422.262 47.3242C423.562 46.7969 424.359 45.8125 424.359 44.7578C424.359 43.375 423.363 42.4727 421.828 42.4727C421.207 42.4727 420.621 42.5781 420.141 42.7891V44.2305ZM420.246 61.1992C421.84 61.1992 423.398 60.3672 424.113 59.0195H424.172V61H426.984V52.4453C426.984 49.9492 424.98 48.3203 421.898 48.3203C418.734 48.3203 416.754 49.9844 416.625 52.3047H419.332C419.52 51.2734 420.398 50.6055 421.781 50.6055C423.223 50.6055 424.102 51.3555 424.102 52.6562V53.5469L420.82 53.7344C417.797 53.9219 416.098 55.2461 416.098 57.4492C416.098 59.6875 417.844 61.1992 420.246 61.1992ZM421.125 58.9961C419.859 58.9961 419.016 58.3516 419.016 57.332C419.016 56.3477 419.824 55.7148 421.23 55.6211L424.102 55.4453V56.3945C424.102 57.8945 422.777 58.9961 421.125 58.9961Z" fill="black"/>
<path d="M39.3081 45.2812H44.98C44.98 41.8359 47.7456 39.3516 51.4019 39.3516C54.7534 39.3516 56.98 41.6016 56.98 44.5547C56.98 47.0859 55.9956 48.7734 51.5894 53.1094L39.6362 64.875V69H63.4019V64.0547H47.6284V63.9375L55.0815 56.625C60.9878 50.8125 62.8862 48.1875 62.8862 44.1797C62.8862 38.7422 58.2925 34.5 51.4019 34.5C44.3706 34.5 39.3081 38.9766 39.3081 45.2812Z" fill="black"/>
<defs>
<linearGradient id="paint0_linear" x1="51.7267" y1="51.8754" x2="334.003" y2="51.8754" gradientUnits="userSpaceOnUse">
<stop stop-color="#FFA125"/>
<stop offset="1" stop-color="#F9D84B"/>
</linearGradient>
<linearGradient id="paint1_linear" x1="24.5717" y1="24.584" x2="79.1533" y2="79.1657" gradientUnits="userSpaceOnUse">
<stop stop-color="#FFA125"/>
<stop offset="1" stop-color="#F9D84B"/>
</linearGradient>
</defs>
</svg>
