<svg width="200" height="221" viewBox="0 0 200 221" fill="none" xmlns="http://www.w3.org/2000/svg">
<g clip-path="url(#clip0)">
<path d="M83.4875 4.40464L16.4928 43.1496C6.29797 49.0619 0 59.9798 0 71.7649V149.215C0 161.04 6.29797 171.958 16.4928 177.87L83.4481 216.576C93.6824 222.488 106.239 222.488 116.473 216.576L183.428 177.87C193.663 171.958 199.921 161.04 199.921 149.215V71.7649C199.921 59.9404 193.623 49.0224 183.428 43.1102L116.512 4.40464C106.278 -1.46819 93.7217 -1.46819 83.4875 4.40464Z" fill="url(#paint0_linear)"/>
<path d="M163.398 99.4812L158.079 96.5245L141.171 111.583L137.112 83.1724V83.1693L130.158 81.2718L130.155 81.2749L112.799 102.961L102.509 73.6728H96.4908L86.2008 102.961L68.8451 81.2749L68.842 81.2718L61.8882 83.1693V83.1724L57.8286 111.583L40.9208 96.5245L35.6018 99.4812V99.4842L45.0078 146.816C39.9915 146.816 35.9257 150.88 35.9257 155.895C35.9257 160.909 39.9915 164.974 45.0078 164.974H153.992C159.008 164.974 163.074 160.909 163.074 155.895C163.074 150.88 159.008 146.816 153.992 146.816L163.398 99.4842V99.4812Z" fill="#FF2C2C"/>
<path d="M164.891 99.6053C169.906 99.6053 173.973 95.5405 173.973 90.5263C173.973 85.5122 169.906 81.4474 164.891 81.4474C159.875 81.4474 155.809 85.5122 155.809 90.5263C155.809 95.5405 159.875 99.6053 164.891 99.6053Z" fill="#8CBAFA"/>
<path d="M135.828 83.2632C140.844 83.2632 144.91 79.1984 144.91 74.1842C144.91 69.1701 140.844 65.1053 135.828 65.1053C130.812 65.1053 126.746 69.1701 126.746 74.1842C126.746 79.1984 130.812 83.2632 135.828 83.2632Z" fill="#8CBAFA"/>
<path d="M99.5 74.1842C104.516 74.1842 108.582 70.1194 108.582 65.1053C108.582 60.0911 104.516 56.0263 99.5 56.0263C94.4841 56.0263 90.418 60.0911 90.418 65.1053C90.418 70.1194 94.4841 74.1842 99.5 74.1842Z" fill="#8CBAFA"/>
<path d="M99.5 146.816C104.516 146.816 108.582 140.719 108.582 133.197C108.582 125.676 104.516 119.579 99.5 119.579C94.4841 119.579 90.418 125.676 90.418 133.197C90.418 140.719 94.4841 146.816 99.5 146.816Z" fill="#8CBAFA"/>
<path d="M63.1719 83.2632C68.1877 83.2632 72.2539 79.1984 72.2539 74.1842C72.2539 69.1701 68.1877 65.1053 63.1719 65.1053C58.156 65.1053 54.0898 69.1701 54.0898 74.1842C54.0898 79.1984 58.156 83.2632 63.1719 83.2632Z" fill="#8CBAFA"/>
<path d="M34.1094 99.6053C39.1252 99.6053 43.1914 95.5405 43.1914 90.5263C43.1914 85.5122 39.1252 81.4474 34.1094 81.4474C29.0935 81.4474 25.0273 85.5122 25.0273 90.5263C25.0273 95.5405 29.0935 99.6053 34.1094 99.6053Z" fill="#8CBAFA"/>
<path d="M164.891 78.4211C158.212 78.4211 152.781 83.8503 152.781 90.5263C152.781 92.4511 153.241 94.3274 154.101 96.013L143.369 105.57L140.481 85.3513C144.886 83.5083 147.938 79.1353 147.938 74.1842C147.938 67.5082 142.506 62.0789 135.828 62.0789C129.15 62.0789 123.719 67.5082 123.719 74.1842C123.719 76.8443 124.582 79.3743 126.144 81.4443L113.85 96.8089L106.245 75.1617C109.539 72.9495 111.609 69.1999 111.609 65.1053C111.609 58.4292 106.178 53 99.5 53C92.8217 53 87.3906 58.4292 87.3906 65.1053C87.3906 69.1999 89.4644 72.9495 92.7581 75.1587L85.1534 96.8059L72.8594 81.4443C74.4185 79.3743 75.2812 76.8443 75.2812 74.1842C75.2812 67.5082 69.8502 62.0789 63.1719 62.0789C56.4936 62.0789 51.0625 67.5082 51.0625 74.1842C51.0625 79.1353 54.1141 83.5083 58.5188 85.3543L55.6308 105.573L44.8988 96.0161C45.7586 94.3274 46.2188 92.4511 46.2188 90.5263C46.2188 83.8503 40.7877 78.4211 34.1094 78.4211C27.4311 78.4211 22 83.8503 22 90.5263C22 96.8725 26.9104 102.09 33.1315 102.589L41.4265 144.331C36.4919 145.859 32.8984 150.466 32.8984 155.895C32.8984 162.571 38.3295 168 45.0078 168H85.877C87.548 168 88.9043 166.644 88.9043 164.974C88.9043 163.303 87.548 161.947 85.877 161.947H45.0078C41.6687 161.947 38.9531 159.233 38.9531 155.895C38.9531 152.56 41.6656 149.848 44.9987 149.842H45.0018C45.0048 149.842 45.0108 149.842 45.0139 149.842H72.2539C73.925 149.842 75.2812 148.486 75.2812 146.816C75.2812 145.145 73.925 143.789 72.2539 143.789H47.4933L39.1015 101.554C39.7251 101.273 40.3275 100.937 40.8937 100.553C43.3155 102.71 57.8528 115.657 60.0113 117.579C68.8633 125.371 82.8163 121.731 86.7246 110.603L98.4707 77.1651C98.8128 77.1954 99.1549 77.2075 99.5 77.2075C99.8451 77.2075 100.187 77.1924 100.529 77.1651L112.278 110.603C116.193 121.749 130.149 125.365 139.007 117.566C147.193 110.276 141.174 115.693 158.109 100.549C158.679 100.934 159.278 101.27 159.902 101.551L151.507 143.789H126.746C125.075 143.789 123.719 145.145 123.719 146.816C123.719 148.486 125.075 149.842 126.746 149.842H153.983C153.986 149.842 153.992 149.842 153.995 149.842C153.998 149.842 153.998 149.842 154.001 149.842C157.337 149.845 160.047 152.56 160.047 155.895C160.047 159.233 157.331 161.947 153.992 161.947H113.123C111.452 161.947 110.096 163.303 110.096 164.974C110.096 166.644 111.452 168 113.123 168H153.992C160.671 168 166.102 162.571 166.102 155.895C166.102 150.466 162.508 145.859 157.574 144.331L165.868 102.589C172.09 102.09 177 96.8725 177 90.5263C177 83.8503 171.569 78.4211 164.891 78.4211ZM135.828 68.1316C139.167 68.1316 141.883 70.8462 141.883 74.1842C141.883 77.5071 139.152 80.2368 135.828 80.2368C132.525 80.2368 129.773 77.5586 129.773 74.1842C129.773 70.8462 132.489 68.1316 135.828 68.1316ZM99.5 59.0526C102.839 59.0526 105.555 61.7672 105.555 65.1053C105.555 68.41 102.882 71.1579 99.5 71.1579C96.1154 71.1579 93.4453 68.41 93.4453 65.1053C93.4453 61.7672 96.1608 59.0526 99.5 59.0526ZM63.1719 68.1316C66.511 68.1316 69.2266 70.8462 69.2266 74.1842C69.2266 77.5434 66.4929 80.2368 63.1719 80.2368C59.8146 80.2368 57.1172 77.4859 57.1172 74.1842C57.1172 70.8462 59.8327 68.1316 63.1719 68.1316ZM28.0547 90.5263C28.0547 87.1883 30.7702 84.4737 34.1094 84.4737C37.4485 84.4737 40.1641 87.1883 40.1641 90.5263C40.1641 93.822 37.4849 96.5789 34.1094 96.5789C30.7702 96.5789 28.0547 93.8643 28.0547 90.5263ZM64.0226 113.048L61.0527 110.403L64.51 86.2108C65.7603 86.0716 66.9833 85.7387 68.1276 85.2242L82.7891 103.539L81.012 108.596C78.5175 115.693 69.6564 118.008 64.0226 113.048ZM117.988 108.596L116.214 103.539L130.872 85.2242C132.017 85.7387 133.24 86.0716 134.49 86.2108L137.947 110.403L134.993 113.036C129.377 117.978 120.498 115.736 117.988 108.596ZM164.891 96.5789C161.539 96.5789 158.836 93.8492 158.836 90.5263C158.836 87.1883 161.551 84.4737 164.891 84.4737C168.23 84.4737 170.945 87.1883 170.945 90.5263C170.945 93.8643 168.23 96.5789 164.891 96.5789Z" fill="black"/>
<path d="M111.609 133.197C111.609 123.864 106.29 116.553 99.5 116.553C92.7097 116.553 87.3906 123.864 87.3906 133.197C87.3906 142.531 92.7097 149.842 99.5 149.842C106.29 149.842 111.609 142.531 111.609 133.197ZM99.5 143.789C96.6361 143.789 93.4453 139.441 93.4453 133.197C93.4453 126.954 96.6361 122.605 99.5 122.605C102.364 122.605 105.555 126.954 105.555 133.197C105.555 139.441 102.364 143.789 99.5 143.789Z" fill="black"/>
<path d="M99.5 168C101.172 168 102.527 166.645 102.527 164.974C102.527 163.302 101.172 161.947 99.5 161.947C97.828 161.947 96.4727 163.302 96.4727 164.974C96.4727 166.645 97.828 168 99.5 168Z" fill="black"/>
</g>
<defs>
<linearGradient id="paint0_linear" x1="181.271" y1="191.878" x2="40.7538" y2="51.5489" gradientUnits="userSpaceOnUse">
<stop stop-color="#FF8500"/>
<stop offset="1" stop-color="#FFC200"/>
</linearGradient>
<clipPath id="clip0">
<rect width="200" height="221" fill="white"/>
</clipPath>
</defs>
</svg>
