<svg width="233" height="604" viewBox="0 0 233 604" fill="none" xmlns="http://www.w3.org/2000/svg">
<path d="M233 130.526H0V190.808H233V130.526Z" fill="black"/>
<path d="M233 48.2263H0V109.033H233V48.2263Z" fill="#DD3401"/>
<path d="M196.963 0H35.9751V50.4402H196.963V0Z" fill="#D03202"/>
<path d="M196.963 48.6388H35.9751V99.079H196.963V48.6388Z" fill="#D03202"/>
<path d="M35.9749 97.2776H0V9.46484L35.9749 0V97.2776Z" fill="#DD3401"/>
<path d="M196.963 96.9767H232.938V9.43557L196.963 0V96.9767Z" fill="#DD3401"/>
<path d="M233 154.115H0V603.877H233V154.115Z" fill="#DD3401"/>
<path d="M225.743 168.434H7.19507V589.07H225.743V168.434Z" fill="#413539"/>
<path d="M221.246 172.938H11.6919V584.566H221.246V172.938Z" fill="#F9AD19"/>
<path opacity="0.3" d="M221.246 584.566H11.6919V172.938" fill="white"/>
<path d="M0 113.751V141.009L15.2873 149.921H217.713L233 141.009V113.751H0Z" fill="#DD3401"/>
<path d="M184.503 372.705L181.34 370.084L157.091 345.971L149.711 338.632L145.493 334.439L141.276 330.245L115.973 305.608L114.392 304.035C111.756 301.414 109.12 302.987 108.066 304.035H107.539L73.8012 337.06L71.6926 339.156L67.4754 343.35L66.9483 343.874L65.894 344.923C65.894 344.923 63.2582 348.592 66.9483 352.261L72.7469 358.028C73.274 358.552 74.3283 358.552 74.3283 358.028C75.3826 356.455 76.4369 354.882 77.4912 353.31C78.5455 352.261 79.5998 350.689 80.6541 349.64L81.1813 349.116C88.5614 341.253 99.1044 336.535 110.702 336.535C117.555 336.535 124.408 338.108 130.206 341.253C131.788 342.302 133.896 343.35 135.478 344.398C137.059 345.447 138.641 347.019 140.222 348.068C140.222 348.068 144.439 352.786 144.439 355.931C144.439 357.503 143.912 359.076 142.858 360.124C142.331 360.649 141.803 361.173 141.276 361.697C140.222 362.745 138.641 363.27 137.059 363.27C134.95 363.27 132.842 362.221 131.26 360.649C130.733 360.124 130.206 359.6 129.679 359.076C128.098 357.503 126.516 356.455 124.935 355.407C123.353 354.358 121.245 353.31 119.136 352.786C116.5 351.737 113.865 351.737 111.229 351.737C103.849 351.737 96.9958 354.882 92.2514 359.6C90.67 361.173 89.6157 362.221 88.5614 364.318C87.5071 366.415 86.4528 368.512 85.3985 370.608C84.8713 372.705 84.3442 375.326 84.3442 377.947C84.3442 380.568 84.8713 383.189 85.3985 385.286C85.9256 387.383 86.9799 389.48 88.0342 391.052C89.0885 392.625 90.67 394.722 91.7243 395.77C94.36 398.391 97.5229 400.488 101.213 401.536C104.376 402.585 107.539 403.109 110.702 403.109C113.337 403.109 115.973 402.585 118.082 402.06C120.19 401.536 122.826 400.488 124.408 398.915C125.989 397.867 127.57 396.818 129.152 395.246C131.788 393.149 133.369 390.004 134.95 386.859C135.478 385.286 134.423 383.713 132.842 383.713H119.136C119.136 383.713 119.136 383.713 118.609 383.713C118.082 383.713 118.082 383.713 117.555 383.713C117.027 383.713 116.5 383.713 116.5 383.713C112.81 383.189 110.174 380.044 110.174 376.375C110.174 372.181 113.337 369.036 117.555 369.036C117.555 369.036 144.966 369.036 145.493 369.036C148.656 369.56 151.819 372.181 152.346 375.326C152.346 375.85 152.346 376.899 152.346 377.423C152.346 379.52 151.819 381.617 151.819 383.713C150.238 392.101 146.021 399.439 140.222 405.206C138.641 406.778 137.586 407.827 136.005 408.875C134.423 410.448 132.315 411.496 130.206 412.544C124.408 415.689 118.082 417.262 111.229 417.262C103.849 417.262 96.4686 415.165 90.67 412.02C88.0342 410.448 85.3985 408.875 83.2899 406.778C82.7627 406.254 82.2356 406.254 82.2356 405.73C80.6541 404.157 79.5998 402.585 78.0184 401.012C76.9641 399.964 76.4369 398.915 75.9098 397.343C75.3826 395.77 73.8012 396.294 73.274 397.343L66.9483 403.633C65.894 404.681 64.3125 407.827 67.4754 411.496L107.539 450.811C108.593 451.859 111.756 453.432 114.919 450.811L141.276 424.601L146.021 419.883L150.238 415.69L183.975 381.617L185.03 380.568C186.611 378.996 187.138 374.802 184.503 372.705Z" fill="white"/>
<path d="M233 108.509H0V113.227H233V108.509Z" fill="black"/>
<path d="M0 108.509C26.8846 91.7347 57.9864 86.4927 120.19 86.4927C184.502 86.4927 222.984 96.9766 233 108.509H0Z" fill="url(#paint0_radial)"/>
<path d="M225.62 111.654C225.62 106.412 176.595 102.219 116.5 102.219C56.405 102.219 7.38013 106.412 7.38013 111.654C7.38013 112.179 8.43443 113.227 10.0159 113.751H223.511C224.566 113.227 225.62 112.179 225.62 111.654Z" fill="black"/>
<path d="M188.365 10.8086H44.5725C41.8111 10.8086 39.5725 13.0472 39.5725 15.8086V59.8517C39.5725 62.6131 41.8111 64.8517 44.5725 64.8517H188.365C191.127 64.8517 193.365 62.6131 193.365 59.8517V15.8086C193.365 13.0472 191.127 10.8086 188.365 10.8086Z" fill="#FFA41C"/>
<path d="M106.744 40.9593C106.771 40.9321 106.826 40.9321 106.853 40.9321C108.238 40.66 109.269 39.8981 110.002 38.7009C110.79 37.4221 110.953 36.0344 110.79 34.5651C110.545 32.3339 108.971 30.5108 106.853 29.9394C106.256 29.7762 105.631 29.6945 105.007 29.6673C102.807 29.5585 100.608 29.6401 98.4361 29.6129C98.1918 29.6129 98.1375 29.6945 98.1375 29.9122C98.1375 30.7013 98.1375 31.5176 98.1375 32.3066C98.1375 32.4971 98.1918 32.606 98.3275 32.742C98.7076 33.0957 99.0063 33.5039 99.2506 33.9664C100.717 36.4969 101.015 40.9865 98.2732 43.8435C98.1918 43.9524 98.1375 44.034 98.1375 44.1701C98.1375 44.9591 98.1375 45.7754 98.1375 46.5645C98.1375 46.755 98.1918 46.8366 98.409 46.8366C99.6308 46.8366 100.853 46.8366 102.074 46.8366C102.292 46.8366 102.319 46.755 102.319 46.5645C102.319 45.5033 102.319 44.4694 102.319 43.4082V41.3675H102.373C102.427 41.4491 102.482 41.5035 102.536 41.5851C103.731 43.2721 104.925 44.9591 106.12 46.6461C106.228 46.8094 106.337 46.8638 106.554 46.8638C108.02 46.8638 109.487 46.8638 110.953 46.8638C111.034 46.8638 111.116 46.891 111.197 46.8094C109.677 44.8775 108.183 42.9728 106.663 41.0682C106.717 40.9865 106.717 40.9865 106.744 40.9593ZM106.31 37.286C105.984 37.7758 105.495 38.0207 104.952 38.1567C104.436 38.2928 103.893 38.2928 103.513 38.2656C103.106 38.2656 102.862 38.2384 102.59 38.2656C102.373 38.2928 102.319 38.1839 102.319 37.9935C102.319 36.5786 102.319 35.1637 102.319 33.776C102.319 33.5583 102.373 33.5039 102.59 33.5039C103.35 33.5311 104.111 33.4495 104.871 33.6127C106.554 33.9936 107.26 35.8439 106.31 37.286Z" fill="white"/>
<path d="M98.0287 33.3406C95.3408 29.7217 91.0781 29.0414 87.467 30.1298C87.3041 30.1842 87.2498 30.2659 87.2498 30.4291C87.2498 31.4631 87.2498 32.4699 87.2498 33.5038C87.2498 33.8031 87.1955 33.8848 86.8968 33.8848C86.028 33.8575 85.1592 33.8848 84.2903 33.8848C83.8288 33.8848 83.8831 33.8303 83.8831 34.2657C83.8831 35.8439 83.8831 37.422 83.8831 39.0002C83.8831 40.5783 83.8831 42.1293 83.8831 43.7074C83.8831 43.9795 83.9645 44.17 84.1546 44.3333C86.2452 46.2652 88.7159 46.9726 91.5125 46.7549C95.6394 46.4012 99.332 43.0816 99.5492 38.8641C99.6578 36.8506 99.2505 34.9731 98.0287 33.3406ZM93.3859 42.1293C91.0509 44.0068 87.467 42.9728 86.3267 40.143C85.4307 37.9118 86.1909 35.3269 88.0915 34.0752C88.8517 33.5854 89.6934 33.3678 90.6437 33.3678C93.1959 33.3134 94.9878 35.4357 95.1779 37.6125C95.3408 39.4355 94.7978 40.9593 93.3859 42.1293Z" fill="white"/>
<path d="M123.687 36.7147C123.225 33.9665 121.623 32.0346 119.261 30.7285C117.469 29.7218 115.541 29.5313 113.532 29.7218C112.283 29.8578 111.116 30.2388 110.03 30.919C109.867 31.0278 109.84 31.0823 109.975 31.2455C110.79 32.2523 111.333 33.3679 111.55 34.7011C111.659 34.6195 111.74 34.5379 111.822 34.4835C113.288 33.3679 114.917 33.0141 116.627 33.7488C118.284 34.4563 119.18 35.7895 119.397 37.5582C119.641 39.4628 119.044 41.041 117.523 42.2382C115.541 43.7892 111.632 43.4354 110.41 39.8438C110.383 39.7349 110.383 39.6261 110.274 39.5173C109.568 40.2519 108.754 40.7961 107.776 41.1498C107.803 41.2043 107.803 41.2315 107.83 41.2587C109.215 42.9457 110.627 44.6599 112.012 46.3469C112.093 46.4557 112.229 46.5101 112.337 46.5374C114.048 46.9455 115.731 46.9455 117.415 46.4829C121.813 45.2313 124.447 41.177 123.687 36.7147Z" fill="white"/>
<path d="M83.2856 46.4283C83.2856 42.1563 83.2856 37.9116 83.2856 33.6397C83.2856 33.3948 83.3399 33.3132 83.6114 33.3132C84.5346 33.3404 85.4577 33.3132 86.3537 33.3132C86.5709 33.3132 86.6252 33.2588 86.6252 33.0411C86.6252 32.0071 86.6252 30.946 86.6252 29.912C86.6252 29.6943 86.5709 29.6399 86.3537 29.6399C82.8512 29.6399 79.3216 29.6399 75.8191 29.6399C75.6019 29.6399 75.5476 29.7215 75.5476 29.912C75.5476 30.946 75.5476 31.9799 75.5476 33.0139C75.5476 33.2316 75.6019 33.3132 75.8191 33.3132C76.7422 33.286 77.6654 33.3132 78.5614 33.3132C78.8329 33.3132 78.8872 33.3948 78.8872 33.6669C78.8872 35.8165 78.8872 37.9388 78.8872 40.0884C78.8872 42.238 78.8872 44.3875 78.8872 46.5371C78.8872 46.8092 78.9686 46.8636 79.213 46.8636C80.4348 46.8636 81.6294 46.8636 82.8512 46.8636C83.2856 46.8092 83.2856 46.8092 83.2856 46.4283Z" fill="white"/>
<path d="M156.62 36.905L155.779 36.0615L148.692 29.0414L146.52 26.8918L145.298 25.6946L144.049 24.443L136.637 17.1236L136.121 16.6338C135.361 15.8719 134.519 16.3345 134.302 16.5522L134.166 16.661L134.139 16.6882L124.474 26.3204L123.876 26.9191L122.709 28.0891C122.709 28.0891 122.6 28.1979 122.519 28.2795L122.247 28.5516C122.247 28.5516 121.433 29.6128 122.519 30.7012L124.202 32.3882C124.365 32.5515 124.637 32.5242 124.745 32.3066C124.989 31.844 125.288 31.4087 125.587 31.0005C125.858 30.6196 126.157 30.2658 126.483 29.9393C126.537 29.8849 126.591 29.8033 126.646 29.7489C128.845 27.5177 131.913 26.1028 135.28 26.1028C137.343 26.1028 139.271 26.6198 140.954 27.5177C141.497 27.7898 142.013 28.1163 142.475 28.47C142.936 28.8237 143.371 29.2047 143.778 29.6128C143.778 29.6128 145.027 30.9189 145.027 31.8712C145.027 32.361 144.864 32.7963 144.592 33.1501C144.457 33.3133 144.321 33.4766 144.131 33.6126C143.778 33.8847 143.316 34.048 142.828 34.048C142.176 34.048 141.579 33.7487 141.199 33.2861L141.171 33.2317C141.009 33.0412 140.846 32.878 140.683 32.7147C140.275 32.3066 139.814 31.9256 139.298 31.6263C138.755 31.2998 138.185 31.0277 137.588 30.8372C136.854 30.5924 136.067 30.4835 135.253 30.4835C133.08 30.4835 131.126 31.3814 129.714 32.8236C129.334 33.2317 128.981 33.6671 128.682 34.1296C128.329 34.7282 128.03 35.3541 127.84 36.0343V36.0615C127.65 36.7145 127.542 37.422 127.542 38.1566V38.2111C127.542 38.9729 127.65 39.7076 127.867 40.4151V40.4695C128.058 41.0681 128.329 41.6395 128.655 42.1837C128.981 42.7007 129.361 43.1904 129.795 43.6258C130.555 44.3877 131.451 44.9863 132.483 45.3672C133.352 45.6937 134.275 45.8842 135.253 45.8842C136.013 45.8842 136.746 45.7754 137.425 45.5849C138.103 45.3944 138.755 45.0951 139.325 44.7142C139.787 44.4149 140.248 44.0884 140.628 43.6802C141.334 43 141.905 42.1837 142.312 41.2586C142.475 40.8504 142.176 40.4151 141.742 40.4151H137.723C137.696 40.4151 137.669 40.4151 137.642 40.4151C137.56 40.4151 137.452 40.4423 137.37 40.4423H137.343C137.235 40.4423 137.099 40.4423 136.99 40.4151C135.958 40.2518 135.171 39.3539 135.171 38.2655V38.2383L135.144 38.2111H135.171C135.198 37.0683 136.121 36.1159 137.289 36.0887C137.289 36.0887 145.326 36.0615 145.407 36.0615C146.412 36.1703 147.199 36.9322 147.335 37.9118C147.362 38.0206 147.335 38.4287 147.335 38.5648V38.6192C147.308 39.245 147.253 39.8436 147.145 40.4151C146.683 42.8911 145.461 45.0407 143.724 46.7277C143.344 47.1086 142.963 47.4351 142.502 47.7617C141.959 48.1698 141.416 48.5235 140.791 48.8228C139.135 49.6663 137.262 50.1561 135.28 50.1561C133.08 50.1561 131.044 49.5847 129.279 48.5507C128.492 48.0882 127.786 47.5712 127.134 46.9726C126.999 46.8637 126.89 46.7549 126.781 46.6189C126.347 46.1835 125.94 45.7209 125.587 45.2312C125.342 44.8774 125.098 44.6053 124.908 44.2244C124.691 43.8163 124.365 43.9795 124.175 44.17L122.329 45.993C122.084 46.2379 121.487 47.2175 122.519 48.2514L134.166 59.7883C134.411 60.0332 135.47 60.6046 136.284 59.7611L143.968 52.088L145.353 50.7003L146.52 49.5303L156.376 39.4899L156.729 39.1362C157.245 38.6736 157.326 37.5308 156.62 36.905Z" fill="white"/>
<defs>
<radialGradient id="paint0_radial" cx="0" cy="0" r="1" gradientUnits="userSpaceOnUse" gradientTransform="translate(116.563 97.7072) scale(92.6649 37.2731)">
<stop offset="0.6718" stop-opacity="0.5"/>
<stop offset="0.7123" stop-color="#320A00" stop-opacity="0.5841"/>
<stop offset="0.7638" stop-color="#6B1500" stop-opacity="0.6908"/>
<stop offset="0.8114" stop-color="#991D00" stop-opacity="0.7896"/>
<stop offset="0.8536" stop-color="#B92400" stop-opacity="0.8772"/>
<stop offset="0.8889" stop-color="#CD2800" stop-opacity="0.9503"/>
<stop offset="0.9128" stop-color="#D42900"/>
</radialGradient>
</defs>
</svg>
