<svg width="326" height="671" viewBox="0 0 326 671" fill="none" xmlns="http://www.w3.org/2000/svg">
<g clip-path="url(#clip0)">
<path d="M259.069 144.913H0V211.84H259.069V144.913Z" fill="black"/>
<path d="M259.069 53.542H0V121.051H259.069V53.542Z" fill="#DD3401"/>
<path d="M188.734 0H70.3354V55.8699H188.734V0Z" fill="#DD3401"/>
<path d="M70.3355 107.666H0V10.4756L70.3355 0V107.666Z" fill="#DD3401"/>
<path d="M188.733 107.666H259.069V10.4756L188.733 0V107.666Z" fill="#DD3401"/>
<path d="M259.069 171.102H0V670.439H259.069V171.102Z" fill="#DD3401"/>
<path d="M250.864 186.815H8.20605V654.144H250.864V186.815Z" fill="#413539"/>
<path d="M234.452 200.201H24.0312V637.849H234.452V200.201Z" fill="#F9AD19"/>
<path d="M271.964 529.018H264.93V277.022H271.964C280.17 277.022 286.617 283.423 286.617 291.571V514.469C287.203 522.617 280.17 529.018 271.964 529.018Z" fill="#DD3401"/>
<path d="M267.275 277.022H255.552V529.018H267.275V277.022Z" fill="#DD3401"/>
<path opacity="0.3" d="M235.038 637.849H24.0312V200.201" fill="white"/>
<path d="M0 126.289V156.552L16.9977 166.446H242.071L259.069 156.552V126.289H0Z" fill="#DD3401"/>
<path d="M116.639 48.304C118.984 47.722 120.156 46.5581 121.328 45.3941C122.501 43.6482 122.501 41.9022 122.501 39.5743C121.915 36.6644 120.156 33.7545 117.226 33.1726C116.639 33.1726 115.467 32.5906 114.881 32.5906C111.95 32.5906 109.02 32.5906 105.503 32.5906C104.917 32.5906 104.917 32.5906 104.917 33.1726C104.917 34.3365 104.917 35.5005 104.917 36.6644V37.2464C105.503 37.8284 105.503 38.4104 106.089 38.9923C107.847 42.4842 108.434 48.886 104.917 52.3778C104.917 52.3778 104.917 52.3778 104.917 52.9598C104.917 54.1238 104.917 55.2877 104.917 56.4517C104.917 56.4517 104.917 57.0337 105.503 57.0337C107.261 57.0337 109.02 57.0337 110.778 57.0337C111.364 57.0337 111.364 57.0337 111.364 56.4517C111.364 55.2877 111.364 53.5418 111.364 52.3778V48.886C111.364 48.886 111.364 48.886 111.364 49.4679C113.123 51.7959 114.881 54.1238 116.053 56.4517L116.639 57.0337C118.398 57.0337 120.742 57.0337 122.501 57.0337C122.501 57.0337 122.501 57.0337 123.087 57.0337C120.742 53.5418 118.398 51.2139 116.639 48.304ZM116.053 43.0662C115.467 43.6482 114.881 44.2301 114.295 44.2301C113.709 44.2301 113.123 44.2301 112.536 44.2301C111.95 44.2301 111.364 44.2301 111.364 44.2301C110.778 44.2301 110.778 44.2301 110.778 43.6482C110.778 41.9022 110.778 39.5743 110.778 37.8284C110.778 37.2464 110.778 37.2464 111.364 37.2464C112.536 37.2464 113.709 37.2464 114.295 37.2464C116.053 38.9923 117.225 41.3202 116.053 43.0662Z" fill="black"/>
<path d="M104.331 37.8285C100.814 32.5907 94.9531 32.0087 89.678 33.1727C89.678 33.1727 89.0919 33.1727 89.0919 33.7546C89.0919 34.9186 89.0919 36.6645 89.0919 37.8285C89.0919 38.4105 89.0919 38.4105 88.5057 38.4105C87.3335 38.4105 86.1612 38.4105 84.989 38.4105C84.4028 38.4105 84.4028 38.4105 84.4028 38.9924C84.4028 41.3204 84.4028 43.0663 84.4028 45.3942C84.4028 47.7221 84.4028 49.4681 84.4028 51.796C84.4028 52.3779 84.4028 52.3779 84.989 52.3779C87.9196 55.2878 91.4364 55.8698 94.9531 55.8698C100.814 55.2878 105.503 50.632 106.09 45.3942C106.676 42.4843 106.09 40.1564 104.331 37.8285ZM97.8838 50.05C94.9531 52.3779 89.678 51.214 87.9196 47.1401C86.7473 44.2303 87.9196 40.7384 90.2641 38.9924C91.4364 38.4105 92.6086 37.8285 93.7809 37.8285C97.2977 37.8285 99.6422 40.7384 100.228 43.6483C100.814 46.5582 100.228 48.3041 97.8838 50.05Z" fill="black"/>
<path d="M140.085 42.4843C139.499 38.9924 137.154 36.0825 134.224 34.3366C131.879 33.1727 128.949 32.5907 126.018 33.1726C124.26 33.1726 122.501 33.7546 121.329 34.9186C121.329 34.9186 121.329 34.9186 121.329 35.5006C121.915 36.6645 123.087 37.8285 123.087 39.5744C123.087 39.5744 123.087 39.5744 123.674 38.9924C125.432 37.2465 127.776 37.2465 130.121 37.8285C132.465 38.9924 133.638 40.7384 134.224 43.0663C134.81 45.3942 133.638 47.7221 131.879 49.468C128.949 52.3779 123.087 51.7959 121.329 46.5581V45.9762C120.157 47.1401 118.985 47.7221 117.812 48.3041C119.571 50.632 121.915 52.9599 123.674 55.2878C123.674 55.2878 123.674 55.2878 124.26 55.2878C126.604 55.8698 128.949 55.8698 131.293 55.2878C137.154 54.1239 141.257 48.8861 140.085 42.4843Z" fill="black"/>
<path d="M83.8164 55.8697C83.8164 50.0499 83.8164 44.2301 83.8164 38.4104C83.8164 37.8284 83.8164 37.8284 84.4026 37.8284C85.5748 37.8284 86.7471 37.8284 88.5055 37.8284C88.5055 37.8284 89.0916 37.8284 89.0916 37.2464C89.0916 36.0824 89.0916 34.3365 89.0916 33.1726C89.0916 33.1726 89.0916 32.5906 88.5055 32.5906C83.8164 32.5906 78.5413 32.5906 73.8522 32.5906C73.2661 32.5906 73.2661 32.5906 73.2661 33.1726C73.2661 34.3365 73.2661 36.0824 73.2661 37.2464C73.2661 37.8284 73.2661 37.8284 73.8522 37.8284C75.0245 37.8284 76.1968 37.8284 77.9551 37.8284C78.5413 37.8284 78.5413 37.8284 78.5413 38.4104C78.5413 41.3203 78.5413 44.2301 78.5413 47.14C78.5413 50.0499 78.5413 52.9598 78.5413 55.8697C78.5413 56.4517 78.5413 56.4517 79.1274 56.4517C80.2997 56.4517 82.0581 56.4517 83.8164 55.8697C83.8164 56.4517 83.8164 56.4517 83.8164 55.8697Z" fill="black"/>
<path d="M185.216 43.0663L184.044 41.9024L174.08 32.0087L171.735 29.0988L169.977 27.3529L168.219 25.607L158.254 15.7133L157.668 15.1314C156.496 13.9674 155.324 14.5494 155.324 15.1314L141.843 28.5169L140.084 29.0988L138.326 30.8448L137.74 31.4268C137.74 31.4268 136.568 32.5907 138.326 34.3367L140.671 36.6646H141.257C141.843 36.0826 141.843 35.5006 142.429 34.9186C143.015 34.3367 143.015 33.7547 143.601 33.1727C146.532 30.2628 150.635 27.9349 155.324 27.9349C158.254 27.9349 160.599 28.5169 162.944 29.6808C163.53 30.2628 164.116 30.2628 165.288 30.8448C165.874 31.4268 166.46 32.0087 167.046 32.5907C167.046 32.5907 168.805 34.3367 168.805 35.5006C168.805 36.0826 168.805 36.6646 168.219 37.2465L167.633 37.8285C167.046 38.4105 166.46 38.4105 165.874 38.4105C164.702 38.4105 164.116 37.8285 163.53 37.2465L162.944 36.6646C162.357 36.0826 161.771 35.5006 161.185 34.9186C160.599 34.9186 160.013 34.9186 159.427 34.3367C158.254 33.7547 157.082 33.7547 156.496 33.7547C153.565 33.7547 150.635 34.9186 148.876 37.2465C148.29 37.8285 147.704 38.4105 147.704 38.9925C146.532 39.5745 145.946 40.7384 145.946 41.9024C145.946 43.0663 145.36 43.6483 145.36 44.8123C145.36 45.9762 145.36 47.1402 145.946 47.7222C145.946 48.3041 146.532 49.4681 147.118 50.0501C147.704 50.6321 148.29 51.214 148.876 51.796C150.049 52.96 151.221 53.5419 152.393 54.1239C153.565 54.7059 154.738 54.7059 156.496 54.7059C157.668 54.7059 158.254 54.7059 159.427 54.1239C160.599 54.1239 161.185 53.542 162.357 52.96C162.357 52.96 162.944 52.378 163.53 52.378C164.702 51.214 165.288 50.0501 165.874 48.8861C165.874 48.3041 165.874 47.7222 165.288 47.7222H160.013C160.013 47.7222 160.013 47.7222 159.427 47.7222H158.841C157.668 47.7222 156.496 45.9762 156.496 44.8123C156.496 43.0663 157.668 41.9024 159.427 41.9024H170.563C171.735 41.9024 172.908 43.0663 173.494 44.2303C173.494 44.2303 173.494 44.8123 173.494 45.3942C173.494 45.9762 173.494 47.1402 173.494 47.7222C172.908 51.214 171.149 54.1239 168.805 56.4518C168.219 57.0338 167.633 57.6158 167.046 57.6158C166.46 58.1978 165.288 58.7798 164.702 59.3617C162.357 60.5257 160.013 61.1077 157.082 61.1077C154.152 61.1077 151.221 60.5257 148.876 58.7798C146.532 58.1978 145.946 57.6158 144.774 56.4518L144.187 55.8699C143.601 55.2879 143.015 54.7059 142.429 54.1239C141.843 53.5419 141.843 53.542 141.257 52.96C141.257 52.378 140.671 52.378 140.671 52.96L138.326 55.2879C137.74 55.8699 137.154 57.0338 138.326 58.1978L154.152 73.9112C154.738 74.4932 155.91 75.0752 157.082 73.9112L167.633 63.4356L169.391 61.6897L171.149 59.9437L185.216 46.5582L185.803 45.9762C186.389 45.3942 186.389 43.6483 185.216 43.0663Z" fill="black"/>
<path d="M205.145 413.787L201.629 410.877L174.667 384.106L166.461 375.958L161.772 371.302L157.083 366.646L128.949 339.293L127.19 337.548C124.259 334.638 121.329 336.384 120.157 337.548H119.57L82.0582 374.212L79.7137 376.54L75.0247 381.196L74.4385 381.778L73.2663 382.942C73.2663 382.942 70.3356 387.016 74.4385 391.09L80.8859 397.491C81.4721 398.073 82.6443 398.073 82.6443 397.491C83.8166 395.745 84.9888 393.999 86.1611 392.254C87.3334 391.09 88.5056 389.344 89.6779 388.18L90.264 387.598C98.4698 378.868 110.192 373.63 123.087 373.63C130.707 373.63 138.327 375.376 144.774 378.868C146.532 380.032 148.877 381.196 150.635 382.36C152.394 383.524 154.152 385.27 155.91 386.434C155.91 386.434 160.599 391.672 160.599 395.163C160.599 396.909 160.013 398.655 158.841 399.819C158.255 400.401 157.669 400.983 157.083 401.565C155.91 402.729 154.152 403.311 152.394 403.311C150.049 403.311 147.705 402.147 145.946 400.401C145.36 399.819 144.774 399.237 144.188 398.655C142.429 396.909 140.671 395.745 138.913 394.581C137.154 393.417 134.81 392.254 132.465 391.672C129.535 390.508 126.604 390.508 123.673 390.508C115.468 390.508 107.848 393.999 102.573 399.237C100.814 400.983 99.6421 402.147 98.4698 404.475C97.2975 406.803 96.1253 409.131 94.953 411.459C94.3669 413.787 93.7808 416.697 93.7808 419.607C93.7808 422.516 94.3669 425.426 94.953 427.754C95.5392 430.082 96.7114 432.41 97.8837 434.156C99.0559 435.902 100.814 438.23 101.987 439.394C104.917 442.304 108.434 444.632 112.537 445.796C116.054 446.96 119.57 447.542 123.087 447.542C126.018 447.542 128.949 446.959 131.293 446.378C133.638 445.796 136.568 444.632 138.327 442.886C140.085 441.722 141.843 440.558 143.602 438.812C146.532 436.484 148.291 432.992 150.049 429.5C150.635 427.754 149.463 426.008 147.705 426.008H132.465C132.465 426.008 132.465 426.008 131.879 426.008C131.293 426.008 131.293 426.008 130.707 426.008C130.121 426.008 129.535 426.008 129.535 426.008C125.432 425.426 122.501 421.934 122.501 417.861C122.501 413.205 126.018 409.713 130.707 409.713C130.707 409.713 161.186 409.713 161.772 409.713C165.289 410.295 168.805 413.205 169.391 416.697C169.391 417.279 169.391 418.443 169.391 419.025C169.391 421.352 168.805 423.68 168.805 426.008C167.047 435.32 162.358 443.468 155.91 449.869C154.152 451.615 152.98 452.779 151.221 453.943C149.463 455.689 147.119 456.853 144.774 458.017C138.327 461.509 131.293 463.255 123.673 463.255C115.468 463.255 107.262 460.927 100.814 457.435C97.8837 455.689 94.953 453.943 92.6085 451.615C92.0224 451.033 91.4363 451.033 91.4363 450.451C89.6779 448.705 88.5056 446.96 86.7472 445.214C85.575 444.05 84.9888 442.886 84.4027 441.14C83.8166 439.394 82.0582 439.976 81.4721 441.14L74.4385 448.123C73.2663 449.287 71.5079 452.779 75.0247 456.853L119.57 500.502C120.743 501.665 124.259 503.411 127.776 500.502L157.083 471.403L162.358 466.165L167.047 461.509L204.559 423.68L205.731 422.516C207.49 420.77 208.076 416.115 205.145 413.787Z" fill="white"/>
<path d="M259.069 120.47H0V125.707H259.069V120.47Z" fill="black"/>
<path d="M0 120.469C29.8926 101.846 64.4742 96.0264 133.637 96.0264C205.145 96.0264 247.933 107.666 259.069 120.469H0Z" fill="url(#paint0_radial)"/>
<path d="M250.864 123.962C250.864 118.142 196.354 113.486 129.535 113.486C62.7161 113.486 8.20605 118.142 8.20605 123.962C8.20605 124.544 9.37831 125.708 11.1367 126.289H248.519C249.691 125.708 250.864 124.544 250.864 123.962Z" fill="black"/>
<path d="M36.2837 94.2804H240.257C250.221 94.2804 258.427 102.428 258.427 112.322V125.707H36.2837V94.2804Z" fill="#C4C4C4"/>
<path d="M62.0728 125.707H113.652V240.357C113.652 253.742 103.102 264.218 89.6208 264.218H86.104C72.6231 264.218 62.0728 253.742 62.0728 240.357V125.707Z" fill="#C4C4C4"/>
<path d="M309.419 125.707H302.385H87.8621V264.218H304.73C306.488 264.218 308.247 264.218 310.005 263.636C321.728 261.308 330.52 250.832 330.52 238.611V169.355V155.388V125.707H309.419Z" fill="#E6E6E6"/>
<path d="M62.0728 125.707H10.4934V118.141C10.4934 104.756 21.0437 94.2804 34.5247 94.2804H38.0415C51.5224 94.2804 62.0728 104.756 62.0728 118.141V125.707Z" fill="#E6E6E6"/>
<path d="M305.902 226.971H142.372C139.442 226.971 136.511 229.299 136.511 232.791V233.373C136.511 236.283 138.856 239.193 142.372 239.193H305.902C308.833 239.193 311.764 236.865 311.764 233.373V232.791C311.178 229.881 308.833 226.971 305.902 226.971Z" fill="#C4C4C4"/>
<path d="M233.808 202.529H142.372C139.442 202.529 136.511 204.856 136.511 208.348V208.93C136.511 211.84 138.856 214.75 142.372 214.75H233.808C236.739 214.75 239.67 212.422 239.67 208.93V208.348C239.67 204.856 236.739 202.529 233.808 202.529Z" fill="#C4C4C4"/>
<path d="M277.182 178.085H142.372C139.442 178.085 136.511 180.413 136.511 183.905V184.487C136.511 187.397 138.856 190.307 142.372 190.307H276.596C279.527 190.307 282.457 187.979 282.457 184.487V183.905C282.457 180.413 280.113 178.085 277.182 178.085Z" fill="#C4C4C4"/>
</g>
<defs>
<radialGradient id="paint0_radial" cx="0" cy="0" r="1" gradientUnits="userSpaceOnUse" gradientTransform="translate(129.605 108.477) scale(103.033 41.3816)">
<stop offset="0.6718" stop-opacity="0.5"/>
<stop offset="0.7123" stop-color="#320A00" stop-opacity="0.5841"/>
<stop offset="0.7638" stop-color="#6B1500" stop-opacity="0.6908"/>
<stop offset="0.8114" stop-color="#991D00" stop-opacity="0.7896"/>
<stop offset="0.8536" stop-color="#B92400" stop-opacity="0.8772"/>
<stop offset="0.8889" stop-color="#CD2800" stop-opacity="0.9503"/>
<stop offset="0.9128" stop-color="#D42900"/>
</radialGradient>
<clipPath id="clip0">
<rect width="325.302" height="670.439" fill="white"/>
</clipPath>
</defs>
</svg>
