<svg width="200" height="222" viewBox="0 0 200 222" fill="none" xmlns="http://www.w3.org/2000/svg">
<path d="M83.4875 4.40463L16.4928 43.1496C6.29797 49.0618 0 59.9798 0 71.7649V149.215C0 161.04 6.29797 171.958 16.4928 177.87L83.4481 216.576C93.6824 222.488 106.239 222.488 116.473 216.576L183.428 177.87C193.663 171.958 199.921 161.04 199.921 149.215V71.7649C199.921 59.9404 193.623 49.0224 183.428 43.1102L116.512 4.40463C106.278 -1.46821 93.7217 -1.46821 83.4875 4.40463Z" fill="url(#paint0_linear)"/>
<path d="M151.04 50.5V171.5H49.5V50.5H151.04Z" fill="#D9EAFC" stroke="black" stroke-width="5"/>
<path d="M140.799 64.4733H118.238C116.895 64.4733 115.806 63.3835 115.806 62.0407C115.806 60.6979 116.895 59.6082 118.238 59.6082H140.799C142.142 59.6082 143.232 60.6979 143.232 62.0407C143.232 63.3867 142.145 64.4733 140.799 64.4733Z" fill="#DB722C"/>
<path d="M140.799 72.744H118.238C116.895 72.744 115.806 71.6542 115.806 70.3115C115.806 68.9687 116.895 67.8789 118.238 67.8789H140.799C142.142 67.8789 143.232 68.9687 143.232 70.3115C143.232 71.6542 142.145 72.744 140.799 72.744Z" fill="#DB722C"/>
<path d="M140.799 81.0147H118.238C116.895 81.0147 115.806 79.9249 115.806 78.5821C115.806 77.2393 116.895 76.1495 118.238 76.1495H140.799C142.142 76.1495 143.232 77.2393 143.232 78.5821C143.232 79.9249 142.145 81.0147 140.799 81.0147Z" fill="#DB722C"/>
<path d="M140.799 89.2854H118.238C116.895 89.2854 115.806 88.1956 115.806 86.8528C115.806 85.5101 116.895 84.4203 118.238 84.4203H140.799C142.142 84.4203 143.232 85.5101 143.232 86.8528C143.232 88.1956 142.145 89.2854 140.799 89.2854Z" fill="#DB722C"/>
<path d="M98.7361 147.015H60.7363C59.3935 147.015 58.3037 145.925 58.3037 144.582C58.3037 143.239 59.3935 142.15 60.7363 142.15H98.7361C100.079 142.15 101.169 143.239 101.169 144.582C101.169 145.925 100.079 147.015 98.7361 147.015Z" fill="#52BBEF"/>
<path d="M98.7356 155.286H60.7358C59.393 155.286 58.3032 154.196 58.3032 152.853C58.3032 151.51 59.393 150.42 60.7358 150.42H98.7356C100.078 150.42 101.168 151.51 101.168 152.853C101.168 154.196 100.078 155.286 98.7356 155.286Z" fill="#52BBEF"/>
<path d="M98.7356 163.556H60.7358C59.393 163.556 58.3032 162.466 58.3032 161.124C58.3032 159.781 59.393 158.691 60.7358 158.691H98.7356C100.078 158.691 101.168 159.781 101.168 161.124C101.168 162.466 100.078 163.556 98.7356 163.556Z" fill="#52BBEF"/>
<path d="M140.799 103.719H106.183C104.84 103.719 103.75 102.629 103.75 101.286C103.75 99.9432 104.84 98.8534 106.183 98.8534H140.799C142.142 98.8534 143.232 99.9432 143.232 101.286C143.232 102.629 142.145 103.719 140.799 103.719Z" fill="#FE3745"/>
<path d="M140.799 111.989H106.183C104.84 111.989 103.75 110.899 103.75 109.557C103.75 108.214 104.84 107.124 106.183 107.124H140.799C142.142 107.124 143.232 108.214 143.232 109.557C143.232 110.899 142.145 111.989 140.799 111.989Z" fill="#FE3745"/>
<path d="M140.799 120.26H106.183C104.84 120.26 103.75 119.17 103.75 117.827C103.75 116.485 104.84 115.395 106.183 115.395H140.799C142.142 115.395 143.232 116.485 143.232 117.827C143.232 119.17 142.145 120.26 140.799 120.26Z" fill="#FE3745"/>
<path d="M140.799 128.527H106.183C104.84 128.527 103.75 127.438 103.75 126.095C103.75 124.752 104.84 123.662 106.183 123.662H140.799C142.142 123.662 143.232 124.752 143.232 126.095C143.232 127.438 142.145 128.527 140.799 128.527Z" fill="#FE3745"/>
<path d="M56.3701 117.98H65.8538C65.8538 112.742 70.0995 108.496 75.3376 108.496V99.0123C64.8614 99.0091 56.3701 107.504 56.3701 117.98Z" fill="#FE3745"/>
<path d="M80.1477 94.1991V103.683C85.3858 103.683 89.6314 107.928 89.6314 113.167H99.1152C99.1152 102.69 90.6239 94.1991 80.1477 94.1991Z" fill="#91E0E8"/>
<path d="M84.8213 117.98C84.8213 123.218 80.5757 127.464 75.3376 127.464C70.0995 127.464 65.8538 123.218 65.8538 117.98H56.3701C56.3701 128.456 64.8646 136.947 75.3376 136.947C85.8138 136.947 94.305 128.456 94.305 117.98H84.8213Z" fill="#FFAF10"/>
<path d="M67.2615 85.3382V62.6895C67.2615 62.1543 66.8237 61.7164 66.2885 61.7164H60.392C59.8568 61.7164 59.4189 62.1543 59.4189 62.6895V85.3382H67.2615Z" fill="#FFAF10"/>
<path d="M79.95 85.3382V68.8519C79.95 68.3167 79.5121 67.8789 78.977 67.8789H73.0804C72.5453 67.8789 72.1074 68.3167 72.1074 68.8519V85.3382H79.95Z" fill="#FE3745"/>
<path d="M92.638 85.3381V76.3117C92.638 75.7766 92.2001 75.3387 91.665 75.3387H85.7684C85.2333 75.3387 84.7954 75.7766 84.7954 76.3117V85.3381H92.638Z" fill="#37C47A"/>
<path d="M105.323 85.3382V62.6894C105.323 62.1543 104.885 61.7164 104.35 61.7164H98.4535C97.9183 61.7164 97.4805 62.1543 97.4805 62.6894V85.3382H105.323Z" fill="#91E0E8"/>
<path d="M129.289 151.695C129.289 151.16 129.726 150.722 130.262 150.722H134.66V139.837C134.66 138.945 133.93 138.215 133.038 138.215H118.404C117.512 138.215 116.782 138.945 116.782 139.837V154.471C116.782 155.363 117.512 156.093 118.404 156.093H129.289V151.695Z" fill="#FE3745"/>
<path d="M140.8 160.614C140.8 161.506 140.07 162.236 139.178 162.236H130.258C129.366 162.236 128.637 161.506 128.637 160.614V151.695C128.637 150.803 129.366 150.073 130.258 150.073H139.178C140.07 150.073 140.8 150.803 140.8 151.695V160.614Z" fill="#37C47A"/>
<path d="M107 89.2854H57.7421C56.3994 89.2854 55.3096 88.1956 55.3096 86.8528C55.3096 85.5101 56.3994 84.4203 57.7421 84.4203H107C108.343 84.4203 109.432 85.5101 109.432 86.8528C109.432 88.1956 108.346 89.2854 107 89.2854Z" fill="#52BBEF"/>
<defs>
<linearGradient id="paint0_linear" x1="181.271" y1="191.878" x2="40.7538" y2="51.5489" gradientUnits="userSpaceOnUse">
<stop stop-color="#FF8500"/>
<stop offset="1" stop-color="#FFC200"/>
</linearGradient>
</defs>
</svg>
