<svg width="200" height="221" viewBox="0 0 200 221" fill="none" xmlns="http://www.w3.org/2000/svg">
<g clip-path="url(#clip0)">
<path d="M83.4875 4.41531L16.4928 43.1603C6.29797 49.0725 0 59.9905 0 71.7756V149.226C0 161.051 6.29797 171.969 16.4928 177.881L83.4481 216.586C93.6824 222.499 106.239 222.499 116.473 216.586L183.428 177.881C193.663 171.969 199.921 161.051 199.921 149.226V71.7756C199.921 59.9511 193.623 49.0331 183.428 43.1209L116.512 4.41531C106.278 -1.45753 93.7217 -1.45753 83.4875 4.41531Z" fill="url(#paint0_linear)"/>
</g>
<path d="M156.522 64.3167V71.7666C156.522 78.6238 150.973 84.1833 144.13 84.1833C137.287 84.1833 131.739 78.6238 131.739 71.7666V64.3167H156.522Z" fill="#FEE9AB"/>
<path d="M144.13 84.1833H116.87V79.2167C116.87 73.7316 112.43 69.2833 106.957 69.2833V51.9C106.957 45.0429 112.505 39.4833 119.348 39.4833C126.191 39.4833 131.739 45.0429 131.739 51.9V71.7667C131.739 78.6238 137.287 84.1833 144.13 84.1833Z" fill="#FFC477"/>
<path d="M67.3044 39.4833H119.348C112.523 39.4616 106.978 44.987 106.957 51.8255C106.957 51.8503 106.957 51.8752 106.957 51.9V89.15H57.3914V49.4167C57.3914 43.9316 61.8305 39.4833 67.3044 39.4833Z" fill="#FF9D33"/>
<path d="M116.87 79.2167V173.583C116.87 179.068 112.43 183.517 106.957 183.517H57.3913C51.9175 183.517 47.4783 179.068 47.4783 173.583V79.2167C47.4783 73.7316 51.9175 69.2833 57.3913 69.2833V89.15H106.957V69.2833C112.43 69.2833 116.87 73.7316 116.87 79.2167Z" fill="#FF2C2C"/>
<path d="M97.0435 163.65H106.956V173.583H97.0435V163.65Z" fill="#2488FF"/>
<path d="M97.0435 143.783H106.956V153.717H97.0435V143.783Z" fill="#2488FF"/>
<path d="M97.0435 123.917H106.956V133.85H97.0435V123.917Z" fill="#2488FF"/>
<path d="M57.3914 104.05H106.957V113.983H57.3914V104.05Z" fill="#46F8FF"/>
<path d="M77.2175 163.65H87.1306V173.583H77.2175V163.65Z" fill="#2488FF"/>
<path d="M77.2175 143.783H87.1306V153.717H77.2175V143.783Z" fill="#2488FF"/>
<path d="M77.2175 123.917H87.1306V133.85H77.2175V123.917Z" fill="#2488FF"/>
<path d="M57.3914 163.65H67.3044V173.583H57.3914V163.65Z" fill="#2488FF"/>
<path d="M57.3914 143.783H67.3044V153.717H57.3914V143.783Z" fill="#2488FF"/>
<path d="M57.3914 123.917H67.3044V133.85H57.3914V123.917Z" fill="#2488FF"/>
<path d="M119.348 91.6333V86.6667H144.13C152.34 86.6574 158.991 79.9927 159 71.7667V64.3167C159 62.9446 157.891 61.8333 156.522 61.8333H134.217V51.9C134.208 43.674 127.557 37.0093 119.348 37H67.3043C60.4643 37.0093 54.9223 42.5627 54.913 49.4167V67.0483C49.148 68.2372 45.0062 73.3187 45 79.2167V173.583C45.0093 180.437 50.5513 185.991 57.3913 186H106.957C113.797 185.991 119.339 180.437 119.348 173.583V161.167V91.6333ZM154.043 71.7667C154.043 77.2517 149.604 81.7 144.13 81.7C138.657 81.7 134.217 77.2517 134.217 71.7667V66.8H154.043V71.7667ZM59.8696 49.4167C59.8696 45.3036 63.1997 41.9667 67.3043 41.9667H108.276C105.829 44.6952 104.475 48.234 104.478 51.9V86.6667H59.8696V49.4167ZM114.391 173.583C114.391 177.696 111.061 181.033 106.957 181.033H57.3913C53.2867 181.033 49.9565 177.696 49.9565 173.583V79.2167C49.9689 76.0721 51.9546 73.2722 54.913 72.223V89.15C54.913 90.522 56.0221 91.6333 57.3913 91.6333H106.957C108.326 91.6333 109.435 90.522 109.435 89.15V72.223C112.393 73.2722 114.379 76.069 114.391 79.2167V173.583ZM109.435 67.0483V51.9C109.435 46.4149 113.874 41.9667 119.348 41.9667C124.822 41.9667 129.261 46.4149 129.261 51.9V71.7667C129.261 75.4358 130.621 78.9776 133.077 81.7H119.348V79.2167C119.342 73.3187 115.2 68.2372 109.435 67.0483ZM119.348 156.2V96.6V156.2Z" fill="black"/>
<path d="M67.3041 121.433H57.3911C56.0219 121.433 54.9128 122.545 54.9128 123.917V133.85C54.9128 135.222 56.0219 136.333 57.3911 136.333H67.3041C68.6734 136.333 69.7824 135.222 69.7824 133.85V123.917C69.7824 122.545 68.6734 121.433 67.3041 121.433ZM64.8259 131.367H59.8694V126.4H64.8259V131.367Z" fill="black"/>
<path d="M87.1303 121.433H77.2173C75.848 121.433 74.739 122.545 74.739 123.917V133.85C74.739 135.222 75.848 136.333 77.2173 136.333H87.1303C88.4996 136.333 89.6086 135.222 89.6086 133.85V123.917C89.6086 122.545 88.4996 121.433 87.1303 121.433ZM84.6521 131.367H79.6955V126.4H84.6521V131.367Z" fill="black"/>
<path d="M106.956 121.433H97.0434C95.6742 121.433 94.5652 122.545 94.5652 123.917V133.85C94.5652 135.222 95.6742 136.333 97.0434 136.333H106.956C108.326 136.333 109.435 135.222 109.435 133.85V123.917C109.435 122.545 108.326 121.433 106.956 121.433ZM104.478 131.367H99.5217V126.4H104.478V131.367Z" fill="black"/>
<path d="M67.3041 141.3H57.3911C56.0219 141.3 54.9128 142.411 54.9128 143.783V153.717C54.9128 155.089 56.0219 156.2 57.3911 156.2H67.3041C68.6734 156.2 69.7824 155.089 69.7824 153.717V143.783C69.7824 142.411 68.6734 141.3 67.3041 141.3ZM64.8259 151.233H59.8694V146.267H64.8259V151.233Z" fill="black"/>
<path d="M87.1303 141.3H77.2173C75.848 141.3 74.739 142.411 74.739 143.783V153.717C74.739 155.089 75.848 156.2 77.2173 156.2H87.1303C88.4996 156.2 89.6086 155.089 89.6086 153.717V143.783C89.6086 142.411 88.4996 141.3 87.1303 141.3ZM84.6521 151.233H79.6955V146.267H84.6521V151.233Z" fill="black"/>
<path d="M106.956 141.3H97.0434C95.6742 141.3 94.5652 142.411 94.5652 143.783V153.717C94.5652 155.089 95.6742 156.2 97.0434 156.2H106.956C108.326 156.2 109.435 155.089 109.435 153.717V143.783C109.435 142.411 108.326 141.3 106.956 141.3ZM104.478 151.233H99.5217V146.267H104.478V151.233Z" fill="black"/>
<path d="M67.3041 161.167H57.3911C56.0219 161.167 54.9128 162.278 54.9128 163.65V173.583C54.9128 174.955 56.0219 176.067 57.3911 176.067H67.3041C68.6734 176.067 69.7824 174.955 69.7824 173.583V163.65C69.7824 162.278 68.6734 161.167 67.3041 161.167ZM64.8259 171.1H59.8694V166.133H64.8259V171.1Z" fill="black"/>
<path d="M87.1303 161.167H77.2173C75.848 161.167 74.739 162.278 74.739 163.65V173.583C74.739 174.955 75.848 176.067 77.2173 176.067H87.1303C88.4996 176.067 89.6086 174.955 89.6086 173.583V163.65C89.6086 162.278 88.4996 161.167 87.1303 161.167ZM84.6521 171.1H79.6955V166.133H84.6521V171.1Z" fill="black"/>
<path d="M106.956 161.167H97.0434C95.6742 161.167 94.5652 162.278 94.5652 163.65V173.583C94.5652 174.955 95.6742 176.067 97.0434 176.067H106.956C108.326 176.067 109.435 174.955 109.435 173.583V163.65C109.435 162.278 108.326 161.167 106.956 161.167ZM104.478 171.1H99.5217V166.133H104.478V171.1Z" fill="black"/>
<path d="M106.956 101.567H57.3911C56.0219 101.567 54.9128 102.678 54.9128 104.05V113.983C54.9128 115.355 56.0219 116.467 57.3911 116.467H106.956C108.326 116.467 109.435 115.355 109.435 113.983V104.05C109.435 102.678 108.326 101.567 106.956 101.567ZM104.478 111.5H59.8694V106.533H104.478V111.5Z" fill="black"/>
<path d="M64.8262 51.9H69.7827V56.8667H64.8262V51.9Z" fill="white"/>
<path d="M74.739 51.9H99.5216V56.8667H74.739V51.9Z" fill="white"/>
<path d="M64.8262 61.8333H99.5218V66.8H64.8262V61.8333Z" fill="white"/>
<path d="M64.8262 71.7667H99.5218V76.7333H64.8262V71.7667Z" fill="white"/>
<defs>
<linearGradient id="paint0_linear" x1="181.271" y1="191.889" x2="40.7538" y2="51.5596" gradientUnits="userSpaceOnUse">
<stop stop-color="#FF8500"/>
<stop offset="1" stop-color="#FFC200"/>
</linearGradient>
<clipPath id="clip0">
<rect width="200" height="221" fill="white"/>
</clipPath>
</defs>
</svg>
