<svg width="141" height="164" viewBox="0 0 141 164" fill="none" xmlns="http://www.w3.org/2000/svg">
<g filter="url(#filter0_d)">
<path d="M4 0H137V146C137 151.523 132.523 156 127 156H14C8.47715 156 4 151.523 4 146V0Z" fill="#3076bb"/>
</g>
<path d="M38.1318 117.949H34.5361L33.8525 120H31.6719L35.377 110.047H37.2773L41.0029 120H38.8223L38.1318 117.949ZM35.0898 116.288H37.5781L36.3271 112.562L35.0898 116.288ZM51.9473 116.37C51.9473 117.509 51.6875 118.423 51.168 119.111C50.653 119.795 49.9557 120.137 49.0762 120.137C48.3288 120.137 47.7249 119.877 47.2646 119.357V122.844H45.2891V112.604H47.1211L47.1895 113.328C47.668 112.754 48.2923 112.467 49.0625 112.467C49.974 112.467 50.6826 112.804 51.1885 113.479C51.6943 114.153 51.9473 115.083 51.9473 116.268V116.37ZM49.9717 116.227C49.9717 115.538 49.8486 115.007 49.6025 114.634C49.361 114.26 49.0078 114.073 48.543 114.073C47.9232 114.073 47.4971 114.31 47.2646 114.784V117.812C47.5062 118.3 47.9368 118.544 48.5566 118.544C49.5 118.544 49.9717 117.771 49.9717 116.227ZM57.334 114.456C57.0651 114.42 56.8281 114.401 56.623 114.401C55.8757 114.401 55.3857 114.654 55.1533 115.16V120H53.1777V112.604H55.0439L55.0986 113.485C55.4951 112.806 56.0443 112.467 56.7461 112.467C56.9648 112.467 57.1699 112.496 57.3613 112.556L57.334 114.456ZM57.7373 116.233C57.7373 115.5 57.8786 114.846 58.1611 114.271C58.4437 113.697 58.8493 113.253 59.3779 112.938C59.9111 112.624 60.5286 112.467 61.2305 112.467C62.2285 112.467 63.042 112.772 63.6709 113.383C64.3044 113.993 64.6576 114.823 64.7305 115.871L64.7441 116.377C64.7441 117.512 64.4274 118.423 63.7939 119.111C63.1605 119.795 62.3105 120.137 61.2441 120.137C60.1777 120.137 59.3255 119.795 58.6875 119.111C58.054 118.428 57.7373 117.498 57.7373 116.322V116.233ZM59.7129 116.377C59.7129 117.079 59.8451 117.617 60.1094 117.99C60.3737 118.359 60.752 118.544 61.2441 118.544C61.7227 118.544 62.0964 118.362 62.3652 117.997C62.6341 117.628 62.7686 117.04 62.7686 116.233C62.7686 115.545 62.6341 115.012 62.3652 114.634C62.0964 114.256 61.7181 114.066 61.2305 114.066C60.7474 114.066 60.3737 114.256 60.1094 114.634C59.8451 115.007 59.7129 115.589 59.7129 116.377ZM65.6533 116.247C65.6533 115.094 65.9108 114.176 66.4258 113.492C66.9453 112.809 67.654 112.467 68.5518 112.467C69.2718 112.467 69.8665 112.736 70.3359 113.273V109.5H72.3184V120H70.5342L70.4385 119.214C69.9463 119.829 69.3128 120.137 68.5381 120.137C67.6676 120.137 66.9681 119.795 66.4395 119.111C65.9154 118.423 65.6533 117.468 65.6533 116.247ZM67.6289 116.391C67.6289 117.083 67.7497 117.614 67.9912 117.983C68.2327 118.353 68.5837 118.537 69.0439 118.537C69.6546 118.537 70.0853 118.28 70.3359 117.765V114.846C70.0898 114.331 69.6637 114.073 69.0576 114.073C68.1051 114.073 67.6289 114.846 67.6289 116.391ZM78.2793 119.248C77.7917 119.84 77.1172 120.137 76.2559 120.137C75.4629 120.137 74.8568 119.909 74.4375 119.453C74.0228 118.997 73.8109 118.33 73.8018 117.45V112.604H75.7773V117.382C75.7773 118.152 76.1283 118.537 76.8301 118.537C77.5 118.537 77.9603 118.305 78.2109 117.84V112.604H80.1934V120H78.334L78.2793 119.248ZM84.7598 118.544C85.1243 118.544 85.4206 118.444 85.6484 118.243C85.8763 118.043 85.9948 117.776 86.0039 117.443H87.8564C87.8519 117.945 87.7152 118.405 87.4463 118.824C87.1774 119.239 86.8083 119.562 86.3389 119.795C85.874 120.023 85.359 120.137 84.7939 120.137C83.7367 120.137 82.9027 119.802 82.292 119.132C81.6813 118.457 81.376 117.528 81.376 116.343V116.213C81.376 115.074 81.679 114.164 82.2852 113.485C82.8913 112.806 83.723 112.467 84.7803 112.467C85.7054 112.467 86.446 112.731 87.002 113.26C87.5625 113.784 87.8473 114.483 87.8564 115.358H86.0039C85.9948 114.976 85.8763 114.666 85.6484 114.429C85.4206 114.187 85.1198 114.066 84.7461 114.066C84.2858 114.066 83.9372 114.235 83.7002 114.572C83.4678 114.905 83.3516 115.447 83.3516 116.199V116.404C83.3516 117.165 83.4678 117.712 83.7002 118.045C83.9326 118.378 84.2858 118.544 84.7598 118.544ZM91.3496 110.785V112.604H92.6143V114.053H91.3496V117.744C91.3496 118.018 91.402 118.214 91.5068 118.332C91.6117 118.451 91.8122 118.51 92.1084 118.51C92.3271 118.51 92.5208 118.494 92.6895 118.462V119.959C92.3021 120.077 91.9033 120.137 91.4932 120.137C90.1077 120.137 89.4014 119.437 89.374 118.038V114.053H88.2939V112.604H89.374V110.785H91.3496ZM96.8936 116.233C96.8936 115.5 97.0348 114.846 97.3174 114.271C97.5999 113.697 98.0055 113.253 98.5342 112.938C99.0674 112.624 99.6849 112.467 100.387 112.467C101.385 112.467 102.198 112.772 102.827 113.383C103.461 113.993 103.814 114.823 103.887 115.871L103.9 116.377C103.9 117.512 103.584 118.423 102.95 119.111C102.317 119.795 101.467 120.137 100.4 120.137C99.334 120.137 98.4818 119.795 97.8438 119.111C97.2103 118.428 96.8936 117.498 96.8936 116.322V116.233ZM98.8691 116.377C98.8691 117.079 99.0013 117.617 99.2656 117.99C99.5299 118.359 99.9082 118.544 100.4 118.544C100.879 118.544 101.253 118.362 101.521 117.997C101.79 117.628 101.925 117.04 101.925 116.233C101.925 115.545 101.79 115.012 101.521 114.634C101.253 114.256 100.874 114.066 100.387 114.066C99.9036 114.066 99.5299 114.256 99.2656 114.634C99.0013 115.007 98.8691 115.589 98.8691 116.377ZM105.657 120V114.053H104.557V112.604H105.657V111.975C105.657 111.145 105.894 110.503 106.368 110.047C106.847 109.587 107.514 109.356 108.371 109.356C108.645 109.356 108.979 109.402 109.376 109.493L109.355 111.024C109.191 110.983 108.991 110.963 108.754 110.963C108.011 110.963 107.64 111.312 107.64 112.009V112.604H109.109V114.053H107.64V120H105.657ZM33.9209 132.008L32.8545 133.156V136H30.8037V126.047H32.8545V130.559L33.7568 129.321L36.293 126.047H38.8154L35.2812 130.47L38.918 136H36.4775L33.9209 132.008ZM39.0615 132.233C39.0615 131.5 39.2028 130.846 39.4854 130.271C39.7679 129.697 40.1735 129.253 40.7021 128.938C41.2354 128.624 41.8529 128.467 42.5547 128.467C43.5527 128.467 44.3662 128.772 44.9951 129.383C45.6286 129.993 45.9818 130.823 46.0547 131.871L46.0684 132.377C46.0684 133.512 45.7516 134.423 45.1182 135.111C44.4847 135.795 43.6348 136.137 42.5684 136.137C41.502 136.137 40.6497 135.795 40.0117 135.111C39.3783 134.428 39.0615 133.498 39.0615 132.322V132.233ZM41.0371 132.377C41.0371 133.079 41.1693 133.617 41.4336 133.99C41.6979 134.359 42.0762 134.544 42.5684 134.544C43.0469 134.544 43.4206 134.362 43.6895 133.997C43.9583 133.628 44.0928 133.04 44.0928 132.233C44.0928 131.545 43.9583 131.012 43.6895 130.634C43.4206 130.256 43.0423 130.066 42.5547 130.066C42.0716 130.066 41.6979 130.256 41.4336 130.634C41.1693 131.007 41.0371 131.589 41.0371 132.377ZM46.9775 132.233C46.9775 131.5 47.1188 130.846 47.4014 130.271C47.6839 129.697 48.0895 129.253 48.6182 128.938C49.1514 128.624 49.7689 128.467 50.4707 128.467C51.4688 128.467 52.2822 128.772 52.9111 129.383C53.5446 129.993 53.8978 130.823 53.9707 131.871L53.9844 132.377C53.9844 133.512 53.6676 134.423 53.0342 135.111C52.4007 135.795 51.5508 136.137 50.4844 136.137C49.418 136.137 48.5658 135.795 47.9277 135.111C47.2943 134.428 46.9775 133.498 46.9775 132.322V132.233ZM48.9531 132.377C48.9531 133.079 49.0853 133.617 49.3496 133.99C49.6139 134.359 49.9922 134.544 50.4844 134.544C50.9629 134.544 51.3366 134.362 51.6055 133.997C51.8743 133.628 52.0088 133.04 52.0088 132.233C52.0088 131.545 51.8743 131.012 51.6055 130.634C51.3366 130.256 50.9583 130.066 50.4707 130.066C49.9876 130.066 49.6139 130.256 49.3496 130.634C49.0853 131.007 48.9531 131.589 48.9531 132.377ZM57.5664 126.785V128.604H58.8311V130.053H57.5664V133.744C57.5664 134.018 57.6188 134.214 57.7236 134.332C57.8285 134.451 58.029 134.51 58.3252 134.51C58.5439 134.51 58.7376 134.494 58.9062 134.462V135.959C58.5189 136.077 58.1201 136.137 57.71 136.137C56.3245 136.137 55.6182 135.437 55.5908 134.038V130.053H54.5107V128.604H55.5908V126.785H57.5664ZM59.4189 132.233C59.4189 131.5 59.5602 130.846 59.8428 130.271C60.1253 129.697 60.5309 129.253 61.0596 128.938C61.5928 128.624 62.2103 128.467 62.9121 128.467C63.9102 128.467 64.7236 128.772 65.3525 129.383C65.986 129.993 66.3392 130.823 66.4121 131.871L66.4258 132.377C66.4258 133.512 66.109 134.423 65.4756 135.111C64.8421 135.795 63.9922 136.137 62.9258 136.137C61.8594 136.137 61.0072 135.795 60.3691 135.111C59.7357 134.428 59.4189 133.498 59.4189 132.322V132.233ZM61.3945 132.377C61.3945 133.079 61.5267 133.617 61.791 133.99C62.0553 134.359 62.4336 134.544 62.9258 134.544C63.4043 134.544 63.778 134.362 64.0469 133.997C64.3158 133.628 64.4502 133.04 64.4502 132.233C64.4502 131.545 64.3158 131.012 64.0469 130.634C63.778 130.256 63.3997 130.066 62.9121 130.066C62.429 130.066 62.0553 130.256 61.791 130.634C61.5267 131.007 61.3945 131.589 61.3945 132.377ZM71.7988 130.456C71.5299 130.42 71.293 130.401 71.0879 130.401C70.3405 130.401 69.8506 130.654 69.6182 131.16V136H67.6426V128.604H69.5088L69.5635 129.485C69.96 128.806 70.5091 128.467 71.2109 128.467C71.4297 128.467 71.6348 128.496 71.8262 128.556L71.7988 130.456ZM72.2021 132.233C72.2021 131.5 72.3434 130.846 72.626 130.271C72.9085 129.697 73.3141 129.253 73.8428 128.938C74.376 128.624 74.9935 128.467 75.6953 128.467C76.6934 128.467 77.5068 128.772 78.1357 129.383C78.7692 129.993 79.1224 130.823 79.1953 131.871L79.209 132.377C79.209 133.512 78.8923 134.423 78.2588 135.111C77.6253 135.795 76.7754 136.137 75.709 136.137C74.6426 136.137 73.7904 135.795 73.1523 135.111C72.5189 134.428 72.2021 133.498 72.2021 132.322V132.233ZM74.1777 132.377C74.1777 133.079 74.3099 133.617 74.5742 133.99C74.8385 134.359 75.2168 134.544 75.709 134.544C76.1875 134.544 76.5612 134.362 76.8301 133.997C77.099 133.628 77.2334 133.04 77.2334 132.233C77.2334 131.545 77.099 131.012 76.8301 130.634C76.5612 130.256 76.1829 130.066 75.6953 130.066C75.2122 130.066 74.8385 130.256 74.5742 130.634C74.3099 131.007 74.1777 131.589 74.1777 132.377ZM80.5283 135.029C80.5283 134.715 80.6331 134.46 80.8428 134.264C81.057 134.068 81.3236 133.97 81.6426 133.97C81.9661 133.97 82.2327 134.068 82.4424 134.264C82.6566 134.46 82.7637 134.715 82.7637 135.029C82.7637 135.339 82.6589 135.592 82.4492 135.788C82.2396 135.979 81.9707 136.075 81.6426 136.075C81.319 136.075 81.0524 135.979 80.8428 135.788C80.6331 135.592 80.5283 135.339 80.5283 135.029ZM87.5762 134.544C87.9408 134.544 88.237 134.444 88.4648 134.243C88.6927 134.043 88.8112 133.776 88.8203 133.443H90.6729C90.6683 133.945 90.5316 134.405 90.2627 134.824C89.9938 135.239 89.6247 135.562 89.1553 135.795C88.6904 136.023 88.1755 136.137 87.6104 136.137C86.5531 136.137 85.7191 135.802 85.1084 135.132C84.4977 134.457 84.1924 133.528 84.1924 132.343V132.213C84.1924 131.074 84.4954 130.164 85.1016 129.485C85.7077 128.806 86.5394 128.467 87.5967 128.467C88.5218 128.467 89.2624 128.731 89.8184 129.26C90.3789 129.784 90.6637 130.483 90.6729 131.358H88.8203C88.8112 130.976 88.6927 130.666 88.4648 130.429C88.237 130.187 87.9362 130.066 87.5625 130.066C87.1022 130.066 86.7536 130.235 86.5166 130.572C86.2842 130.905 86.168 131.447 86.168 132.199V132.404C86.168 133.165 86.2842 133.712 86.5166 134.045C86.749 134.378 87.1022 134.544 87.5762 134.544ZM91.4932 132.233C91.4932 131.5 91.6344 130.846 91.917 130.271C92.1995 129.697 92.6051 129.253 93.1338 128.938C93.667 128.624 94.2845 128.467 94.9863 128.467C95.9844 128.467 96.7979 128.772 97.4268 129.383C98.0602 129.993 98.4134 130.823 98.4863 131.871L98.5 132.377C98.5 133.512 98.1833 134.423 97.5498 135.111C96.9163 135.795 96.0664 136.137 95 136.137C93.9336 136.137 93.0814 135.795 92.4434 135.111C91.8099 134.428 91.4932 133.498 91.4932 132.322V132.233ZM93.4688 132.377C93.4688 133.079 93.6009 133.617 93.8652 133.99C94.1296 134.359 94.5078 134.544 95 134.544C95.4785 134.544 95.8522 134.362 96.1211 133.997C96.39 133.628 96.5244 133.04 96.5244 132.233C96.5244 131.545 96.39 131.012 96.1211 130.634C95.8522 130.256 95.474 130.066 94.9863 130.066C94.5033 130.066 94.1296 130.256 93.8652 130.634C93.6009 131.007 93.4688 131.589 93.4688 132.377ZM101.569 128.604L101.631 129.431C102.155 128.788 102.864 128.467 103.757 128.467C104.709 128.467 105.363 128.843 105.719 129.595C106.238 128.843 106.979 128.467 107.94 128.467C108.743 128.467 109.34 128.701 109.731 129.171C110.123 129.636 110.319 130.338 110.319 131.276V136H108.337V131.283C108.337 130.864 108.255 130.559 108.091 130.367C107.927 130.171 107.637 130.073 107.223 130.073C106.63 130.073 106.22 130.356 105.992 130.921L105.999 136H104.023V131.29C104.023 130.862 103.939 130.552 103.771 130.36C103.602 130.169 103.315 130.073 102.909 130.073C102.349 130.073 101.943 130.306 101.692 130.771V136H99.7168V128.604H101.569Z" fill="white"/>
<path d="M57.5033 68.1329C57.5414 68.0948 57.6176 68.0948 57.6557 68.0948C59.5985 67.7136 61.0462 66.6462 62.0747 64.9689C63.1795 63.1772 63.4081 61.233 63.1795 59.1745C62.8366 56.0486 60.6271 53.4945 57.6557 52.6939C56.8176 52.4652 55.9414 52.3509 55.0652 52.3127C51.9794 52.1603 48.8937 52.2746 45.8461 52.2365C45.5032 52.2365 45.427 52.3509 45.427 52.6558C45.427 53.7613 45.427 54.905 45.427 56.0105C45.427 56.2773 45.5032 56.4298 45.6937 56.6204C46.227 57.116 46.6461 57.6878 46.9889 58.3358C49.0461 61.8811 49.4651 68.171 45.6175 72.1737C45.5032 72.3262 45.427 72.4405 45.427 72.6311C45.427 73.7367 45.427 74.8803 45.427 75.9858C45.427 76.2526 45.5032 76.367 45.808 76.367C47.5223 76.367 49.2365 76.367 50.9508 76.367C51.2556 76.367 51.2937 76.2526 51.2937 75.9858C51.2937 74.4991 51.2937 73.0505 51.2937 71.5638V68.7047H51.3699C51.4461 68.8191 51.5223 68.8953 51.5985 69.0097C53.2747 71.3732 54.9509 73.7367 56.6271 76.1001C56.7795 76.3289 56.9318 76.4051 57.2366 76.4051C59.2938 76.4051 61.3509 76.4051 63.4081 76.4051C63.5224 76.4051 63.6366 76.4432 63.7509 76.3289C61.6176 73.6223 59.5223 70.9538 57.389 68.2854C57.4652 68.171 57.4652 68.171 57.5033 68.1329ZM56.8937 62.9866C56.4366 63.6727 55.7509 64.0158 54.989 64.2064C54.2652 64.397 53.5032 64.397 52.9699 64.3589C52.3985 64.3589 52.0556 64.3208 51.6747 64.3589C51.3699 64.397 51.2937 64.2446 51.2937 63.9777C51.2937 61.9954 51.2937 60.0131 51.2937 58.069C51.2937 57.764 51.3699 57.6878 51.6747 57.6878C52.7413 57.7259 53.808 57.6115 54.8747 57.8403C57.2366 58.374 58.2271 60.9662 56.8937 62.9866Z" fill="white"/>
<path d="M45.2743 57.4592C41.5029 52.3891 35.5219 51.4361 30.4552 52.9609C30.2266 53.0372 30.1504 53.1515 30.1504 53.3803C30.1504 54.8289 30.1504 56.2393 30.1504 57.6879C30.1504 58.1072 30.0742 58.2216 29.6552 58.2216C28.4361 58.1835 27.2171 58.2216 25.998 58.2216C25.3504 58.2216 25.4266 58.1454 25.4266 58.7553C25.4266 60.9663 25.4266 63.1773 25.4266 65.3883C25.4266 67.5993 25.4266 69.7722 25.4266 71.9832C25.4266 72.3644 25.5409 72.6313 25.8075 72.86C28.7409 75.5666 32.2076 76.5577 36.1314 76.2528C41.9219 75.7572 47.1029 71.1065 47.4077 65.1977C47.5601 62.3768 46.9886 59.7464 45.2743 57.4592ZM38.76 69.7722C35.4838 72.4026 30.4552 70.954 28.8552 66.9894C27.598 63.8635 28.6647 60.242 31.3314 58.4885C32.3981 57.8023 33.579 57.4973 34.9124 57.4973C38.4933 57.4211 41.0076 60.3945 41.2743 63.4442C41.5029 65.9983 40.741 68.133 38.76 69.7722Z" fill="white"/>
<path d="M81.2744 62.186C80.6268 58.3357 78.3791 55.6292 75.0648 53.7994C72.5505 52.3889 69.8457 52.122 67.0267 52.3889C65.2743 52.5795 63.6362 53.1132 62.1124 54.0662C61.8838 54.2187 61.8457 54.2949 62.0362 54.5237C63.179 55.9341 63.9409 57.4971 64.2457 59.365C64.3981 59.2506 64.5124 59.1363 64.6267 59.06C66.6838 57.4971 68.9696 57.0015 71.3696 58.0308C73.6934 59.0219 74.9505 60.8898 75.2553 63.3677C75.5982 66.0362 74.7601 68.2472 72.6267 69.9245C69.8457 72.0974 64.36 71.6018 62.6457 66.5699C62.6076 66.4174 62.6076 66.2649 62.4552 66.1124C61.4647 67.1417 60.3219 67.9041 58.9504 68.3997C58.9885 68.4759 58.9885 68.514 59.0266 68.5521C60.9695 70.9156 62.9505 73.3173 64.8933 75.6807C65.0076 75.8332 65.1981 75.9095 65.3505 75.9476C67.7505 76.5194 70.1124 76.5194 72.4743 75.8714C78.6458 74.1178 82.3411 68.4378 81.2744 62.186Z" fill="white"/>
<path d="M24.5887 75.7955C24.5887 69.8105 24.5887 63.8636 24.5887 57.8787C24.5887 57.5356 24.6648 57.4212 25.0458 57.4212C26.341 57.4593 27.6363 57.4212 28.8934 57.4212C29.1982 57.4212 29.2744 57.345 29.2744 57.04C29.2744 55.5914 29.2744 54.1047 29.2744 52.6561C29.2744 52.3511 29.1982 52.2749 28.8934 52.2749C23.9791 52.2749 19.0267 52.2749 14.1124 52.2749C13.8076 52.2749 13.7314 52.3893 13.7314 52.6561C13.7314 54.1047 13.7314 55.5533 13.7314 57.0019C13.7314 57.3069 13.8076 57.4212 14.1124 57.4212C15.4076 57.3831 16.7029 57.4212 17.96 57.4212C18.341 57.4212 18.4172 57.5356 18.4172 57.9168C18.4172 60.9283 18.4172 63.9018 18.4172 66.9133C18.4172 69.9249 18.4172 72.9364 18.4172 75.948C18.4172 76.3292 18.5315 76.4054 18.8743 76.4054C20.5886 76.4054 22.2648 76.4054 23.9791 76.4054C24.5887 76.3292 24.5887 76.3292 24.5887 75.7955Z" fill="white"/>
<path d="M127.485 62.4531L126.304 61.2714L116.361 51.4362L113.313 48.4246L111.599 46.7473L109.846 44.9938L99.4462 34.7393L98.7224 34.0531C97.6557 32.9857 96.4748 33.6338 96.17 33.9387L95.9795 34.0912L95.9415 34.1293L82.3795 47.6241L81.5414 48.4628L79.9032 50.102C79.9032 50.102 79.7509 50.2544 79.6366 50.3688L79.2556 50.75C79.2556 50.75 78.1128 52.2367 79.6366 53.7616L81.9985 56.1251C82.2271 56.3538 82.608 56.3157 82.7604 56.0107C83.1033 55.3626 83.5223 54.7527 83.9414 54.1809C84.3223 53.6472 84.7414 53.1516 85.1985 52.6942C85.2747 52.6179 85.3509 52.5036 85.4271 52.4273C88.5128 49.3014 92.8176 47.3191 97.5415 47.3191C100.437 47.3191 103.141 48.0434 105.503 49.3014C106.265 49.6826 106.989 50.1401 107.637 50.6357C108.284 51.1312 108.894 51.6649 109.465 52.2367C109.465 52.2367 111.218 54.0665 111.218 55.4008C111.218 56.0869 110.989 56.6969 110.608 57.1924C110.418 57.4212 110.227 57.6499 109.961 57.8405C109.465 58.2217 108.818 58.4504 108.132 58.4504C107.218 58.4504 106.38 58.0311 105.846 57.383L105.808 57.3068C105.58 57.04 105.351 56.8112 105.122 56.5825C104.551 56.0107 103.903 55.477 103.18 55.0577C102.418 54.6002 101.618 54.219 100.78 53.9522C99.751 53.6091 98.6462 53.4566 97.5034 53.4566C94.4557 53.4566 91.7129 54.7146 89.7319 56.735C89.1985 57.3068 88.7033 57.9167 88.2843 58.5648C87.789 59.4035 87.37 60.2802 87.1033 61.2333V61.2714C86.8366 62.1863 86.6842 63.1774 86.6842 64.2067V64.2829C86.6842 65.3503 86.8366 66.3796 87.1414 67.3707V67.447C87.4081 68.2856 87.789 69.0862 88.2462 69.8486C88.7033 70.5729 89.2366 71.259 89.8462 71.869C90.9128 72.9364 92.17 73.775 93.6176 74.3087C94.8367 74.7662 96.1319 75.033 97.5034 75.033C98.57 75.033 99.5986 74.8805 100.551 74.6137C101.503 74.3468 102.418 73.9275 103.218 73.3938C103.865 72.9745 104.513 72.517 105.046 71.9452C106.037 70.9922 106.837 69.8486 107.408 68.5525C107.637 67.9806 107.218 67.3707 106.608 67.3707H100.97C100.932 67.3707 100.894 67.3707 100.856 67.3707C100.741 67.3707 100.589 67.4088 100.475 67.4088H100.437C100.284 67.4088 100.094 67.4088 99.9415 67.3707C98.4938 67.142 97.3891 65.884 97.3891 64.3592V64.321L97.351 64.2829H97.3891C97.4272 62.6818 98.7224 61.3476 100.361 61.3095C100.361 61.3095 111.637 61.2714 111.751 61.2714C113.161 61.4239 114.265 62.4912 114.456 63.8636C114.494 64.0161 114.456 64.5879 114.456 64.7785V64.8547C114.418 65.7315 114.342 66.5702 114.189 67.3707C113.542 70.8397 111.827 73.8513 109.389 76.2148C108.856 76.7484 108.322 77.2059 107.675 77.6633C106.913 78.2352 106.151 78.7307 105.275 79.1501C102.951 80.3318 100.322 81.018 97.5415 81.018C94.4557 81.018 91.5986 80.2174 89.1224 78.7689C88.0176 78.1208 87.0271 77.3965 86.1128 76.5578C85.9223 76.4054 85.77 76.2529 85.6176 76.0623C85.008 75.4523 84.4366 74.8043 83.9414 74.1181C83.5985 73.6225 83.2557 73.2413 82.989 72.7076C82.6842 72.1358 82.2271 72.3645 81.9604 72.6314L79.3699 75.1855C79.0271 75.5286 78.189 76.9009 79.6366 78.3495L95.9795 94.5128C96.3224 94.8559 97.8081 95.6564 98.951 94.4746L109.732 83.7246L111.675 81.7804L113.313 80.1412L127.142 66.0746L127.637 65.579C128.361 64.931 128.475 63.3299 127.485 62.4531Z" fill="white"/>
<defs>
<filter id="filter0_d" x="0" y="0" width="141" height="164" filterUnits="userSpaceOnUse" color-interpolation-filters="sRGB">
<feFlood flood-opacity="0" result="BackgroundImageFix"/>
<feColorMatrix in="SourceAlpha" type="matrix" values="0 0 0 0 0 0 0 0 0 0 0 0 0 0 0 0 0 0 127 0"/>
<feOffset dy="4"/>
<feGaussianBlur stdDeviation="2"/>
<feColorMatrix type="matrix" values="0 0 0 0 0 0 0 0 0 0 0 0 0 0 0 0 0 0 0.25 0"/>
<feBlend mode="normal" in2="BackgroundImageFix" result="effect1_dropShadow"/>
<feBlend mode="normal" in="SourceGraphic" in2="effect1_dropShadow" result="shape"/>
</filter>
</defs>
</svg>
