<svg width="130" height="70" viewBox="0 0 130 70" fill="none" xmlns="http://www.w3.org/2000/svg">
<path d="M49.9392 39.3294C49.9819 39.2867 50.0672 39.2867 50.1099 39.2867C52.2865 38.8596 53.9083 37.6638 55.0606 35.7847C56.2983 33.7775 56.5544 31.5994 56.2983 29.2933C55.9142 25.7913 53.4388 22.93 50.1099 22.0331C49.171 21.7769 48.1894 21.6488 47.2078 21.6061C43.7508 21.4352 40.2939 21.5633 36.8796 21.5206C36.4955 21.5206 36.4102 21.6488 36.4102 21.9904C36.4102 23.2289 36.4102 24.5101 36.4102 25.7486C36.4102 26.0476 36.4955 26.2184 36.7089 26.4319C37.3064 26.9871 37.7759 27.6277 38.16 28.3537C40.4646 32.3255 40.9341 39.3721 36.6235 43.8563C36.4955 44.0271 36.4102 44.1553 36.4102 44.3688C36.4102 45.6073 36.4102 46.8885 36.4102 48.127C36.4102 48.4259 36.4955 48.5541 36.8369 48.5541C38.7575 48.5541 40.678 48.5541 42.5985 48.5541C42.94 48.5541 42.9826 48.4259 42.9826 48.127C42.9826 46.4614 42.9826 44.8386 42.9826 43.173V39.97H43.068C43.1533 40.0981 43.2387 40.1835 43.3241 40.3116C45.2019 42.9595 47.0798 45.6073 48.9576 48.2551C49.1283 48.5113 49.299 48.5968 49.6405 48.5968C51.9451 48.5968 54.2497 48.5968 56.5544 48.5968C56.6824 48.5968 56.8104 48.6395 56.9385 48.5113C54.5485 45.4792 52.2012 42.4897 49.8112 39.5002C49.8965 39.3721 49.8965 39.3721 49.9392 39.3294ZM49.2564 33.564C48.7442 34.3327 47.976 34.717 47.1224 34.9306C46.3115 35.1441 45.458 35.1441 44.8605 35.1014C44.2203 35.1014 43.8362 35.0587 43.4094 35.1014C43.068 35.1441 42.9826 34.9733 42.9826 34.6743C42.9826 32.4536 42.9826 30.2328 42.9826 28.0548C42.9826 27.7131 43.068 27.6277 43.4094 27.6277C44.6044 27.6704 45.7994 27.5423 46.9944 27.7985C49.6405 28.3964 50.7501 31.3005 49.2564 33.564Z" fill="white"/>
<path d="M36.2395 27.3716C32.0144 21.6916 25.3138 20.6239 19.6376 22.3322C19.3816 22.4176 19.2962 22.5457 19.2962 22.802C19.2962 24.4248 19.2962 26.005 19.2962 27.6279C19.2962 28.0976 19.2108 28.2258 18.7414 28.2258C17.3757 28.183 16.01 28.2258 14.6442 28.2258C13.9187 28.2258 14.0041 28.1403 14.0041 28.8236C14.0041 31.3006 14.0041 33.7776 14.0041 36.2546C14.0041 38.7316 14.0041 41.1659 14.0041 43.6429C14.0041 44.07 14.1321 44.3689 14.4309 44.6252C17.7171 47.6574 21.6008 48.7677 25.9967 48.4261C32.4838 47.8709 38.2881 42.6607 38.6295 36.0411C38.8002 32.8808 38.16 29.934 36.2395 27.3716ZM28.9415 41.1659C25.2712 44.1127 19.6376 42.4898 17.8451 38.0483C16.4367 34.5464 17.6317 30.4892 20.6192 28.5247C21.8142 27.756 23.1372 27.4143 24.631 27.4143C28.6428 27.3289 31.4595 30.66 31.7583 34.0766C32.0144 36.9379 31.1608 39.3295 28.9415 41.1659Z" fill="white"/>
<path d="M76.5701 32.667C75.8445 28.3536 73.3265 25.3214 69.6135 23.2715C66.7967 21.6914 63.7666 21.3924 60.6084 21.6914C58.6452 21.9049 56.81 22.5028 55.1029 23.5705C54.8468 23.7413 54.8041 23.8267 55.0175 24.0829C56.2978 25.6631 57.1514 27.4141 57.4928 29.5067C57.6636 29.3786 57.7916 29.2505 57.9196 29.1651C60.2243 27.4141 62.785 26.8589 65.4737 28.012C68.0771 29.1223 69.4855 31.215 69.8269 33.9909C70.211 36.9804 69.2721 39.4574 66.8821 41.3365C63.7666 43.7708 57.6209 43.2156 55.7003 37.5783C55.6577 37.4075 55.6577 37.2366 55.487 37.0658C54.3773 38.2189 53.097 39.073 51.5605 39.6282C51.6032 39.7136 51.6032 39.7564 51.6459 39.7991C53.8225 42.4469 56.0418 45.1374 58.2184 47.7852C58.3464 47.9561 58.5598 48.0415 58.7305 48.0842C61.4193 48.7248 64.0653 48.7248 66.7114 47.9988C73.6253 46.0343 77.7651 39.6709 76.5701 32.667Z" fill="white"/>
<path d="M13.0652 47.9137C13.0652 41.2087 13.0652 34.5465 13.0652 27.8415C13.0652 27.4571 13.1506 27.329 13.5773 27.329C15.0284 27.3717 16.4795 27.329 17.8879 27.329C18.2293 27.329 18.3146 27.2436 18.3146 26.902C18.3146 25.2791 18.3146 23.6135 18.3146 21.9907C18.3146 21.649 18.2293 21.5636 17.8879 21.5636C12.3823 21.5636 6.83415 21.5636 1.32864 21.5636C0.987212 21.5636 0.901855 21.6917 0.901855 21.9907C0.901855 23.6135 0.901855 25.2364 0.901855 26.8592C0.901855 27.2009 0.987212 27.329 1.32864 27.329C2.7797 27.2863 4.23077 27.329 5.63916 27.329C6.06594 27.329 6.1513 27.4571 6.1513 27.8842C6.1513 31.258 6.1513 34.5892 6.1513 37.963C6.1513 41.3369 6.1513 44.7107 6.1513 48.0845C6.1513 48.5116 6.27933 48.597 6.66344 48.597C8.58397 48.597 10.4618 48.597 12.3823 48.597C13.0652 48.5116 13.0652 48.5116 13.0652 47.9137Z" fill="white"/>
<path d="M128.339 32.9664L127.016 31.6425L115.877 20.6241L112.463 17.2503L110.542 15.3712L108.579 13.4066L96.9281 1.9185L96.1172 1.14978C94.9222 -0.046012 93.5992 0.680004 93.2577 1.02166L93.0443 1.19249L93.0017 1.23519L77.8082 16.3534L76.8692 17.293L75.0341 19.1294C75.0341 19.1294 74.8633 19.3002 74.7353 19.4283L74.3085 19.8554C74.3085 19.8554 73.0282 21.5209 74.7353 23.2292L77.3814 25.877C77.6374 26.1333 78.0642 26.0906 78.2349 25.7489C78.619 25.0229 79.0885 24.3396 79.558 23.699C79.9848 23.1011 80.4542 22.5459 80.9664 22.0334C81.0517 21.948 81.1371 21.8199 81.2224 21.7345C84.6794 18.2325 89.502 16.0118 94.7942 16.0118C98.0377 16.0118 101.068 16.8232 103.714 18.2325C104.568 18.6596 105.378 19.1721 106.104 19.7272C106.829 20.2824 107.512 20.8803 108.152 21.5209C108.152 21.5209 110.116 23.5709 110.116 25.0656C110.116 25.8343 109.86 26.5176 109.433 27.0728C109.219 27.3291 109.006 27.5853 108.707 27.7988C108.153 28.2259 107.427 28.4822 106.659 28.4822C105.634 28.4822 104.696 28.0124 104.098 27.2864L104.055 27.2009C103.799 26.902 103.543 26.6458 103.287 26.3895C102.647 25.7489 101.921 25.151 101.111 24.6812C100.257 24.1688 99.3607 23.7417 98.4218 23.4427C97.2695 23.0584 96.0318 22.8876 94.7515 22.8876C91.3372 22.8876 88.2644 24.2969 86.0451 26.5603C85.4476 27.2009 84.8928 27.8843 84.4233 28.6103C83.8685 29.5498 83.399 30.5321 83.1003 31.5998V31.6425C82.8015 32.6674 82.6308 33.7778 82.6308 34.9309V35.0163C82.6308 36.2121 82.8015 37.3652 83.143 38.4755V38.561C83.4417 39.5005 83.8685 40.3974 84.3806 41.2515C84.8928 42.0629 85.4903 42.8316 86.1731 43.515C87.3681 44.7107 88.7765 45.6503 90.3983 46.2482C91.764 46.7607 93.2151 47.0596 94.7515 47.0596C95.9465 47.0596 97.0988 46.8888 98.1657 46.5898C99.2327 46.2909 100.257 45.8211 101.153 45.2232C101.879 44.7535 102.604 44.241 103.202 43.6004C104.311 42.5327 105.208 41.2515 105.848 39.7995C106.104 39.1589 105.634 38.4755 104.952 38.4755H98.6352C98.5925 38.4755 98.5499 38.4755 98.5072 38.4755C98.3791 38.4755 98.2084 38.5183 98.0804 38.5183H98.0377C97.867 38.5183 97.6536 38.5183 97.4829 38.4755C95.8611 38.2193 94.6234 36.81 94.6234 35.1017V35.059L94.5808 35.0163H94.6234C94.6661 33.2226 96.1172 31.7279 97.9524 31.6852C97.9524 31.6852 110.585 31.6425 110.713 31.6425C112.292 31.8133 113.53 33.0091 113.743 34.5465C113.786 34.7174 113.743 35.3579 113.743 35.5715V35.6569C113.701 36.6392 113.615 37.5787 113.445 38.4755C112.719 42.3619 110.799 45.7357 108.067 48.3835C107.47 48.9814 106.872 49.4939 106.147 50.0064C105.293 50.647 104.439 51.2022 103.458 51.672C100.854 52.9959 97.9097 53.7646 94.7942 53.7646C91.3372 53.7646 88.1363 52.8678 85.3622 51.2449C84.1246 50.5189 83.0149 49.7074 81.9906 48.7679C81.7772 48.5971 81.6065 48.4262 81.4358 48.2127C80.753 47.5294 80.1128 46.8034 79.558 46.0347C79.1739 45.4795 78.7898 45.0524 78.491 44.4545C78.1496 43.8139 77.6374 44.0701 77.3387 44.3691L74.4366 47.2304C74.0525 47.6148 73.1135 49.1523 74.7353 50.7751L93.0443 68.8828C93.4284 69.2672 95.0929 70.164 96.3733 68.8401L108.451 56.7968L110.628 54.6187L112.463 52.7823L127.955 37.0235L128.51 36.4683C129.321 35.7423 129.449 33.9486 128.339 32.9664Z" fill="white"/>
</svg>
