<svg width="113" height="61" viewBox="0 0 113 61" fill="none" xmlns="http://www.w3.org/2000/svg">
<path d="M43.4243 33.96C43.4613 33.923 43.5353 33.923 43.5723 33.923C45.4591 33.5528 46.8649 32.5162 47.8638 30.8873C48.9366 29.1474 49.1586 27.2594 48.9366 25.2603C48.6037 22.2246 46.4579 19.7443 43.5723 18.9669C42.7584 18.7448 41.9075 18.6337 41.0566 18.5967C38.06 18.4486 35.0634 18.5597 32.1037 18.5226C31.7708 18.5226 31.6968 18.6337 31.6968 18.9299C31.6968 20.0034 31.6968 21.114 31.6968 22.1876C31.6968 22.4468 31.7708 22.5948 31.9557 22.7799C32.4737 23.2612 32.8806 23.8165 33.2136 24.4459C35.2113 27.8887 35.6183 33.997 31.8818 37.8841C31.7708 38.0322 31.6968 38.1433 31.6968 38.3284C31.6968 39.4019 31.6968 40.5125 31.6968 41.5861C31.6968 41.8453 31.7708 41.9563 32.0667 41.9563C33.7315 41.9563 35.3963 41.9563 37.0611 41.9563C37.3571 41.9563 37.3941 41.8453 37.3941 41.5861C37.3941 40.1423 37.3941 38.7356 37.3941 37.2918V34.5153H37.4681C37.5421 34.6264 37.616 34.7004 37.69 34.8115C39.3178 37.1067 40.9456 39.4019 42.5734 41.6972C42.7214 41.9193 42.8694 41.9933 43.1653 41.9933C45.1631 41.9933 47.1608 41.9933 49.1586 41.9933C49.2696 41.9933 49.3806 42.0304 49.4916 41.9193C47.4198 39.2909 45.3851 36.6995 43.3133 34.1081C43.3873 33.997 43.3873 33.997 43.4243 33.96ZM42.8324 28.9623C42.3884 29.6287 41.7225 29.9618 40.9826 30.1469C40.2797 30.332 39.5398 30.332 39.0219 30.295C38.4669 30.295 38.134 30.258 37.764 30.295C37.4681 30.332 37.3941 30.184 37.3941 29.9248C37.3941 27.9998 37.3941 26.0747 37.3941 24.1867C37.3941 23.8905 37.4681 23.8165 37.764 23.8165C38.7999 23.8535 39.8358 23.7425 40.8716 23.9646C43.1653 24.4829 44.1272 27.0002 42.8324 28.9623Z" fill="#3076bb"/>
<path d="M31.5488 23.5946C27.8862 18.6709 22.0779 17.7454 17.1576 19.2262C16.9356 19.3003 16.8616 19.4113 16.8616 19.6335C16.8616 21.0402 16.8616 22.41 16.8616 23.8167C16.8616 24.2239 16.7876 24.335 16.3807 24.335C15.1968 24.298 14.013 24.335 12.8291 24.335C12.2002 24.335 12.2742 24.261 12.2742 24.8533C12.2742 27.0004 12.2742 29.1476 12.2742 31.2948C12.2742 33.4419 12.2742 35.5521 12.2742 37.6992C12.2742 38.0694 12.3852 38.3286 12.6441 38.5507C15.4928 41.1791 18.8593 42.1416 22.6699 41.8455C28.2932 41.3642 33.3245 36.8478 33.6205 31.1097C33.7685 28.3702 33.2136 25.8158 31.5488 23.5946ZM25.2226 35.5521C22.0409 38.1065 17.1576 36.6997 15.6038 32.8496C14.3829 29.814 15.4188 26.2971 18.0085 24.5941C19.0443 23.9278 20.1912 23.6316 21.486 23.6316C24.9636 23.5576 27.4053 26.4451 27.6643 29.4067C27.8862 31.8871 27.1463 33.9602 25.2226 35.5521Z" fill="#3076bb"/>
<path d="M66.5091 28.1849C65.8802 24.4458 63.6975 21.8174 60.4789 20.0405C58.0372 18.6707 55.4105 18.4116 52.6729 18.6707C50.9711 18.8558 49.3803 19.3741 47.9005 20.2996C47.6785 20.4477 47.6415 20.5217 47.8265 20.7438C48.9363 22.1136 49.6762 23.6314 49.9722 25.4454C50.1202 25.3343 50.2312 25.2233 50.3421 25.1492C52.3399 23.6314 54.5596 23.1501 56.8903 24.1497C59.147 25.1122 60.3679 26.9262 60.6639 29.3325C60.9968 31.9239 60.1829 34.0711 58.1112 35.6999C55.4105 37.8101 50.0832 37.3288 48.4184 32.4422C48.3814 32.2941 48.3814 32.146 48.2334 31.9979C47.2715 32.9975 46.1617 33.7379 44.8298 34.2191C44.8668 34.2932 44.8668 34.3302 44.9038 34.3672C46.7906 36.6625 48.7144 38.9947 50.6011 41.29C50.7121 41.4381 50.8971 41.5121 51.0451 41.5491C53.3758 42.1044 55.6695 42.1044 57.9632 41.4751C63.9564 39.7721 67.545 34.2562 66.5091 28.1849Z" fill="#3076bb"/>
<path d="M11.4604 41.4014C11.4604 35.5892 11.4604 29.8141 11.4604 24.0019C11.4604 23.6688 11.5344 23.5577 11.9044 23.5577C13.1622 23.5947 14.4201 23.5577 15.6409 23.5577C15.9369 23.5577 16.0109 23.4837 16.0109 23.1875C16.0109 21.7807 16.0109 20.337 16.0109 18.9302C16.0109 18.634 15.9369 18.56 15.6409 18.56C10.8685 18.56 6.05911 18.56 1.2867 18.56C0.990739 18.56 0.916748 18.6711 0.916748 18.9302C0.916748 20.337 0.916748 21.7437 0.916748 23.1505C0.916748 23.4466 0.990739 23.5577 1.2867 23.5577C2.54455 23.5207 3.80239 23.5577 5.02324 23.5577C5.39319 23.5577 5.46718 23.6688 5.46718 24.039C5.46718 26.9635 5.46718 29.8511 5.46718 32.7757C5.46718 35.7003 5.46718 38.6249 5.46718 41.5494C5.46718 41.9196 5.57817 41.9937 5.91113 41.9937C7.57592 41.9937 9.20372 41.9937 10.8685 41.9937C11.4604 41.9196 11.4604 41.9196 11.4604 41.4014Z" fill="#3076bb"/>
<path d="M111.385 28.4442L110.238 27.2966L100.582 17.7454L97.6227 14.8209L95.9579 13.192L94.2561 11.489L84.1564 1.53066L83.4535 0.864299C82.4176 -0.172262 81.2708 0.457078 80.9748 0.753239L80.7898 0.901319L80.7528 0.938339L67.5825 14.0434L66.7686 14.8579L65.1778 16.4497C65.1778 16.4497 65.0298 16.5978 64.9188 16.7089L64.5488 17.0791C64.5488 17.0791 63.439 18.5229 64.9188 20.0037L67.2125 22.2989C67.4345 22.521 67.8044 22.484 67.9524 22.1878C68.2854 21.5585 68.6923 20.9662 69.0993 20.4109C69.4692 19.8926 69.8762 19.4113 70.3201 18.9671C70.3941 18.8931 70.4681 18.782 70.5421 18.708C73.5387 15.6723 77.7192 13.7473 82.3066 13.7473C85.1183 13.7473 87.7449 14.4507 90.0387 15.6723C90.7786 16.0425 91.4815 16.4868 92.1104 16.968C92.7393 17.4493 93.3313 17.9676 93.8862 18.5229C93.8862 18.5229 95.588 20.2998 95.588 21.5955C95.588 22.2619 95.366 22.8542 94.996 23.3355C94.8111 23.5576 94.6261 23.7797 94.3671 23.9648C93.8862 24.335 93.2573 24.5571 92.5913 24.5571C91.7035 24.5571 90.8896 24.1499 90.3716 23.5206L90.3346 23.4465C90.1127 23.1874 89.8907 22.9653 89.6687 22.7431C89.1138 22.1878 88.4849 21.6696 87.7819 21.2623C87.042 20.8181 86.2651 20.4479 85.4512 20.1888C84.4524 19.8556 83.3795 19.7075 82.2696 19.7075C79.31 19.7075 76.6463 20.9292 74.7226 22.8912C74.2046 23.4465 73.7237 24.0388 73.3167 24.6682C72.8358 25.4826 72.4289 26.3341 72.1699 27.2596V27.2966C71.9109 28.1851 71.7629 29.1476 71.7629 30.1472V30.2212C71.7629 31.2578 71.9109 32.2573 72.2069 33.2198V33.2939C72.4659 34.1083 72.8358 34.8857 73.2798 35.6261C73.7237 36.3295 74.2416 36.9959 74.8336 37.5882C75.8694 38.6247 77.0903 39.4392 78.4961 39.9575C79.68 40.4017 80.9378 40.6608 82.2696 40.6608C83.3055 40.6608 84.3044 40.5128 85.2293 40.2536C86.1541 39.9945 87.042 39.5873 87.8189 39.069C88.4479 38.6618 89.0768 38.2175 89.5947 37.6622C90.5566 36.7367 91.3335 35.6261 91.8884 34.3674C92.1104 33.8121 91.7035 33.2198 91.1115 33.2198H85.6362C85.5992 33.2198 85.5622 33.2198 85.5252 33.2198C85.4142 33.2198 85.2663 33.2568 85.1553 33.2568H85.1183C84.9703 33.2568 84.7853 33.2568 84.6373 33.2198C83.2315 32.9977 82.1586 31.776 82.1586 30.2952V30.2582L82.1217 30.2212H82.1586C82.1956 28.6664 83.4535 27.3706 85.0443 27.3336C85.0443 27.3336 95.9949 27.2966 96.1059 27.2966C97.4747 27.4447 98.5476 28.4813 98.7326 29.814C98.7696 29.9621 98.7326 30.5174 98.7326 30.7025V30.7765C98.6956 31.628 98.6216 32.4424 98.4736 33.2198C97.8447 36.5886 96.1799 39.5132 93.8122 41.8085C93.2943 42.3267 92.7763 42.771 92.1474 43.2152C91.4075 43.7705 90.6676 44.2518 89.8167 44.659C87.56 45.8066 85.0073 46.473 82.3066 46.473C79.31 46.473 76.5353 45.6956 74.1306 44.2888C73.0578 43.6595 72.0959 42.9561 71.208 42.1416C71.023 41.9936 70.875 41.8455 70.7271 41.6604C70.1351 41.0681 69.5802 40.4387 69.0993 39.7724C68.7663 39.2911 68.4334 38.9209 68.1744 38.4026C67.8784 37.8473 67.4345 38.0694 67.1755 38.3286L64.6598 40.8089C64.3269 41.1421 63.513 42.4748 64.9188 43.8816L80.7898 59.5781C81.1228 59.9113 82.5656 60.6887 83.6755 59.5411L94.1452 49.1014L96.0319 47.2134L97.6227 45.6215L111.052 31.9611L111.533 31.4799C112.236 30.8505 112.347 29.2957 111.385 28.4442Z" fill="#3076bb"/>
</svg>
